<?xml version="1.0" encoding="utf-8" standalone="no"?>
<!DOCTYPE svg PUBLIC "-//W3C//DTD SVG 1.1//EN"
  "http://www.w3.org/Graphics/SVG/1.1/DTD/svg11.dtd">
<svg xmlns:xlink="http://www.w3.org/1999/xlink" width="576pt" height="360pt" viewBox="0 0 576 360" xmlns="http://www.w3.org/2000/svg" version="1.1">
 <metadata>
  <rdf:RDF xmlns:dc="http://purl.org/dc/elements/1.1/" xmlns:cc="http://creativecommons.org/ns#" xmlns:rdf="http://www.w3.org/1999/02/22-rdf-syntax-ns#">
   <cc:Work>
    <dc:type rdf:resource="http://purl.org/dc/dcmitype/StillImage"/>
    <dc:date>2026-07-06T15:52:32.043175</dc:date>
    <dc:format>image/svg+xml</dc:format>
    <dc:creator>
     <cc:Agent>
      <dc:title>Matplotlib v3.11.0, https://matplotlib.org/</dc:title>
     </cc:Agent>
    </dc:creator>
   </cc:Work>
  </rdf:RDF>
 </metadata>
 <defs>
  <style type="text/css">*{stroke-linejoin: round; stroke-linecap: butt}</style>
 </defs>
 <g id="figure_1">
  <g id="patch_1">
   <path d="M 0 360 
L 576 360 
L 576 0 
L 0 0 
z
" style="fill: #ffffff"/>
  </g>
  <g id="axes_1">
   <g id="patch_2">
    <path d="M 55.721953 311.558047 
L 565.2 311.558047 
L 565.2 38.04 
L 55.721953 38.04 
z
" style="fill: #ffffff"/>
   </g>
   <g id="patch_3">
    <path d="M 78.880046 311.558047 
L 94.318775 311.558047 
L 94.318775 308.844574 
L 78.880046 308.844574 
z
" clip-path="url(#p992cf32965)" style="fill: #4a90e2; fill-opacity: 0.5; stroke: #000000; stroke-linejoin: miter"/>
   </g>
   <g id="patch_4">
    <path d="M 94.318775 311.558047 
L 109.757504 311.558047 
L 109.757504 297.990683 
L 94.318775 297.990683 
z
" clip-path="url(#p992cf32965)" style="fill: #4a90e2; fill-opacity: 0.5; stroke: #000000; stroke-linejoin: miter"/>
   </g>
   <g id="patch_5">
    <path d="M 109.757504 311.558047 
L 125.196232 311.558047 
L 125.196232 178.597885 
L 109.757504 178.597885 
z
" clip-path="url(#p992cf32965)" style="fill: #4a90e2; fill-opacity: 0.5; stroke: #000000; stroke-linejoin: miter"/>
   </g>
   <g id="patch_6">
    <path d="M 125.196232 311.558047 
L 140.634961 311.558047 
L 140.634961 262.715539 
L 125.196232 262.715539 
z
" clip-path="url(#p992cf32965)" style="fill: #4a90e2; fill-opacity: 0.5; stroke: #000000; stroke-linejoin: miter"/>
   </g>
   <g id="patch_7">
    <path d="M 140.634961 311.558047 
L 156.07369 311.558047 
L 156.07369 227.440394 
L 140.634961 227.440394 
z
" clip-path="url(#p992cf32965)" style="fill: #4a90e2; fill-opacity: 0.5; stroke: #000000; stroke-linejoin: miter"/>
   </g>
   <g id="patch_8">
    <path d="M 156.07369 311.558047 
L 171.512418 311.558047 
L 171.512418 113.474541 
L 156.07369 113.474541 
z
" clip-path="url(#p992cf32965)" style="fill: #4a90e2; fill-opacity: 0.5; stroke: #000000; stroke-linejoin: miter"/>
   </g>
   <g id="patch_9">
    <path d="M 171.512418 311.558047 
L 186.951147 311.558047 
L 186.951147 83.626341 
L 171.512418 83.626341 
z
" clip-path="url(#p992cf32965)" style="fill: #4a90e2; fill-opacity: 0.5; stroke: #000000; stroke-linejoin: miter"/>
   </g>
   <g id="patch_10">
    <path d="M 186.951147 311.558047 
L 202.389876 311.558047 
L 202.389876 59.205087 
L 186.951147 59.205087 
z
" clip-path="url(#p992cf32965)" style="fill: #4a90e2; fill-opacity: 0.5; stroke: #000000; stroke-linejoin: miter"/>
   </g>
   <g id="patch_11">
    <path d="M 202.389876 311.558047 
L 217.828604 311.558047 
L 217.828604 94.480232 
L 202.389876 94.480232 
z
" clip-path="url(#p992cf32965)" style="fill: #4a90e2; fill-opacity: 0.5; stroke: #000000; stroke-linejoin: miter"/>
   </g>
   <g id="patch_12">
    <path d="M 217.828604 311.558047 
L 233.267333 311.558047 
L 233.267333 51.064669 
L 217.828604 51.064669 
z
" clip-path="url(#p992cf32965)" style="fill: #4a90e2; fill-opacity: 0.5; stroke: #000000; stroke-linejoin: miter"/>
   </g>
   <g id="patch_13">
    <path d="M 233.267333 311.558047 
L 248.706062 311.558047 
L 248.706062 105.334123 
L 233.267333 105.334123 
z
" clip-path="url(#p992cf32965)" style="fill: #4a90e2; fill-opacity: 0.5; stroke: #000000; stroke-linejoin: miter"/>
   </g>
   <g id="patch_14">
    <path d="M 248.706062 311.558047 
L 264.14479 311.558047 
L 264.14479 159.603576 
L 248.706062 159.603576 
z
" clip-path="url(#p992cf32965)" style="fill: #4a90e2; fill-opacity: 0.5; stroke: #000000; stroke-linejoin: miter"/>
   </g>
   <g id="patch_15">
    <path d="M 264.14479 311.558047 
L 279.583519 311.558047 
L 279.583519 219.299976 
L 264.14479 219.299976 
z
" clip-path="url(#p992cf32965)" style="fill: #4a90e2; fill-opacity: 0.5; stroke: #000000; stroke-linejoin: miter"/>
   </g>
   <g id="patch_16">
    <path d="M 279.583519 311.558047 
L 295.022248 311.558047 
L 295.022248 192.165249 
L 279.583519 192.165249 
z
" clip-path="url(#p992cf32965)" style="fill: #4a90e2; fill-opacity: 0.5; stroke: #000000; stroke-linejoin: miter"/>
   </g>
   <g id="patch_17">
    <path d="M 295.022248 311.558047 
L 310.460977 311.558047 
L 310.460977 181.311358 
L 295.022248 181.311358 
z
" clip-path="url(#p992cf32965)" style="fill: #4a90e2; fill-opacity: 0.5; stroke: #000000; stroke-linejoin: miter"/>
   </g>
   <g id="patch_18">
    <path d="M 310.460977 311.558047 
L 325.899705 311.558047 
L 325.899705 268.142484 
L 310.460977 268.142484 
z
" clip-path="url(#p992cf32965)" style="fill: #4a90e2; fill-opacity: 0.5; stroke: #000000; stroke-linejoin: miter"/>
   </g>
   <g id="patch_19">
    <path d="M 325.899705 311.558047 
L 341.338434 311.558047 
L 341.338434 249.148175 
L 325.899705 249.148175 
z
" clip-path="url(#p992cf32965)" style="fill: #4a90e2; fill-opacity: 0.5; stroke: #000000; stroke-linejoin: miter"/>
   </g>
   <g id="patch_20">
    <path d="M 341.338434 311.558047 
L 356.777163 311.558047 
L 356.777163 287.136793 
L 341.338434 287.136793 
z
" clip-path="url(#p992cf32965)" style="fill: #4a90e2; fill-opacity: 0.5; stroke: #000000; stroke-linejoin: miter"/>
   </g>
   <g id="patch_21">
    <path d="M 356.777163 311.558047 
L 372.215891 311.558047 
L 372.215891 295.277211 
L 356.777163 295.277211 
z
" clip-path="url(#p992cf32965)" style="fill: #4a90e2; fill-opacity: 0.5; stroke: #000000; stroke-linejoin: miter"/>
   </g>
   <g id="patch_22">
    <path d="M 372.215891 311.558047 
L 387.65462 311.558047 
L 387.65462 292.563738 
L 372.215891 292.563738 
z
" clip-path="url(#p992cf32965)" style="fill: #4a90e2; fill-opacity: 0.5; stroke: #000000; stroke-linejoin: miter"/>
   </g>
   <g id="patch_23">
    <path d="M 387.65462 311.558047 
L 403.093349 311.558047 
L 403.093349 297.990683 
L 387.65462 297.990683 
z
" clip-path="url(#p992cf32965)" style="fill: #4a90e2; fill-opacity: 0.5; stroke: #000000; stroke-linejoin: miter"/>
   </g>
   <g id="patch_24">
    <path d="M 403.093349 311.558047 
L 418.532077 311.558047 
L 418.532077 295.277211 
L 403.093349 295.277211 
z
" clip-path="url(#p992cf32965)" style="fill: #4a90e2; fill-opacity: 0.5; stroke: #000000; stroke-linejoin: miter"/>
   </g>
   <g id="patch_25">
    <path d="M 418.532077 311.558047 
L 433.970806 311.558047 
L 433.970806 311.558047 
L 418.532077 311.558047 
z
" clip-path="url(#p992cf32965)" style="fill: #4a90e2; fill-opacity: 0.5; stroke: #000000; stroke-linejoin: miter"/>
   </g>
   <g id="patch_26">
    <path d="M 433.970806 311.558047 
L 449.409535 311.558047 
L 449.409535 308.844574 
L 433.970806 308.844574 
z
" clip-path="url(#p992cf32965)" style="fill: #4a90e2; fill-opacity: 0.5; stroke: #000000; stroke-linejoin: miter"/>
   </g>
   <g id="patch_27">
    <path d="M 449.409535 311.558047 
L 464.848263 311.558047 
L 464.848263 308.844574 
L 449.409535 308.844574 
z
" clip-path="url(#p992cf32965)" style="fill: #4a90e2; fill-opacity: 0.5; stroke: #000000; stroke-linejoin: miter"/>
   </g>
   <g id="patch_28">
    <path d="M 464.848263 311.558047 
L 480.286992 311.558047 
L 480.286992 308.844574 
L 464.848263 308.844574 
z
" clip-path="url(#p992cf32965)" style="fill: #4a90e2; fill-opacity: 0.5; stroke: #000000; stroke-linejoin: miter"/>
   </g>
   <g id="patch_29">
    <path d="M 480.286992 311.558047 
L 495.725721 311.558047 
L 495.725721 303.417629 
L 480.286992 303.417629 
z
" clip-path="url(#p992cf32965)" style="fill: #4a90e2; fill-opacity: 0.5; stroke: #000000; stroke-linejoin: miter"/>
   </g>
   <g id="patch_30">
    <path d="M 495.725721 311.558047 
L 511.16445 311.558047 
L 511.16445 308.844574 
L 495.725721 308.844574 
z
" clip-path="url(#p992cf32965)" style="fill: #4a90e2; fill-opacity: 0.5; stroke: #000000; stroke-linejoin: miter"/>
   </g>
   <g id="patch_31">
    <path d="M 511.16445 311.558047 
L 526.603178 311.558047 
L 526.603178 311.558047 
L 511.16445 311.558047 
z
" clip-path="url(#p992cf32965)" style="fill: #4a90e2; fill-opacity: 0.5; stroke: #000000; stroke-linejoin: miter"/>
   </g>
   <g id="patch_32">
    <path d="M 526.603178 311.558047 
L 542.041907 311.558047 
L 542.041907 306.131102 
L 526.603178 306.131102 
z
" clip-path="url(#p992cf32965)" style="fill: #4a90e2; fill-opacity: 0.5; stroke: #000000; stroke-linejoin: miter"/>
   </g>
   <g id="matplotlib.axis_1">
    <g id="xtick_1">
     <g id="line2d_1">
      <path d="M 107.948782 311.558047 
L 107.948782 38.04 
" clip-path="url(#p992cf32965)" style="fill: none; stroke-dasharray: 2.96,1.28; stroke-dashoffset: 0; stroke: #b0b0b0; stroke-opacity: 0.5; stroke-width: 0.8"/>
     </g>
     <g id="line2d_2">
      <defs>
       <path id="m469c87b2a7" d="M 0 0 
L 0 3.5 
" style="stroke: #000000; stroke-width: 0.8"/>
      </defs>
      <g>
       <use xlink:href="#m469c87b2a7" x="107.948782" y="311.558047" style="stroke: #000000; stroke-width: 0.8"/>
      </g>
     </g>
     <g id="text_1">
      <!-- 10000 -->
      <g transform="translate(94.179251 326.556094) scale(0.1 -0.1)">
       <defs>
        <path id="MalgunGothic-14" d="M 2231 0 
L 1734 0 
L 1734 3972 
Q 1591 3828 1266 3661 
Q 941 3494 672 3428 
L 672 3959 
Q 1016 4056 1409 4275 
Q 1803 4494 2031 4700 
L 2231 4700 
L 2231 0 
z
" transform="scale(0.015625)"/>
        <path id="MalgunGothic-13" d="M 278 2206 
Q 278 3425 675 4050 
Q 1072 4675 1819 4675 
Q 3253 4675 3253 2319 
Q 3253 1156 2854 539 
Q 2456 -78 1716 -78 
Q 1016 -78 647 520 
Q 278 1119 278 2206 
z
M 784 2231 
Q 784 344 1769 344 
Q 2747 344 2747 2259 
Q 2747 4250 1794 4250 
Q 784 4250 784 2231 
z
" transform="scale(0.015625)"/>
       </defs>
       <use xlink:href="#MalgunGothic-14"/>
       <use xlink:href="#MalgunGothic-13" transform="translate(55.078125 0)"/>
       <use xlink:href="#MalgunGothic-13" transform="translate(110.15625 0)"/>
       <use xlink:href="#MalgunGothic-13" transform="translate(165.234375 0)"/>
       <use xlink:href="#MalgunGothic-13" transform="translate(220.3125 0)"/>
      </g>
     </g>
    </g>
    <g id="xtick_2">
     <g id="line2d_3">
      <path d="M 185.465412 311.558047 
L 185.465412 38.04 
" clip-path="url(#p992cf32965)" style="fill: none; stroke-dasharray: 2.96,1.28; stroke-dashoffset: 0; stroke: #b0b0b0; stroke-opacity: 0.5; stroke-width: 0.8"/>
     </g>
     <g id="line2d_4">
      <g>
       <use xlink:href="#m469c87b2a7" x="185.465412" y="311.558047" style="stroke: #000000; stroke-width: 0.8"/>
      </g>
     </g>
     <g id="text_2">
      <!-- 20000 -->
      <g transform="translate(171.69588 326.556094) scale(0.1 -0.1)">
       <defs>
        <path id="MalgunGothic-15" d="M 2519 3372 
Q 2519 3784 2275 4018 
Q 2031 4253 1628 4253 
Q 1341 4253 1053 4104 
Q 766 3956 534 3697 
L 534 4234 
Q 981 4675 1691 4675 
Q 2281 4675 2642 4334 
Q 3003 3994 3003 3416 
Q 3003 2919 2772 2545 
Q 2541 2172 1984 1775 
Q 1459 1406 1254 1215 
Q 1050 1025 967 854 
Q 884 684 884 450 
L 3116 450 
L 3116 0 
L 356 0 
L 356 225 
Q 356 603 461 870 
Q 566 1138 811 1392 
Q 1056 1647 1597 2022 
Q 2091 2363 2305 2670 
Q 2519 2978 2519 3372 
z
" transform="scale(0.015625)"/>
       </defs>
       <use xlink:href="#MalgunGothic-15"/>
       <use xlink:href="#MalgunGothic-13" transform="translate(55.078125 0)"/>
       <use xlink:href="#MalgunGothic-13" transform="translate(110.15625 0)"/>
       <use xlink:href="#MalgunGothic-13" transform="translate(165.234375 0)"/>
       <use xlink:href="#MalgunGothic-13" transform="translate(220.3125 0)"/>
      </g>
     </g>
    </g>
    <g id="xtick_3">
     <g id="line2d_5">
      <path d="M 262.982041 311.558047 
L 262.982041 38.04 
" clip-path="url(#p992cf32965)" style="fill: none; stroke-dasharray: 2.96,1.28; stroke-dashoffset: 0; stroke: #b0b0b0; stroke-opacity: 0.5; stroke-width: 0.8"/>
     </g>
     <g id="line2d_6">
      <g>
       <use xlink:href="#m469c87b2a7" x="262.982041" y="311.558047" style="stroke: #000000; stroke-width: 0.8"/>
      </g>
     </g>
     <g id="text_3">
      <!-- 30000 -->
      <g transform="translate(249.21251 326.556094) scale(0.1 -0.1)">
       <defs>
        <path id="MalgunGothic-16" d="M 416 719 
Q 891 344 1478 344 
Q 1959 344 2254 587 
Q 2550 831 2550 1247 
Q 2550 2169 1253 2169 
L 872 2169 
L 872 2591 
L 1234 2591 
Q 2388 2591 2388 3453 
Q 2388 4250 1509 4250 
Q 1022 4250 594 3916 
L 594 4413 
Q 1031 4675 1634 4675 
Q 2184 4675 2539 4372 
Q 2894 4069 2894 3581 
Q 2894 2678 1972 2409 
L 1972 2400 
Q 2469 2356 2764 2053 
Q 3059 1750 3059 1300 
Q 3059 672 2604 297 
Q 2150 -78 1450 -78 
Q 806 -78 416 169 
L 416 719 
z
" transform="scale(0.015625)"/>
       </defs>
       <use xlink:href="#MalgunGothic-16"/>
       <use xlink:href="#MalgunGothic-13" transform="translate(55.078125 0)"/>
       <use xlink:href="#MalgunGothic-13" transform="translate(110.15625 0)"/>
       <use xlink:href="#MalgunGothic-13" transform="translate(165.234375 0)"/>
       <use xlink:href="#MalgunGothic-13" transform="translate(220.3125 0)"/>
      </g>
     </g>
    </g>
    <g id="xtick_4">
     <g id="line2d_7">
      <path d="M 340.49867 311.558047 
L 340.49867 38.04 
" clip-path="url(#p992cf32965)" style="fill: none; stroke-dasharray: 2.96,1.28; stroke-dashoffset: 0; stroke: #b0b0b0; stroke-opacity: 0.5; stroke-width: 0.8"/>
     </g>
     <g id="line2d_8">
      <g>
       <use xlink:href="#m469c87b2a7" x="340.49867" y="311.558047" style="stroke: #000000; stroke-width: 0.8"/>
      </g>
     </g>
     <g id="text_4">
      <!-- 40000 -->
      <g transform="translate(326.729139 326.556094) scale(0.1 -0.1)">
       <defs>
        <path id="MalgunGothic-17" d="M 2703 4600 
L 2703 1563 
L 3309 1563 
L 3309 1113 
L 2703 1113 
L 2703 0 
L 2213 0 
L 2213 1113 
L 50 1113 
L 50 1534 
Q 728 2297 1295 3109 
Q 1863 3922 2172 4600 
L 2703 4600 
z
M 625 1563 
L 2213 1563 
L 2213 3831 
Q 1613 2788 959 1981 
L 625 1563 
z
" transform="scale(0.015625)"/>
       </defs>
       <use xlink:href="#MalgunGothic-17"/>
       <use xlink:href="#MalgunGothic-13" transform="translate(55.078125 0)"/>
       <use xlink:href="#MalgunGothic-13" transform="translate(110.15625 0)"/>
       <use xlink:href="#MalgunGothic-13" transform="translate(165.234375 0)"/>
       <use xlink:href="#MalgunGothic-13" transform="translate(220.3125 0)"/>
      </g>
     </g>
    </g>
    <g id="xtick_5">
     <g id="line2d_9">
      <path d="M 418.0153 311.558047 
L 418.0153 38.04 
" clip-path="url(#p992cf32965)" style="fill: none; stroke-dasharray: 2.96,1.28; stroke-dashoffset: 0; stroke: #b0b0b0; stroke-opacity: 0.5; stroke-width: 0.8"/>
     </g>
     <g id="line2d_10">
      <g>
       <use xlink:href="#m469c87b2a7" x="418.0153" y="311.558047" style="stroke: #000000; stroke-width: 0.8"/>
      </g>
     </g>
     <g id="text_5">
      <!-- 50000 -->
      <g transform="translate(404.245769 326.556094) scale(0.1 -0.1)">
       <defs>
        <path id="MalgunGothic-18" d="M 3072 1403 
Q 3072 722 2636 322 
Q 2200 -78 1469 -78 
Q 828 -78 516 113 
L 516 650 
Q 994 344 1475 344 
Q 1969 344 2270 630 
Q 2572 916 2572 1372 
Q 2572 1838 2265 2092 
Q 1959 2347 1381 2347 
Q 994 2347 603 2300 
L 759 4600 
L 2869 4600 
L 2869 4147 
L 1206 4147 
L 1106 2763 
Q 1347 2784 1547 2784 
Q 2263 2784 2667 2414 
Q 3072 2044 3072 1403 
z
" transform="scale(0.015625)"/>
       </defs>
       <use xlink:href="#MalgunGothic-18"/>
       <use xlink:href="#MalgunGothic-13" transform="translate(55.078125 0)"/>
       <use xlink:href="#MalgunGothic-13" transform="translate(110.15625 0)"/>
       <use xlink:href="#MalgunGothic-13" transform="translate(165.234375 0)"/>
       <use xlink:href="#MalgunGothic-13" transform="translate(220.3125 0)"/>
      </g>
     </g>
    </g>
    <g id="xtick_6">
     <g id="line2d_11">
      <path d="M 495.531929 311.558047 
L 495.531929 38.04 
" clip-path="url(#p992cf32965)" style="fill: none; stroke-dasharray: 2.96,1.28; stroke-dashoffset: 0; stroke: #b0b0b0; stroke-opacity: 0.5; stroke-width: 0.8"/>
     </g>
     <g id="line2d_12">
      <g>
       <use xlink:href="#m469c87b2a7" x="495.531929" y="311.558047" style="stroke: #000000; stroke-width: 0.8"/>
      </g>
     </g>
     <g id="text_6">
      <!-- 60000 -->
      <g transform="translate(481.762398 326.556094) scale(0.1 -0.1)">
       <defs>
        <path id="MalgunGothic-19" d="M 2981 4069 
Q 2619 4250 2228 4250 
Q 1591 4250 1228 3689 
Q 866 3128 869 2213 
L 884 2213 
Q 1203 2872 1938 2872 
Q 2547 2872 2903 2478 
Q 3259 2084 3259 1450 
Q 3259 797 2857 359 
Q 2456 -78 1825 -78 
Q 1116 -78 736 478 
Q 356 1034 356 2019 
Q 356 3181 847 3928 
Q 1338 4675 2222 4675 
Q 2700 4675 2981 4544 
L 2981 4069 
z
M 906 1506 
Q 906 1022 1165 683 
Q 1425 344 1844 344 
Q 2247 344 2498 645 
Q 2750 947 2750 1388 
Q 2750 1888 2509 2167 
Q 2269 2447 1838 2447 
Q 1444 2447 1175 2173 
Q 906 1900 906 1506 
z
" transform="scale(0.015625)"/>
       </defs>
       <use xlink:href="#MalgunGothic-19"/>
       <use xlink:href="#MalgunGothic-13" transform="translate(55.078125 0)"/>
       <use xlink:href="#MalgunGothic-13" transform="translate(110.15625 0)"/>
       <use xlink:href="#MalgunGothic-13" transform="translate(165.234375 0)"/>
       <use xlink:href="#MalgunGothic-13" transform="translate(220.3125 0)"/>
      </g>
     </g>
    </g>
    <g id="text_7">
     <!-- 정가 (원) -->
     <g transform="translate(290.656289 347.098672) scale(0.1 -0.1)">
      <defs>
       <path id="MalgunGothic-8bd" d="M 4947 1984 
L 4947 3694 
L 3541 3694 
L 3541 4109 
L 4947 4109 
L 4947 5466 
L 5416 5466 
L 5416 1984 
L 4947 1984 
z
M 3653 2328 
Q 3244 2550 2831 2950 
Q 2419 3350 2253 3700 
Q 2075 3303 1659 2858 
Q 1244 2413 819 2175 
L 488 2497 
Q 1134 2806 1571 3393 
Q 2009 3981 2009 4628 
L 2009 4781 
L 684 4781 
L 684 5197 
L 3788 5197 
L 3788 4781 
L 2463 4781 
L 2463 4628 
Q 2463 4025 2916 3472 
Q 3369 2919 3969 2669 
L 3653 2328 
z
M 3566 -475 
Q 2622 -475 2108 -148 
Q 1594 178 1594 697 
Q 1594 1216 2106 1539 
Q 2619 1863 3566 1863 
Q 4513 1863 5025 1539 
Q 5538 1216 5538 697 
Q 5538 178 5023 -148 
Q 4509 -475 3566 -475 
z
M 3566 1466 
Q 2850 1466 2472 1248 
Q 2094 1031 2094 697 
Q 2094 359 2473 143 
Q 2853 -72 3566 -72 
Q 4275 -72 4656 142 
Q 5038 356 5038 697 
Q 5038 1034 4659 1250 
Q 4281 1466 3566 1466 
z
" transform="scale(0.015625)"/>
       <path id="MalgunGothic-27c" d="M 5094 2566 
L 5094 -563 
L 4628 -563 
L 4628 5466 
L 5094 5466 
L 5094 2981 
L 6175 2981 
L 6175 2566 
L 5094 2566 
z
M 3609 4928 
Q 3541 2363 897 863 
L 538 1241 
Q 1484 1631 2234 2506 
Q 2984 3381 3109 4513 
L 794 4513 
L 794 4928 
L 3609 4928 
z
" transform="scale(0.015625)"/>
       <path id="MalgunGothic-3" transform="scale(0.015625)"/>
       <path id="MalgunGothic-b" d="M 1438 -1044 
Q 447 88 447 1753 
Q 447 3431 1438 4600 
L 1888 4600 
Q 878 3372 878 1759 
Q 878 153 1881 -1044 
L 1438 -1044 
z
" transform="scale(0.015625)"/>
       <path id="MalgunGothic-855" d="M 4978 697 
L 4978 1344 
L 3659 1344 
L 3659 1759 
L 4978 1759 
L 4978 5466 
L 5453 5466 
L 5453 697 
L 4978 697 
z
M 2625 3059 
Q 1966 3059 1548 3390 
Q 1131 3722 1131 4213 
Q 1131 4697 1545 5026 
Q 1959 5356 2625 5356 
Q 3288 5356 3702 5029 
Q 4116 4703 4116 4213 
Q 4116 3719 3700 3389 
Q 3284 3059 2625 3059 
z
M 2625 4959 
Q 2163 4959 1881 4734 
Q 1600 4509 1600 4213 
Q 1600 3909 1881 3682 
Q 2163 3456 2625 3456 
Q 3088 3456 3370 3682 
Q 3653 3909 3653 4213 
Q 3653 4509 3370 4734 
Q 3088 4959 2625 4959 
z
M 4556 2291 
Q 4100 2259 2881 2209 
L 2881 909 
L 2419 909 
L 2419 2188 
Q 1209 2144 641 2144 
L 575 2578 
Q 2853 2578 4525 2694 
L 4556 2291 
z
M 1509 -403 
L 1509 1403 
L 1978 1403 
L 1978 13 
L 5600 13 
L 5600 -403 
L 1509 -403 
z
" transform="scale(0.015625)"/>
       <path id="MalgunGothic-c" d="M 81 -1044 
Q 1081 150 1081 1759 
Q 1081 3378 72 4600 
L 525 4600 
Q 1522 3431 1522 1753 
Q 1522 88 525 -1044 
L 81 -1044 
z
" transform="scale(0.015625)"/>
      </defs>
      <use xlink:href="#MalgunGothic-8bd"/>
      <use xlink:href="#MalgunGothic-27c" transform="translate(100 0)"/>
      <use xlink:href="#MalgunGothic-3" transform="translate(200 0)"/>
      <use xlink:href="#MalgunGothic-b" transform="translate(235.15625 0)"/>
      <use xlink:href="#MalgunGothic-855" transform="translate(265.625 0)"/>
      <use xlink:href="#MalgunGothic-c" transform="translate(365.625 0)"/>
     </g>
    </g>
   </g>
   <g id="matplotlib.axis_2">
    <g id="ytick_1">
     <g id="line2d_13">
      <path d="M 55.721953 311.558047 
L 565.2 311.558047 
" clip-path="url(#p992cf32965)" style="fill: none; stroke-dasharray: 2.96,1.28; stroke-dashoffset: 0; stroke: #b0b0b0; stroke-opacity: 0.5; stroke-width: 0.8"/>
     </g>
     <g id="line2d_14">
      <defs>
       <path id="m1fca198d7a" d="M 0 0 
L -3.5 0 
" style="stroke: #000000; stroke-width: 0.8"/>
      </defs>
      <g>
       <use xlink:href="#m1fca198d7a" x="55.721953" y="311.558047" style="stroke: #000000; stroke-width: 0.8"/>
      </g>
     </g>
     <g id="text_8">
      <!-- 0 -->
      <g transform="translate(43.214141 315.55707) scale(0.1 -0.1)">
       <use xlink:href="#MalgunGothic-13"/>
      </g>
     </g>
    </g>
    <g id="ytick_2">
     <g id="line2d_15">
      <path d="M 55.721953 257.288593 
L 565.2 257.288593 
" clip-path="url(#p992cf32965)" style="fill: none; stroke-dasharray: 2.96,1.28; stroke-dashoffset: 0; stroke: #b0b0b0; stroke-opacity: 0.5; stroke-width: 0.8"/>
     </g>
     <g id="line2d_16">
      <g>
       <use xlink:href="#m1fca198d7a" x="55.721953" y="257.288593" style="stroke: #000000; stroke-width: 0.8"/>
      </g>
     </g>
     <g id="text_9">
      <!-- 20 -->
      <g transform="translate(37.706328 261.287617) scale(0.1 -0.1)">
       <use xlink:href="#MalgunGothic-15"/>
       <use xlink:href="#MalgunGothic-13" transform="translate(55.078125 0)"/>
      </g>
     </g>
    </g>
    <g id="ytick_3">
     <g id="line2d_17">
      <path d="M 55.721953 203.019139 
L 565.2 203.019139 
" clip-path="url(#p992cf32965)" style="fill: none; stroke-dasharray: 2.96,1.28; stroke-dashoffset: 0; stroke: #b0b0b0; stroke-opacity: 0.5; stroke-width: 0.8"/>
     </g>
     <g id="line2d_18">
      <g>
       <use xlink:href="#m1fca198d7a" x="55.721953" y="203.019139" style="stroke: #000000; stroke-width: 0.8"/>
      </g>
     </g>
     <g id="text_10">
      <!-- 40 -->
      <g transform="translate(37.706328 207.018163) scale(0.1 -0.1)">
       <use xlink:href="#MalgunGothic-17"/>
       <use xlink:href="#MalgunGothic-13" transform="translate(55.078125 0)"/>
      </g>
     </g>
    </g>
    <g id="ytick_4">
     <g id="line2d_19">
      <path d="M 55.721953 148.749686 
L 565.2 148.749686 
" clip-path="url(#p992cf32965)" style="fill: none; stroke-dasharray: 2.96,1.28; stroke-dashoffset: 0; stroke: #b0b0b0; stroke-opacity: 0.5; stroke-width: 0.8"/>
     </g>
     <g id="line2d_20">
      <g>
       <use xlink:href="#m1fca198d7a" x="55.721953" y="148.749686" style="stroke: #000000; stroke-width: 0.8"/>
      </g>
     </g>
     <g id="text_11">
      <!-- 60 -->
      <g transform="translate(37.706328 152.748709) scale(0.1 -0.1)">
       <use xlink:href="#MalgunGothic-19"/>
       <use xlink:href="#MalgunGothic-13" transform="translate(55.078125 0)"/>
      </g>
     </g>
    </g>
    <g id="ytick_5">
     <g id="line2d_21">
      <path d="M 55.721953 94.480232 
L 565.2 94.480232 
" clip-path="url(#p992cf32965)" style="fill: none; stroke-dasharray: 2.96,1.28; stroke-dashoffset: 0; stroke: #b0b0b0; stroke-opacity: 0.5; stroke-width: 0.8"/>
     </g>
     <g id="line2d_22">
      <g>
       <use xlink:href="#m1fca198d7a" x="55.721953" y="94.480232" style="stroke: #000000; stroke-width: 0.8"/>
      </g>
     </g>
     <g id="text_12">
      <!-- 80 -->
      <g transform="translate(37.706328 98.479255) scale(0.1 -0.1)">
       <defs>
        <path id="MalgunGothic-1b" d="M 303 1281 
Q 303 1669 539 2011 
Q 775 2353 1153 2494 
Q 856 2647 675 2915 
Q 494 3184 494 3500 
Q 494 3828 659 4098 
Q 825 4369 1122 4522 
Q 1419 4675 1778 4675 
Q 2334 4675 2700 4342 
Q 3066 4009 3066 3500 
Q 3066 3181 2881 2914 
Q 2697 2647 2413 2494 
Q 2788 2350 3022 2009 
Q 3256 1669 3256 1281 
Q 3256 672 2843 297 
Q 2431 -78 1778 -78 
Q 1131 -78 717 301 
Q 303 681 303 1281 
z
M 809 1328 
Q 809 878 1081 611 
Q 1353 344 1781 344 
Q 2206 344 2482 619 
Q 2759 894 2759 1328 
Q 2759 1731 2482 2011 
Q 2206 2291 1781 2291 
Q 1372 2291 1090 2020 
Q 809 1750 809 1328 
z
M 1003 3459 
Q 1003 3125 1234 2900 
Q 1466 2675 1781 2675 
Q 2097 2675 2330 2900 
Q 2563 3125 2563 3459 
Q 2563 3803 2341 4026 
Q 2119 4250 1781 4250 
Q 1450 4250 1226 4029 
Q 1003 3809 1003 3459 
z
" transform="scale(0.015625)"/>
       </defs>
       <use xlink:href="#MalgunGothic-1b"/>
       <use xlink:href="#MalgunGothic-13" transform="translate(55.078125 0)"/>
      </g>
     </g>
    </g>
    <g id="ytick_6">
     <g id="line2d_23">
      <path d="M 55.721953 40.210778 
L 565.2 40.210778 
" clip-path="url(#p992cf32965)" style="fill: none; stroke-dasharray: 2.96,1.28; stroke-dashoffset: 0; stroke: #b0b0b0; stroke-opacity: 0.5; stroke-width: 0.8"/>
     </g>
     <g id="line2d_24">
      <g>
       <use xlink:href="#m1fca198d7a" x="55.721953" y="40.210778" style="stroke: #000000; stroke-width: 0.8"/>
      </g>
     </g>
     <g id="text_13">
      <!-- 100 -->
      <g transform="translate(32.198516 44.209802) scale(0.1 -0.1)">
       <use xlink:href="#MalgunGothic-14"/>
       <use xlink:href="#MalgunGothic-13" transform="translate(55.078125 0)"/>
       <use xlink:href="#MalgunGothic-13" transform="translate(110.15625 0)"/>
      </g>
     </g>
    </g>
    <g id="text_14">
     <!-- 도서 수 -->
     <g transform="translate(20.196563 191.556836) rotate(-90) scale(0.1 -0.1)">
      <defs>
       <path id="MalgunGothic-466" d="M 403 372 
L 403 788 
L 2963 788 
L 2963 2181 
L 1350 2181 
L 1350 4897 
L 5050 4897 
L 5050 4481 
L 1819 4481 
L 1819 2600 
L 5147 2600 
L 5147 2181 
L 3438 2181 
L 3438 788 
L 5997 788 
L 5997 372 
L 403 372 
z
" transform="scale(0.015625)"/>
       <path id="MalgunGothic-6f0" d="M 4947 -563 
L 4947 3072 
L 3541 3072 
L 3541 3488 
L 4947 3488 
L 4947 5466 
L 5416 5466 
L 5416 -563 
L 4947 -563 
z
M 3775 966 
Q 3269 1353 2826 1939 
Q 2384 2525 2266 2950 
Q 2122 2463 1694 1872 
Q 1266 1281 763 891 
L 403 1203 
Q 1147 1703 1587 2479 
Q 2028 3256 2028 4063 
L 2028 5050 
L 2491 5050 
L 2491 4084 
Q 2491 3303 2927 2556 
Q 3363 1809 4103 1331 
L 3775 966 
z
" transform="scale(0.015625)"/>
       <path id="MalgunGothic-739" d="M 5491 2994 
Q 4750 3097 4078 3498 
Q 3406 3900 3200 4275 
Q 2975 3891 2309 3491 
Q 1644 3091 922 2956 
L 634 3347 
Q 1559 3450 2261 3942 
Q 2963 4434 2963 5013 
L 2963 5275 
L 3431 5275 
L 3431 5013 
Q 3431 4431 4118 3948 
Q 4806 3466 5766 3378 
L 5491 2994 
z
M 3431 1838 
L 3431 -563 
L 2963 -563 
L 2963 1838 
L 403 1838 
L 403 2253 
L 5997 2253 
L 5997 1838 
L 3431 1838 
z
" transform="scale(0.015625)"/>
      </defs>
      <use xlink:href="#MalgunGothic-466"/>
      <use xlink:href="#MalgunGothic-6f0" transform="translate(100 0)"/>
      <use xlink:href="#MalgunGothic-3" transform="translate(200 0)"/>
      <use xlink:href="#MalgunGothic-739" transform="translate(235.15625 0)"/>
     </g>
    </g>
   </g>
   <g id="line2d_25">
    <path d="M 78.880046 307.468472 
L 81.207493 306.42297 
L 83.534939 305.11635 
L 85.862386 303.501672 
L 88.189832 301.532645 
L 90.517279 299.166992 
L 92.844725 296.370349 
L 95.172172 293.120417 
L 97.499618 289.410965 
L 99.827065 285.255229 
L 102.154512 280.688171 
L 104.481958 275.767152 
L 109.136851 265.194681 
L 116.119191 249.086489 
L 118.446637 244.077721 
L 120.774084 239.390138 
L 123.10153 235.070093 
L 125.428977 231.130868 
L 127.756423 227.550823 
L 130.08387 224.274681 
L 134.738763 218.273494 
L 139.393656 212.237268 
L 141.721103 208.904227 
L 144.048549 205.220327 
L 146.375996 201.106814 
L 148.703442 196.513224 
L 151.030889 191.420105 
L 153.358335 185.839178 
L 155.685782 179.811089 
L 160.340675 166.693621 
L 171.977908 132.125318 
L 176.632801 119.444519 
L 178.960247 113.585767 
L 181.287694 108.081917 
L 183.61514 102.942791 
L 185.942587 98.169373 
L 188.270033 93.757203 
L 190.59748 89.699749 
L 192.924926 85.991464 
L 195.252373 82.630335 
L 197.57982 79.619785 
L 199.907266 76.969848 
L 202.234713 74.697596 
L 204.562159 72.826806 
L 206.889606 71.3869 
L 209.217052 70.411204 
L 211.544499 69.934628 
L 213.871945 69.990909 
L 216.199392 70.609617 
L 218.526838 71.813193 
L 220.854285 73.614284 
L 223.181731 76.013676 
L 225.509178 78.999038 
L 227.836625 82.54461 
L 230.164071 86.611848 
L 232.491518 91.150896 
L 234.818964 96.102654 
L 239.473857 106.975847 
L 244.12875 118.661023 
L 251.11109 136.429553 
L 255.765983 147.616778 
L 258.093429 152.821226 
L 260.420876 157.694727 
L 262.748323 162.195577 
L 265.075769 166.294952 
L 267.403216 169.979572 
L 269.730662 173.253836 
L 272.058109 176.141039 
L 274.385555 178.683378 
L 276.713002 180.940589 
L 281.367895 184.908312 
L 286.022788 188.737971 
L 288.350234 190.822587 
L 290.677681 193.122648 
L 293.005128 195.695923 
L 295.332574 198.580397 
L 297.660021 201.791996 
L 299.987467 205.323909 
L 302.314914 209.147571 
L 306.969807 217.464098 
L 316.279593 234.779157 
L 320.934486 242.6749 
L 323.261933 246.272473 
L 325.589379 249.616936 
L 327.916826 252.71266 
L 330.244272 255.576335 
L 332.571719 258.233499 
L 337.226612 263.051782 
L 341.881505 267.408605 
L 346.536398 271.481813 
L 351.191291 275.352097 
L 355.846184 279.018561 
L 360.501077 282.438714 
L 365.15597 285.565355 
L 369.810863 288.365003 
L 374.465756 290.818586 
L 379.120649 292.91541 
L 383.775542 294.652124 
L 388.430436 296.041501 
L 393.085329 297.126628 
L 400.067668 298.374455 
L 409.377454 299.962948 
L 414.032347 300.95578 
L 421.014687 302.753199 
L 432.65192 305.890304 
L 437.306813 306.887185 
L 441.961706 307.643993 
L 446.616599 308.164372 
L 451.271492 308.48422 
L 458.253832 308.682434 
L 465.236171 308.625517 
L 472.218511 308.350164 
L 493.16553 307.201225 
L 497.820423 307.200235 
L 504.802762 307.462525 
L 530.404674 308.934425 
L 542.041907 309.452663 
L 542.041907 309.452663 
" clip-path="url(#p992cf32965)" style="fill: none; stroke: #4a90e2; stroke-width: 1.5; stroke-linecap: square"/>
   </g>
   <g id="patch_33">
    <path d="M 55.721953 311.558047 
L 55.721953 38.04 
" style="fill: none; stroke: #000000; stroke-width: 0.8; stroke-linejoin: miter; stroke-linecap: square"/>
   </g>
   <g id="patch_34">
    <path d="M 565.2 311.558047 
L 565.2 38.04 
" style="fill: none; stroke: #000000; stroke-width: 0.8; stroke-linejoin: miter; stroke-linecap: square"/>
   </g>
   <g id="patch_35">
    <path d="M 55.721953 311.558047 
L 565.2 311.558047 
" style="fill: none; stroke: #000000; stroke-width: 0.8; stroke-linejoin: miter; stroke-linecap: square"/>
   </g>
   <g id="patch_36">
    <path d="M 55.721953 38.04 
L 565.2 38.04 
" style="fill: none; stroke: #000000; stroke-width: 0.8; stroke-linejoin: miter; stroke-linecap: square"/>
   </g>
   <g id="text_15">
    <!-- 도서 정가 분포 -->
    <g transform="translate(263.539102 23.04) scale(0.14 -0.14)">
     <defs>
      <path id="MalgunGothicBold-463" d="M 403 263 
L 403 916 
L 2803 916 
L 2803 2113 
L 1294 2113 
L 1294 4934 
L 5106 4934 
L 5106 4281 
L 2081 4281 
L 2081 2766 
L 5197 2766 
L 5197 2113 
L 3591 2113 
L 3591 916 
L 5997 916 
L 5997 263 
L 403 263 
z
" transform="scale(0.015625)"/>
      <path id="MalgunGothicBold-6ed" d="M 4794 -563 
L 4794 2981 
L 3488 2981 
L 3488 3641 
L 4794 3641 
L 4794 5466 
L 5575 5466 
L 5575 -563 
L 4794 -563 
z
M 3609 934 
Q 2681 1578 2228 2444 
Q 1731 1463 838 831 
L 231 1369 
Q 925 1725 1381 2434 
Q 1838 3144 1838 3891 
L 1838 5063 
L 2619 5063 
L 2619 3909 
Q 2619 3178 3066 2498 
Q 3513 1819 4159 1544 
L 3609 934 
z
" transform="scale(0.015625)"/>
      <path id="MalgunGothicBold-3" transform="scale(0.015625)"/>
      <path id="MalgunGothicBold-8ba" d="M 4788 2016 
L 4788 3475 
L 3653 3475 
L 3653 4103 
L 4788 4103 
L 4788 5466 
L 5556 5466 
L 5556 2016 
L 4788 2016 
z
M 3566 2113 
Q 2672 2556 2222 3213 
Q 2056 2869 1640 2476 
Q 1225 2084 856 1906 
L 300 2456 
Q 928 2694 1367 3217 
Q 1806 3741 1806 4300 
L 1806 4544 
L 563 4544 
L 563 5197 
L 3803 5197 
L 3803 4544 
L 2591 4544 
L 2591 4325 
Q 2591 3788 3002 3353 
Q 3413 2919 4063 2706 
L 3566 2113 
z
M 3659 -538 
Q 2725 -538 2201 -189 
Q 1678 159 1678 716 
Q 1678 1269 2203 1620 
Q 2728 1972 3659 1972 
Q 4594 1972 5122 1619 
Q 5650 1266 5650 716 
Q 5650 159 5123 -189 
Q 4597 -538 3659 -538 
z
M 3659 1325 
Q 3063 1325 2767 1156 
Q 2472 988 2472 716 
Q 2472 444 2770 276 
Q 3069 109 3659 109 
Q 4253 109 4554 275 
Q 4856 441 4856 716 
Q 4856 984 4557 1154 
Q 4259 1325 3659 1325 
z
" transform="scale(0.015625)"/>
      <path id="MalgunGothicBold-279" d="M 5269 2431 
L 5269 -563 
L 4481 -563 
L 4481 5466 
L 5269 5466 
L 5269 3091 
L 6203 3091 
L 6203 2431 
L 5269 2431 
z
M 978 756 
L 391 1306 
Q 2413 2416 2834 4288 
L 738 4288 
L 738 4947 
L 3725 4947 
Q 3478 2297 978 756 
z
" transform="scale(0.015625)"/>
      <path id="MalgunGothicBold-654" d="M 1247 2975 
L 1247 5319 
L 2028 5319 
L 2028 4744 
L 4372 4744 
L 4372 5319 
L 5153 5319 
L 5153 2975 
L 1247 2975 
z
M 4372 4103 
L 2028 4103 
L 2028 3628 
L 4372 3628 
L 4372 4103 
z
M 3591 1825 
L 3591 659 
L 2803 659 
L 2803 1825 
L 403 1825 
L 403 2484 
L 5997 2484 
L 5997 1825 
L 3591 1825 
z
M 1228 -397 
L 1228 1403 
L 2016 1403 
L 2016 263 
L 5253 263 
L 5253 -397 
L 1228 -397 
z
" transform="scale(0.015625)"/>
      <path id="MalgunGothicBold-ae3" d="M 959 4294 
L 959 4941 
L 5441 4941 
L 5441 4294 
L 959 4294 
z
M 403 256 
L 403 909 
L 2803 909 
L 2803 1972 
L 916 1972 
L 916 2619 
L 1772 2619 
L 1703 4025 
L 2484 4025 
L 2534 2619 
L 3859 2619 
L 3916 4025 
L 4697 4025 
L 4609 2619 
L 5484 2619 
L 5484 1972 
L 3591 1972 
L 3591 909 
L 5997 909 
L 5997 256 
L 403 256 
z
" transform="scale(0.015625)"/>
     </defs>
     <use xlink:href="#MalgunGothicBold-463"/>
     <use xlink:href="#MalgunGothicBold-6ed" transform="translate(100 0)"/>
     <use xlink:href="#MalgunGothicBold-3" transform="translate(200 0)"/>
     <use xlink:href="#MalgunGothicBold-8ba" transform="translate(235.15625 0)"/>
     <use xlink:href="#MalgunGothicBold-279" transform="translate(335.15625 0)"/>
     <use xlink:href="#MalgunGothicBold-3" transform="translate(435.15625 0)"/>
     <use xlink:href="#MalgunGothicBold-654" transform="translate(470.3125 0)"/>
     <use xlink:href="#MalgunGothicBold-ae3" transform="translate(570.3125 0)"/>
    </g>
   </g>
  </g>
 </g>
 <defs>
  <clipPath id="p992cf32965">
   <rect x="55.721953" y="38.04" width="509.478047" height="273.518047"/>
  </clipPath>
 </defs>
</svg>
