<?xml version="1.0" encoding="utf-8" standalone="no"?>
<!DOCTYPE svg PUBLIC "-//W3C//DTD SVG 1.1//EN"
  "http://www.w3.org/Graphics/SVG/1.1/DTD/svg11.dtd">
<svg xmlns:xlink="http://www.w3.org/1999/xlink" width="576pt" height="360pt" viewBox="0 0 576 360" xmlns="http://www.w3.org/2000/svg" version="1.1">
 <metadata>
  <rdf:RDF xmlns:dc="http://purl.org/dc/elements/1.1/" xmlns:cc="http://creativecommons.org/ns#" xmlns:rdf="http://www.w3.org/1999/02/22-rdf-syntax-ns#">
   <cc:Work>
    <dc:type rdf:resource="http://purl.org/dc/dcmitype/StillImage"/>
    <dc:date>2026-07-06T15:52:32.534255</dc:date>
    <dc:format>image/svg+xml</dc:format>
    <dc:creator>
     <cc:Agent>
      <dc:title>Matplotlib v3.11.0, https://matplotlib.org/</dc:title>
     </cc:Agent>
    </dc:creator>
   </cc:Work>
  </rdf:RDF>
 </metadata>
 <defs>
  <style type="text/css">*{stroke-linejoin: round; stroke-linecap: butt}</style>
 </defs>
 <g id="figure_1">
  <g id="patch_1">
   <path d="M 0 360 
L 576 360 
L 576 0 
L 0 0 
z
" style="fill: #ffffff"/>
  </g>
  <g id="axes_1">
   <g id="patch_2">
    <path d="M 55.721953 311.558047 
L 565.2 311.558047 
L 565.2 38.04 
L 55.721953 38.04 
z
" style="fill: #ffffff"/>
   </g>
   <g id="patch_3">
    <path d="M 68.458904 311.558047 
L 170.354514 311.558047 
L 170.354514 264.52452 
L 68.458904 264.52452 
z
" clip-path="url(#p3c1d918845)" style="fill: #62d1b8"/>
   </g>
   <g id="patch_4">
    <path d="M 195.828416 311.558047 
L 297.724025 311.558047 
L 297.724025 310.834454 
L 195.828416 310.834454 
z
" clip-path="url(#p3c1d918845)" style="fill: #62d1b8"/>
   </g>
   <g id="patch_5">
    <path d="M 323.197928 311.558047 
L 425.093537 311.558047 
L 425.093537 305.407509 
L 323.197928 305.407509 
z
" clip-path="url(#p3c1d918845)" style="fill: #62d1b8"/>
   </g>
   <g id="patch_6">
    <path d="M 450.567439 311.558047 
L 552.463049 311.558047 
L 552.463049 51.064669 
L 450.567439 51.064669 
z
" clip-path="url(#p3c1d918845)" style="fill: #62d1b8"/>
   </g>
   <g id="matplotlib.axis_1">
    <g id="xtick_1">
     <g id="line2d_1">
      <defs>
       <path id="m55371a1077" d="M 0 0 
L 0 3.5 
" style="stroke: #000000; stroke-width: 0.8"/>
      </defs>
      <g>
       <use xlink:href="#m55371a1077" x="119.406709" y="311.558047" style="stroke: #000000; stroke-width: 0.8"/>
      </g>
     </g>
     <g id="text_1">
      <!-- 0 -->
      <g transform="translate(116.652803 326.556094) scale(0.1 -0.1)">
       <defs>
        <path id="MalgunGothic-13" d="M 278 2206 
Q 278 3425 675 4050 
Q 1072 4675 1819 4675 
Q 3253 4675 3253 2319 
Q 3253 1156 2854 539 
Q 2456 -78 1716 -78 
Q 1016 -78 647 520 
Q 278 1119 278 2206 
z
M 784 2231 
Q 784 344 1769 344 
Q 2747 344 2747 2259 
Q 2747 4250 1794 4250 
Q 784 4250 784 2231 
z
" transform="scale(0.015625)"/>
       </defs>
       <use xlink:href="#MalgunGothic-13"/>
      </g>
     </g>
    </g>
    <g id="xtick_2">
     <g id="line2d_2">
      <g>
       <use xlink:href="#m55371a1077" x="246.776221" y="311.558047" style="stroke: #000000; stroke-width: 0.8"/>
      </g>
     </g>
     <g id="text_2">
      <!-- 3 -->
      <g transform="translate(244.022314 326.556094) scale(0.1 -0.1)">
       <defs>
        <path id="MalgunGothic-16" d="M 416 719 
Q 891 344 1478 344 
Q 1959 344 2254 587 
Q 2550 831 2550 1247 
Q 2550 2169 1253 2169 
L 872 2169 
L 872 2591 
L 1234 2591 
Q 2388 2591 2388 3453 
Q 2388 4250 1509 4250 
Q 1022 4250 594 3916 
L 594 4413 
Q 1031 4675 1634 4675 
Q 2184 4675 2539 4372 
Q 2894 4069 2894 3581 
Q 2894 2678 1972 2409 
L 1972 2400 
Q 2469 2356 2764 2053 
Q 3059 1750 3059 1300 
Q 3059 672 2604 297 
Q 2150 -78 1450 -78 
Q 806 -78 416 169 
L 416 719 
z
" transform="scale(0.015625)"/>
       </defs>
       <use xlink:href="#MalgunGothic-16"/>
      </g>
     </g>
    </g>
    <g id="xtick_3">
     <g id="line2d_3">
      <g>
       <use xlink:href="#m55371a1077" x="374.145732" y="311.558047" style="stroke: #000000; stroke-width: 0.8"/>
      </g>
     </g>
     <g id="text_3">
      <!-- 5 -->
      <g transform="translate(371.391826 326.556094) scale(0.1 -0.1)">
       <defs>
        <path id="MalgunGothic-18" d="M 3072 1403 
Q 3072 722 2636 322 
Q 2200 -78 1469 -78 
Q 828 -78 516 113 
L 516 650 
Q 994 344 1475 344 
Q 1969 344 2270 630 
Q 2572 916 2572 1372 
Q 2572 1838 2265 2092 
Q 1959 2347 1381 2347 
Q 994 2347 603 2300 
L 759 4600 
L 2869 4600 
L 2869 4147 
L 1206 4147 
L 1106 2763 
Q 1347 2784 1547 2784 
Q 2263 2784 2667 2414 
Q 3072 2044 3072 1403 
z
" transform="scale(0.015625)"/>
       </defs>
       <use xlink:href="#MalgunGothic-18"/>
      </g>
     </g>
    </g>
    <g id="xtick_4">
     <g id="line2d_4">
      <g>
       <use xlink:href="#m55371a1077" x="501.515244" y="311.558047" style="stroke: #000000; stroke-width: 0.8"/>
      </g>
     </g>
     <g id="text_4">
      <!-- 10 -->
      <g transform="translate(496.007432 326.556094) scale(0.1 -0.1)">
       <defs>
        <path id="MalgunGothic-14" d="M 2231 0 
L 1734 0 
L 1734 3972 
Q 1591 3828 1266 3661 
Q 941 3494 672 3428 
L 672 3959 
Q 1016 4056 1409 4275 
Q 1803 4494 2031 4700 
L 2231 4700 
L 2231 0 
z
" transform="scale(0.015625)"/>
       </defs>
       <use xlink:href="#MalgunGothic-14"/>
       <use xlink:href="#MalgunGothic-13" transform="translate(55.078125 0)"/>
      </g>
     </g>
    </g>
    <g id="text_5">
     <!-- 할인율 (%) -->
     <g transform="translate(286.474258 347.250234) scale(0.1 -0.1)">
      <defs>
       <path id="MalgunGothic-b1f" d="M 447 4506 
L 447 4903 
L 1997 4903 
L 1997 5563 
L 2463 5563 
L 2463 4903 
L 4019 4903 
L 4019 4506 
L 447 4506 
z
M 5125 3278 
L 5125 2106 
L 4659 2106 
L 4659 5466 
L 5125 5466 
L 5125 3688 
L 6034 3688 
L 6034 3278 
L 5125 3278 
z
M 2228 2234 
Q 1528 2234 1133 2495 
Q 738 2756 738 3194 
Q 738 3634 1130 3896 
Q 1522 4159 2234 4159 
Q 2944 4159 3337 3893 
Q 3731 3628 3731 3194 
Q 3731 2759 3332 2496 
Q 2934 2234 2228 2234 
z
M 2234 3788 
Q 1750 3788 1476 3627 
Q 1203 3466 1203 3194 
Q 1203 2922 1481 2767 
Q 1759 2613 2234 2613 
Q 2713 2613 2984 2769 
Q 3256 2925 3256 3194 
Q 3256 3463 2989 3625 
Q 2722 3788 2234 3788 
z
M 1428 -506 
L 1428 844 
L 4666 844 
L 4666 1369 
L 1428 1369 
L 1428 1772 
L 5125 1772 
L 5125 459 
L 1888 459 
L 1888 -109 
L 5288 -109 
L 5288 -506 
L 1428 -506 
z
" transform="scale(0.015625)"/>
       <path id="MalgunGothic-889" d="M 4947 1063 
L 4947 5466 
L 5416 5466 
L 5416 1063 
L 4947 1063 
z
M 2438 2175 
Q 1763 2175 1309 2601 
Q 856 3028 856 3706 
Q 856 4388 1307 4811 
Q 1759 5234 2438 5234 
Q 3116 5234 3564 4812 
Q 4013 4391 4013 3706 
Q 4013 3028 3563 2601 
Q 3113 2175 2438 2175 
z
M 2438 4819 
Q 1944 4819 1634 4516 
Q 1325 4213 1325 3706 
Q 1325 3200 1633 2895 
Q 1941 2591 2438 2591 
Q 2934 2591 3243 2895 
Q 3553 3200 3553 3706 
Q 3553 4213 3243 4516 
Q 2934 4819 2438 4819 
z
M 1613 -331 
L 1613 1625 
L 2081 1625 
L 2081 91 
L 5575 91 
L 5575 -331 
L 1613 -331 
z
" transform="scale(0.015625)"/>
       <path id="MalgunGothic-86d" d="M 3200 3316 
Q 2269 3316 1769 3605 
Q 1269 3894 1269 4378 
Q 1269 4859 1770 5150 
Q 2272 5441 3200 5441 
Q 4138 5441 4634 5155 
Q 5131 4869 5131 4378 
Q 5131 3891 4632 3603 
Q 4134 3316 3200 3316 
z
M 3200 5069 
Q 2503 5069 2128 4878 
Q 1753 4688 1753 4378 
Q 1753 4063 2131 3872 
Q 2509 3681 3200 3681 
Q 3884 3681 4265 3875 
Q 4647 4069 4647 4378 
Q 4647 4681 4267 4875 
Q 3888 5069 3200 5069 
z
M 1306 -500 
L 1306 844 
L 4628 844 
L 4628 1403 
L 1306 1403 
L 1306 1784 
L 2009 1784 
L 2009 2425 
L 403 2425 
L 403 2816 
L 5997 2816 
L 5997 2425 
L 4391 2425 
L 4391 1784 
L 5088 1784 
L 5088 475 
L 1766 475 
L 1766 -109 
L 5247 -109 
L 5247 -500 
L 1306 -500 
z
M 3928 1784 
L 3928 2425 
L 2472 2425 
L 2472 1784 
L 3928 1784 
z
" transform="scale(0.015625)"/>
       <path id="MalgunGothic-3" transform="scale(0.015625)"/>
       <path id="MalgunGothic-b" d="M 1438 -1044 
Q 447 88 447 1753 
Q 447 3431 1438 4600 
L 1888 4600 
Q 878 3372 878 1759 
Q 878 153 1881 -1044 
L 1438 -1044 
z
" transform="scale(0.015625)"/>
       <path id="MalgunGothic-8" d="M 253 3444 
Q 253 3997 547 4331 
Q 841 4666 1353 4666 
Q 1847 4666 2115 4355 
Q 2384 4044 2384 3509 
Q 2384 2972 2082 2633 
Q 1781 2294 1288 2294 
Q 816 2294 534 2608 
Q 253 2922 253 3444 
z
M 666 3475 
Q 666 3091 841 2864 
Q 1016 2638 1322 2638 
Q 1631 2638 1803 2863 
Q 1975 3088 1975 3494 
Q 1975 3894 1804 4112 
Q 1634 4331 1334 4331 
Q 1022 4331 844 4098 
Q 666 3866 666 3475 
z
M 4350 4600 
L 1403 -34 
L 966 -34 
L 3909 4600 
L 4350 4600 
z
M 2988 1078 
Q 2988 1641 3284 1977 
Q 3581 2313 4081 2313 
Q 4569 2313 4841 2000 
Q 5113 1688 5113 1138 
Q 5113 600 4809 264 
Q 4506 -72 4019 -72 
Q 3550 -72 3269 245 
Q 2988 563 2988 1078 
z
M 3394 1103 
Q 3394 725 3570 498 
Q 3747 272 4050 272 
Q 4356 272 4529 501 
Q 4703 731 4703 1134 
Q 4703 1534 4534 1748 
Q 4366 1963 4066 1963 
Q 3753 1963 3573 1731 
Q 3394 1500 3394 1103 
z
" transform="scale(0.015625)"/>
       <path id="MalgunGothic-c" d="M 81 -1044 
Q 1081 150 1081 1759 
Q 1081 3378 72 4600 
L 525 4600 
Q 1522 3431 1522 1753 
Q 1522 88 525 -1044 
L 81 -1044 
z
" transform="scale(0.015625)"/>
      </defs>
      <use xlink:href="#MalgunGothic-b1f"/>
      <use xlink:href="#MalgunGothic-889" transform="translate(100 0)"/>
      <use xlink:href="#MalgunGothic-86d" transform="translate(200 0)"/>
      <use xlink:href="#MalgunGothic-3" transform="translate(300 0)"/>
      <use xlink:href="#MalgunGothic-b" transform="translate(335.15625 0)"/>
      <use xlink:href="#MalgunGothic-8" transform="translate(365.625 0)"/>
      <use xlink:href="#MalgunGothic-c" transform="translate(449.265625 0)"/>
     </g>
    </g>
   </g>
   <g id="matplotlib.axis_2">
    <g id="ytick_1">
     <g id="line2d_5">
      <path d="M 55.721953 311.558047 
L 565.2 311.558047 
" clip-path="url(#p3c1d918845)" style="fill: none; stroke-dasharray: 2.96,1.28; stroke-dashoffset: 0; stroke: #b0b0b0; stroke-opacity: 0.5; stroke-width: 0.8"/>
     </g>
     <g id="line2d_6">
      <defs>
       <path id="m380a59ed38" d="M 0 0 
L -3.5 0 
" style="stroke: #000000; stroke-width: 0.8"/>
      </defs>
      <g>
       <use xlink:href="#m380a59ed38" x="55.721953" y="311.558047" style="stroke: #000000; stroke-width: 0.8"/>
      </g>
     </g>
     <g id="text_6">
      <!-- 0 -->
      <g transform="translate(43.214141 315.55707) scale(0.1 -0.1)">
       <use xlink:href="#MalgunGothic-13"/>
      </g>
     </g>
    </g>
    <g id="ytick_2">
     <g id="line2d_7">
      <path d="M 55.721953 275.378411 
L 565.2 275.378411 
" clip-path="url(#p3c1d918845)" style="fill: none; stroke-dasharray: 2.96,1.28; stroke-dashoffset: 0; stroke: #b0b0b0; stroke-opacity: 0.5; stroke-width: 0.8"/>
     </g>
     <g id="line2d_8">
      <g>
       <use xlink:href="#m380a59ed38" x="55.721953" y="275.378411" style="stroke: #000000; stroke-width: 0.8"/>
      </g>
     </g>
     <g id="text_7">
      <!-- 100 -->
      <g transform="translate(32.198516 279.377434) scale(0.1 -0.1)">
       <use xlink:href="#MalgunGothic-14"/>
       <use xlink:href="#MalgunGothic-13" transform="translate(55.078125 0)"/>
       <use xlink:href="#MalgunGothic-13" transform="translate(110.15625 0)"/>
      </g>
     </g>
    </g>
    <g id="ytick_3">
     <g id="line2d_9">
      <path d="M 55.721953 239.198775 
L 565.2 239.198775 
" clip-path="url(#p3c1d918845)" style="fill: none; stroke-dasharray: 2.96,1.28; stroke-dashoffset: 0; stroke: #b0b0b0; stroke-opacity: 0.5; stroke-width: 0.8"/>
     </g>
     <g id="line2d_10">
      <g>
       <use xlink:href="#m380a59ed38" x="55.721953" y="239.198775" style="stroke: #000000; stroke-width: 0.8"/>
      </g>
     </g>
     <g id="text_8">
      <!-- 200 -->
      <g transform="translate(32.198516 243.197799) scale(0.1 -0.1)">
       <defs>
        <path id="MalgunGothic-15" d="M 2519 3372 
Q 2519 3784 2275 4018 
Q 2031 4253 1628 4253 
Q 1341 4253 1053 4104 
Q 766 3956 534 3697 
L 534 4234 
Q 981 4675 1691 4675 
Q 2281 4675 2642 4334 
Q 3003 3994 3003 3416 
Q 3003 2919 2772 2545 
Q 2541 2172 1984 1775 
Q 1459 1406 1254 1215 
Q 1050 1025 967 854 
Q 884 684 884 450 
L 3116 450 
L 3116 0 
L 356 0 
L 356 225 
Q 356 603 461 870 
Q 566 1138 811 1392 
Q 1056 1647 1597 2022 
Q 2091 2363 2305 2670 
Q 2519 2978 2519 3372 
z
" transform="scale(0.015625)"/>
       </defs>
       <use xlink:href="#MalgunGothic-15"/>
       <use xlink:href="#MalgunGothic-13" transform="translate(55.078125 0)"/>
       <use xlink:href="#MalgunGothic-13" transform="translate(110.15625 0)"/>
      </g>
     </g>
    </g>
    <g id="ytick_4">
     <g id="line2d_11">
      <path d="M 55.721953 203.019139 
L 565.2 203.019139 
" clip-path="url(#p3c1d918845)" style="fill: none; stroke-dasharray: 2.96,1.28; stroke-dashoffset: 0; stroke: #b0b0b0; stroke-opacity: 0.5; stroke-width: 0.8"/>
     </g>
     <g id="line2d_12">
      <g>
       <use xlink:href="#m380a59ed38" x="55.721953" y="203.019139" style="stroke: #000000; stroke-width: 0.8"/>
      </g>
     </g>
     <g id="text_9">
      <!-- 300 -->
      <g transform="translate(32.198516 207.018163) scale(0.1 -0.1)">
       <use xlink:href="#MalgunGothic-16"/>
       <use xlink:href="#MalgunGothic-13" transform="translate(55.078125 0)"/>
       <use xlink:href="#MalgunGothic-13" transform="translate(110.15625 0)"/>
      </g>
     </g>
    </g>
    <g id="ytick_5">
     <g id="line2d_13">
      <path d="M 55.721953 166.839504 
L 565.2 166.839504 
" clip-path="url(#p3c1d918845)" style="fill: none; stroke-dasharray: 2.96,1.28; stroke-dashoffset: 0; stroke: #b0b0b0; stroke-opacity: 0.5; stroke-width: 0.8"/>
     </g>
     <g id="line2d_14">
      <g>
       <use xlink:href="#m380a59ed38" x="55.721953" y="166.839504" style="stroke: #000000; stroke-width: 0.8"/>
      </g>
     </g>
     <g id="text_10">
      <!-- 400 -->
      <g transform="translate(32.198516 170.838527) scale(0.1 -0.1)">
       <defs>
        <path id="MalgunGothic-17" d="M 2703 4600 
L 2703 1563 
L 3309 1563 
L 3309 1113 
L 2703 1113 
L 2703 0 
L 2213 0 
L 2213 1113 
L 50 1113 
L 50 1534 
Q 728 2297 1295 3109 
Q 1863 3922 2172 4600 
L 2703 4600 
z
M 625 1563 
L 2213 1563 
L 2213 3831 
Q 1613 2788 959 1981 
L 625 1563 
z
" transform="scale(0.015625)"/>
       </defs>
       <use xlink:href="#MalgunGothic-17"/>
       <use xlink:href="#MalgunGothic-13" transform="translate(55.078125 0)"/>
       <use xlink:href="#MalgunGothic-13" transform="translate(110.15625 0)"/>
      </g>
     </g>
    </g>
    <g id="ytick_6">
     <g id="line2d_15">
      <path d="M 55.721953 130.659868 
L 565.2 130.659868 
" clip-path="url(#p3c1d918845)" style="fill: none; stroke-dasharray: 2.96,1.28; stroke-dashoffset: 0; stroke: #b0b0b0; stroke-opacity: 0.5; stroke-width: 0.8"/>
     </g>
     <g id="line2d_16">
      <g>
       <use xlink:href="#m380a59ed38" x="55.721953" y="130.659868" style="stroke: #000000; stroke-width: 0.8"/>
      </g>
     </g>
     <g id="text_11">
      <!-- 500 -->
      <g transform="translate(32.198516 134.658891) scale(0.1 -0.1)">
       <use xlink:href="#MalgunGothic-18"/>
       <use xlink:href="#MalgunGothic-13" transform="translate(55.078125 0)"/>
       <use xlink:href="#MalgunGothic-13" transform="translate(110.15625 0)"/>
      </g>
     </g>
    </g>
    <g id="ytick_7">
     <g id="line2d_17">
      <path d="M 55.721953 94.480232 
L 565.2 94.480232 
" clip-path="url(#p3c1d918845)" style="fill: none; stroke-dasharray: 2.96,1.28; stroke-dashoffset: 0; stroke: #b0b0b0; stroke-opacity: 0.5; stroke-width: 0.8"/>
     </g>
     <g id="line2d_18">
      <g>
       <use xlink:href="#m380a59ed38" x="55.721953" y="94.480232" style="stroke: #000000; stroke-width: 0.8"/>
      </g>
     </g>
     <g id="text_12">
      <!-- 600 -->
      <g transform="translate(32.198516 98.479255) scale(0.1 -0.1)">
       <defs>
        <path id="MalgunGothic-19" d="M 2981 4069 
Q 2619 4250 2228 4250 
Q 1591 4250 1228 3689 
Q 866 3128 869 2213 
L 884 2213 
Q 1203 2872 1938 2872 
Q 2547 2872 2903 2478 
Q 3259 2084 3259 1450 
Q 3259 797 2857 359 
Q 2456 -78 1825 -78 
Q 1116 -78 736 478 
Q 356 1034 356 2019 
Q 356 3181 847 3928 
Q 1338 4675 2222 4675 
Q 2700 4675 2981 4544 
L 2981 4069 
z
M 906 1506 
Q 906 1022 1165 683 
Q 1425 344 1844 344 
Q 2247 344 2498 645 
Q 2750 947 2750 1388 
Q 2750 1888 2509 2167 
Q 2269 2447 1838 2447 
Q 1444 2447 1175 2173 
Q 906 1900 906 1506 
z
" transform="scale(0.015625)"/>
       </defs>
       <use xlink:href="#MalgunGothic-19"/>
       <use xlink:href="#MalgunGothic-13" transform="translate(55.078125 0)"/>
       <use xlink:href="#MalgunGothic-13" transform="translate(110.15625 0)"/>
      </g>
     </g>
    </g>
    <g id="ytick_8">
     <g id="line2d_19">
      <path d="M 55.721953 58.300596 
L 565.2 58.300596 
" clip-path="url(#p3c1d918845)" style="fill: none; stroke-dasharray: 2.96,1.28; stroke-dashoffset: 0; stroke: #b0b0b0; stroke-opacity: 0.5; stroke-width: 0.8"/>
     </g>
     <g id="line2d_20">
      <g>
       <use xlink:href="#m380a59ed38" x="55.721953" y="58.300596" style="stroke: #000000; stroke-width: 0.8"/>
      </g>
     </g>
     <g id="text_13">
      <!-- 700 -->
      <g transform="translate(32.198516 62.29962) scale(0.1 -0.1)">
       <defs>
        <path id="MalgunGothic-1a" d="M 3213 4297 
Q 2478 3006 2064 1918 
Q 1650 831 1550 0 
L 1009 0 
Q 1084 531 1290 1176 
Q 1497 1822 1815 2537 
Q 2134 3253 2631 4147 
L 291 4147 
L 291 4600 
L 3213 4600 
L 3213 4297 
z
" transform="scale(0.015625)"/>
       </defs>
       <use xlink:href="#MalgunGothic-1a"/>
       <use xlink:href="#MalgunGothic-13" transform="translate(55.078125 0)"/>
       <use xlink:href="#MalgunGothic-13" transform="translate(110.15625 0)"/>
      </g>
     </g>
    </g>
    <g id="text_14">
     <!-- 도서 수 -->
     <g transform="translate(20.196563 191.556836) rotate(-90) scale(0.1 -0.1)">
      <defs>
       <path id="MalgunGothic-466" d="M 403 372 
L 403 788 
L 2963 788 
L 2963 2181 
L 1350 2181 
L 1350 4897 
L 5050 4897 
L 5050 4481 
L 1819 4481 
L 1819 2600 
L 5147 2600 
L 5147 2181 
L 3438 2181 
L 3438 788 
L 5997 788 
L 5997 372 
L 403 372 
z
" transform="scale(0.015625)"/>
       <path id="MalgunGothic-6f0" d="M 4947 -563 
L 4947 3072 
L 3541 3072 
L 3541 3488 
L 4947 3488 
L 4947 5466 
L 5416 5466 
L 5416 -563 
L 4947 -563 
z
M 3775 966 
Q 3269 1353 2826 1939 
Q 2384 2525 2266 2950 
Q 2122 2463 1694 1872 
Q 1266 1281 763 891 
L 403 1203 
Q 1147 1703 1587 2479 
Q 2028 3256 2028 4063 
L 2028 5050 
L 2491 5050 
L 2491 4084 
Q 2491 3303 2927 2556 
Q 3363 1809 4103 1331 
L 3775 966 
z
" transform="scale(0.015625)"/>
       <path id="MalgunGothic-739" d="M 5491 2994 
Q 4750 3097 4078 3498 
Q 3406 3900 3200 4275 
Q 2975 3891 2309 3491 
Q 1644 3091 922 2956 
L 634 3347 
Q 1559 3450 2261 3942 
Q 2963 4434 2963 5013 
L 2963 5275 
L 3431 5275 
L 3431 5013 
Q 3431 4431 4118 3948 
Q 4806 3466 5766 3378 
L 5491 2994 
z
M 3431 1838 
L 3431 -563 
L 2963 -563 
L 2963 1838 
L 403 1838 
L 403 2253 
L 5997 2253 
L 5997 1838 
L 3431 1838 
z
" transform="scale(0.015625)"/>
      </defs>
      <use xlink:href="#MalgunGothic-466"/>
      <use xlink:href="#MalgunGothic-6f0" transform="translate(100 0)"/>
      <use xlink:href="#MalgunGothic-3" transform="translate(200 0)"/>
      <use xlink:href="#MalgunGothic-739" transform="translate(235.15625 0)"/>
     </g>
    </g>
   </g>
   <g id="line2d_21">
    <path clip-path="url(#p3c1d918845)" style="fill: none; stroke: #424242; stroke-width: 2.25; stroke-linecap: square"/>
   </g>
   <g id="line2d_22">
    <path clip-path="url(#p3c1d918845)" style="fill: none; stroke: #424242; stroke-width: 2.25; stroke-linecap: square"/>
   </g>
   <g id="line2d_23">
    <path clip-path="url(#p3c1d918845)" style="fill: none; stroke: #424242; stroke-width: 2.25; stroke-linecap: square"/>
   </g>
   <g id="line2d_24">
    <path clip-path="url(#p3c1d918845)" style="fill: none; stroke: #424242; stroke-width: 2.25; stroke-linecap: square"/>
   </g>
   <g id="patch_7">
    <path d="M 55.721953 311.558047 
L 55.721953 38.04 
" style="fill: none; stroke: #000000; stroke-width: 0.8; stroke-linejoin: miter; stroke-linecap: square"/>
   </g>
   <g id="patch_8">
    <path d="M 565.2 311.558047 
L 565.2 38.04 
" style="fill: none; stroke: #000000; stroke-width: 0.8; stroke-linejoin: miter; stroke-linecap: square"/>
   </g>
   <g id="patch_9">
    <path d="M 55.721953 311.558047 
L 565.2 311.558047 
" style="fill: none; stroke: #000000; stroke-width: 0.8; stroke-linejoin: miter; stroke-linecap: square"/>
   </g>
   <g id="patch_10">
    <path d="M 55.721953 38.04 
L 565.2 38.04 
" style="fill: none; stroke: #000000; stroke-width: 0.8; stroke-linejoin: miter; stroke-linecap: square"/>
   </g>
   <g id="text_15">
    <!-- 할인율별 도서 빈도 -->
    <g transform="translate(249.539102 23.04) scale(0.14 -0.14)">
     <defs>
      <path id="MalgunGothicBold-b1c" d="M 1906 5581 
L 2688 5581 
L 2688 4991 
L 4141 4991 
L 4141 4384 
L 447 4384 
L 447 4991 
L 1906 4991 
L 1906 5581 
z
M 5259 3175 
L 5259 2100 
L 4475 2100 
L 4475 5466 
L 5259 5466 
L 5259 3834 
L 6169 3834 
L 6169 3175 
L 5259 3175 
z
M 3872 3169 
Q 3872 2694 3445 2416 
Q 3019 2138 2291 2138 
Q 1563 2138 1139 2417 
Q 716 2697 716 3169 
Q 716 3650 1145 3925 
Q 1575 4200 2297 4200 
Q 3025 4200 3448 3923 
Q 3872 3647 3872 3169 
z
M 1509 3169 
Q 1509 2753 2297 2753 
Q 3084 2753 3084 3169 
Q 3084 3584 2297 3584 
Q 1509 3584 1509 3169 
z
M 1447 -538 
L 1447 941 
L 4488 941 
L 4488 1241 
L 1447 1241 
L 1447 1856 
L 5259 1856 
L 5259 397 
L 2228 397 
L 2228 78 
L 5409 78 
L 5409 -538 
L 1447 -538 
z
" transform="scale(0.015625)"/>
      <path id="MalgunGothicBold-886" d="M 4697 1172 
L 4697 5466 
L 5466 5466 
L 5466 1172 
L 4697 1172 
z
M 2222 2034 
Q 1522 2034 1062 2482 
Q 603 2931 603 3628 
Q 603 4331 1062 4779 
Q 1522 5228 2222 5228 
Q 2922 5228 3381 4781 
Q 3841 4334 3841 3628 
Q 3841 2928 3381 2481 
Q 2922 2034 2222 2034 
z
M 2222 4569 
Q 1847 4569 1608 4309 
Q 1369 4050 1369 3628 
Q 1369 3209 1608 2951 
Q 1847 2694 2222 2694 
Q 2603 2694 2837 2951 
Q 3072 3209 3072 3628 
Q 3072 4041 2834 4305 
Q 2597 4569 2222 4569 
z
M 1575 -353 
L 1575 1638 
L 2363 1638 
L 2363 306 
L 5581 306 
L 5581 -353 
L 1575 -353 
z
" transform="scale(0.015625)"/>
      <path id="MalgunGothicBold-86a" d="M 3200 3400 
Q 2225 3400 1701 3675 
Q 1178 3950 1178 4434 
Q 1178 4934 1695 5203 
Q 2213 5472 3200 5472 
Q 5222 5472 5222 4434 
Q 5222 3938 4711 3669 
Q 4200 3400 3200 3400 
z
M 3200 4884 
Q 1978 4884 1978 4434 
Q 1978 3988 3200 3988 
Q 4422 3988 4422 4434 
Q 4422 4884 3200 4884 
z
M 1222 -459 
L 1222 1094 
L 4391 1094 
L 4391 1422 
L 1222 1422 
L 1222 2059 
L 1913 2059 
L 1913 2484 
L 403 2484 
L 403 3144 
L 5997 3144 
L 5997 2484 
L 4488 2484 
L 4488 2059 
L 5172 2059 
L 5172 506 
L 2003 506 
L 2003 178 
L 5319 178 
L 5319 -459 
L 1222 -459 
z
M 3725 2059 
L 3725 2484 
L 2675 2484 
L 2675 2059 
L 3725 2059 
z
" transform="scale(0.015625)"/>
      <path id="MalgunGothicBold-634" d="M 722 2541 
L 722 5269 
L 1491 5269 
L 1491 4525 
L 2847 4525 
L 2847 5269 
L 3622 5269 
L 3622 4716 
L 4794 4716 
L 4794 5466 
L 5563 5466 
L 5563 2438 
L 4794 2438 
L 4794 2956 
L 3622 2956 
L 3622 2541 
L 722 2541 
z
M 3622 3547 
L 4794 3547 
L 4794 4128 
L 3622 4128 
L 3622 3547 
z
M 2847 3866 
L 1491 3866 
L 1491 3194 
L 2847 3194 
L 2847 3866 
z
M 1663 -466 
L 1663 1166 
L 4794 1166 
L 4794 1538 
L 1663 1538 
L 1663 2175 
L 5563 2175 
L 5563 563 
L 2438 563 
L 2438 172 
L 5716 172 
L 5716 -466 
L 1663 -466 
z
" transform="scale(0.015625)"/>
      <path id="MalgunGothicBold-3" transform="scale(0.015625)"/>
      <path id="MalgunGothicBold-463" d="M 403 263 
L 403 916 
L 2803 916 
L 2803 2113 
L 1294 2113 
L 1294 4934 
L 5106 4934 
L 5106 4281 
L 2081 4281 
L 2081 2766 
L 5197 2766 
L 5197 2113 
L 3591 2113 
L 3591 916 
L 5997 916 
L 5997 263 
L 403 263 
z
" transform="scale(0.015625)"/>
      <path id="MalgunGothicBold-6ed" d="M 4794 -563 
L 4794 2981 
L 3488 2981 
L 3488 3641 
L 4794 3641 
L 4794 5466 
L 5575 5466 
L 5575 -563 
L 4794 -563 
z
M 3609 934 
Q 2681 1578 2228 2444 
Q 1731 1463 838 831 
L 231 1369 
Q 925 1725 1381 2434 
Q 1838 3144 1838 3891 
L 1838 5063 
L 2619 5063 
L 2619 3909 
Q 2619 3178 3066 2498 
Q 3513 1819 4159 1544 
L 3609 934 
z
" transform="scale(0.015625)"/>
      <path id="MalgunGothicBold-677" d="M 4716 1153 
L 4716 5466 
L 5484 5466 
L 5484 1153 
L 4716 1153 
z
M 716 2228 
L 716 5153 
L 1484 5153 
L 1484 4256 
L 2841 4256 
L 2841 5153 
L 3616 5153 
L 3616 2228 
L 716 2228 
z
M 2841 3597 
L 1484 3597 
L 1484 2881 
L 2841 2881 
L 2841 3597 
z
M 1594 -353 
L 1594 1703 
L 2381 1703 
L 2381 306 
L 5600 306 
L 5600 -353 
L 1594 -353 
z
" transform="scale(0.015625)"/>
     </defs>
     <use xlink:href="#MalgunGothicBold-b1c"/>
     <use xlink:href="#MalgunGothicBold-886" transform="translate(100 0)"/>
     <use xlink:href="#MalgunGothicBold-86a" transform="translate(200 0)"/>
     <use xlink:href="#MalgunGothicBold-634" transform="translate(300 0)"/>
     <use xlink:href="#MalgunGothicBold-3" transform="translate(400 0)"/>
     <use xlink:href="#MalgunGothicBold-463" transform="translate(435.15625 0)"/>
     <use xlink:href="#MalgunGothicBold-6ed" transform="translate(535.15625 0)"/>
     <use xlink:href="#MalgunGothicBold-3" transform="translate(635.15625 0)"/>
     <use xlink:href="#MalgunGothicBold-677" transform="translate(670.3125 0)"/>
     <use xlink:href="#MalgunGothicBold-463" transform="translate(770.3125 0)"/>
    </g>
   </g>
  </g>
 </g>
 <defs>
  <clipPath id="p3c1d918845">
   <rect x="55.721953" y="38.04" width="509.478047" height="273.518047"/>
  </clipPath>
 </defs>
</svg>
