<?xml version="1.0" encoding="utf-8" standalone="no"?>
<!DOCTYPE svg PUBLIC "-//W3C//DTD SVG 1.1//EN"
  "http://www.w3.org/Graphics/SVG/1.1/DTD/svg11.dtd">
<svg xmlns:xlink="http://www.w3.org/1999/xlink" width="648pt" height="360pt" viewBox="0 0 648 360" xmlns="http://www.w3.org/2000/svg" version="1.1">
 <metadata>
  <rdf:RDF xmlns:dc="http://purl.org/dc/elements/1.1/" xmlns:cc="http://creativecommons.org/ns#" xmlns:rdf="http://www.w3.org/1999/02/22-rdf-syntax-ns#">
   <cc:Work>
    <dc:type rdf:resource="http://purl.org/dc/dcmitype/StillImage"/>
    <dc:date>2026-07-06T15:52:32.742395</dc:date>
    <dc:format>image/svg+xml</dc:format>
    <dc:creator>
     <cc:Agent>
      <dc:title>Matplotlib v3.11.0, https://matplotlib.org/</dc:title>
     </cc:Agent>
    </dc:creator>
   </cc:Work>
  </rdf:RDF>
 </metadata>
 <defs>
  <style type="text/css">*{stroke-linejoin: round; stroke-linecap: butt}</style>
 </defs>
 <g id="figure_1">
  <g id="patch_1">
   <path d="M 0 360 
L 648 360 
L 648 0 
L 0 0 
z
" style="fill: #ffffff"/>
  </g>
  <g id="axes_1">
   <g id="patch_2">
    <path d="M 149.321953 311.558047 
L 637.2 311.558047 
L 637.2 38.04 
L 149.321953 38.04 
z
" style="fill: #ffffff"/>
   </g>
   <g id="patch_3">
    <path d="M 149.321953 43.510361 
L 613.967712 43.510361 
L 613.967712 87.273248 
L 149.321953 87.273248 
z
" clip-path="url(#p50cdc7269d)" style="fill: #225b91"/>
   </g>
   <g id="patch_4">
    <path d="M 149.321953 98.21397 
L 386.564611 98.21397 
L 386.564611 141.976858 
L 149.321953 141.976858 
z
" clip-path="url(#p50cdc7269d)" style="fill: #4884af"/>
   </g>
   <g id="patch_5">
    <path d="M 149.321953 152.91758 
L 260.836935 152.91758 
L 260.836935 196.680467 
L 149.321953 196.680467 
z
" clip-path="url(#p50cdc7269d)" style="fill: #79abc9"/>
   </g>
   <g id="patch_6">
    <path d="M 149.321953 207.621189 
L 236.784684 207.621189 
L 236.784684 251.384077 
L 149.321953 251.384077 
z
" clip-path="url(#p50cdc7269d)" style="fill: #b3cede"/>
   </g>
   <g id="patch_7">
    <path d="M 149.321953 262.324798 
L 198.519739 262.324798 
L 198.519739 306.087686 
L 149.321953 306.087686 
z
" clip-path="url(#p50cdc7269d)" style="fill: #dae6f1"/>
   </g>
   <g id="matplotlib.axis_1">
    <g id="xtick_1">
     <g id="line2d_1">
      <path d="M 149.321953 311.558047 
L 149.321953 38.04 
" clip-path="url(#p50cdc7269d)" style="fill: none; stroke-dasharray: 2.96,1.28; stroke-dashoffset: 0; stroke: #b0b0b0; stroke-opacity: 0.5; stroke-width: 0.8"/>
     </g>
     <g id="line2d_2">
      <defs>
       <path id="m7cc6b77fd4" d="M 0 0 
L 0 3.5 
" style="stroke: #000000; stroke-width: 0.8"/>
      </defs>
      <g>
       <use xlink:href="#m7cc6b77fd4" x="149.321953" y="311.558047" style="stroke: #000000; stroke-width: 0.8"/>
      </g>
     </g>
     <g id="text_1">
      <!-- 0 -->
      <g transform="translate(146.568047 326.556094) scale(0.1 -0.1)">
       <defs>
        <path id="MalgunGothic-13" d="M 278 2206 
Q 278 3425 675 4050 
Q 1072 4675 1819 4675 
Q 3253 4675 3253 2319 
Q 3253 1156 2854 539 
Q 2456 -78 1716 -78 
Q 1016 -78 647 520 
Q 278 1119 278 2206 
z
M 784 2231 
Q 784 344 1769 344 
Q 2747 344 2747 2259 
Q 2747 4250 1794 4250 
Q 784 4250 784 2231 
z
" transform="scale(0.015625)"/>
       </defs>
       <use xlink:href="#MalgunGothic-13"/>
      </g>
     </g>
    </g>
    <g id="xtick_2">
     <g id="line2d_3">
      <path d="M 203.98616 311.558047 
L 203.98616 38.04 
" clip-path="url(#p50cdc7269d)" style="fill: none; stroke-dasharray: 2.96,1.28; stroke-dashoffset: 0; stroke: #b0b0b0; stroke-opacity: 0.5; stroke-width: 0.8"/>
     </g>
     <g id="line2d_4">
      <g>
       <use xlink:href="#m7cc6b77fd4" x="203.98616" y="311.558047" style="stroke: #000000; stroke-width: 0.8"/>
      </g>
     </g>
     <g id="text_2">
      <!-- 50 -->
      <g transform="translate(198.478348 326.556094) scale(0.1 -0.1)">
       <defs>
        <path id="MalgunGothic-18" d="M 3072 1403 
Q 3072 722 2636 322 
Q 2200 -78 1469 -78 
Q 828 -78 516 113 
L 516 650 
Q 994 344 1475 344 
Q 1969 344 2270 630 
Q 2572 916 2572 1372 
Q 2572 1838 2265 2092 
Q 1959 2347 1381 2347 
Q 994 2347 603 2300 
L 759 4600 
L 2869 4600 
L 2869 4147 
L 1206 4147 
L 1106 2763 
Q 1347 2784 1547 2784 
Q 2263 2784 2667 2414 
Q 3072 2044 3072 1403 
z
" transform="scale(0.015625)"/>
       </defs>
       <use xlink:href="#MalgunGothic-18"/>
       <use xlink:href="#MalgunGothic-13" transform="translate(55.078125 0)"/>
      </g>
     </g>
    </g>
    <g id="xtick_3">
     <g id="line2d_5">
      <path d="M 258.650367 311.558047 
L 258.650367 38.04 
" clip-path="url(#p50cdc7269d)" style="fill: none; stroke-dasharray: 2.96,1.28; stroke-dashoffset: 0; stroke: #b0b0b0; stroke-opacity: 0.5; stroke-width: 0.8"/>
     </g>
     <g id="line2d_6">
      <g>
       <use xlink:href="#m7cc6b77fd4" x="258.650367" y="311.558047" style="stroke: #000000; stroke-width: 0.8"/>
      </g>
     </g>
     <g id="text_3">
      <!-- 100 -->
      <g transform="translate(250.388648 326.556094) scale(0.1 -0.1)">
       <defs>
        <path id="MalgunGothic-14" d="M 2231 0 
L 1734 0 
L 1734 3972 
Q 1591 3828 1266 3661 
Q 941 3494 672 3428 
L 672 3959 
Q 1016 4056 1409 4275 
Q 1803 4494 2031 4700 
L 2231 4700 
L 2231 0 
z
" transform="scale(0.015625)"/>
       </defs>
       <use xlink:href="#MalgunGothic-14"/>
       <use xlink:href="#MalgunGothic-13" transform="translate(55.078125 0)"/>
       <use xlink:href="#MalgunGothic-13" transform="translate(110.15625 0)"/>
      </g>
     </g>
    </g>
    <g id="xtick_4">
     <g id="line2d_7">
      <path d="M 313.314574 311.558047 
L 313.314574 38.04 
" clip-path="url(#p50cdc7269d)" style="fill: none; stroke-dasharray: 2.96,1.28; stroke-dashoffset: 0; stroke: #b0b0b0; stroke-opacity: 0.5; stroke-width: 0.8"/>
     </g>
     <g id="line2d_8">
      <g>
       <use xlink:href="#m7cc6b77fd4" x="313.314574" y="311.558047" style="stroke: #000000; stroke-width: 0.8"/>
      </g>
     </g>
     <g id="text_4">
      <!-- 150 -->
      <g transform="translate(305.052855 326.556094) scale(0.1 -0.1)">
       <use xlink:href="#MalgunGothic-14"/>
       <use xlink:href="#MalgunGothic-18" transform="translate(55.078125 0)"/>
       <use xlink:href="#MalgunGothic-13" transform="translate(110.15625 0)"/>
      </g>
     </g>
    </g>
    <g id="xtick_5">
     <g id="line2d_9">
      <path d="M 367.978781 311.558047 
L 367.978781 38.04 
" clip-path="url(#p50cdc7269d)" style="fill: none; stroke-dasharray: 2.96,1.28; stroke-dashoffset: 0; stroke: #b0b0b0; stroke-opacity: 0.5; stroke-width: 0.8"/>
     </g>
     <g id="line2d_10">
      <g>
       <use xlink:href="#m7cc6b77fd4" x="367.978781" y="311.558047" style="stroke: #000000; stroke-width: 0.8"/>
      </g>
     </g>
     <g id="text_5">
      <!-- 200 -->
      <g transform="translate(359.717062 326.556094) scale(0.1 -0.1)">
       <defs>
        <path id="MalgunGothic-15" d="M 2519 3372 
Q 2519 3784 2275 4018 
Q 2031 4253 1628 4253 
Q 1341 4253 1053 4104 
Q 766 3956 534 3697 
L 534 4234 
Q 981 4675 1691 4675 
Q 2281 4675 2642 4334 
Q 3003 3994 3003 3416 
Q 3003 2919 2772 2545 
Q 2541 2172 1984 1775 
Q 1459 1406 1254 1215 
Q 1050 1025 967 854 
Q 884 684 884 450 
L 3116 450 
L 3116 0 
L 356 0 
L 356 225 
Q 356 603 461 870 
Q 566 1138 811 1392 
Q 1056 1647 1597 2022 
Q 2091 2363 2305 2670 
Q 2519 2978 2519 3372 
z
" transform="scale(0.015625)"/>
       </defs>
       <use xlink:href="#MalgunGothic-15"/>
       <use xlink:href="#MalgunGothic-13" transform="translate(55.078125 0)"/>
       <use xlink:href="#MalgunGothic-13" transform="translate(110.15625 0)"/>
      </g>
     </g>
    </g>
    <g id="xtick_6">
     <g id="line2d_11">
      <path d="M 422.642988 311.558047 
L 422.642988 38.04 
" clip-path="url(#p50cdc7269d)" style="fill: none; stroke-dasharray: 2.96,1.28; stroke-dashoffset: 0; stroke: #b0b0b0; stroke-opacity: 0.5; stroke-width: 0.8"/>
     </g>
     <g id="line2d_12">
      <g>
       <use xlink:href="#m7cc6b77fd4" x="422.642988" y="311.558047" style="stroke: #000000; stroke-width: 0.8"/>
      </g>
     </g>
     <g id="text_6">
      <!-- 250 -->
      <g transform="translate(414.381269 326.556094) scale(0.1 -0.1)">
       <use xlink:href="#MalgunGothic-15"/>
       <use xlink:href="#MalgunGothic-18" transform="translate(55.078125 0)"/>
       <use xlink:href="#MalgunGothic-13" transform="translate(110.15625 0)"/>
      </g>
     </g>
    </g>
    <g id="xtick_7">
     <g id="line2d_13">
      <path d="M 477.307195 311.558047 
L 477.307195 38.04 
" clip-path="url(#p50cdc7269d)" style="fill: none; stroke-dasharray: 2.96,1.28; stroke-dashoffset: 0; stroke: #b0b0b0; stroke-opacity: 0.5; stroke-width: 0.8"/>
     </g>
     <g id="line2d_14">
      <g>
       <use xlink:href="#m7cc6b77fd4" x="477.307195" y="311.558047" style="stroke: #000000; stroke-width: 0.8"/>
      </g>
     </g>
     <g id="text_7">
      <!-- 300 -->
      <g transform="translate(469.045476 326.556094) scale(0.1 -0.1)">
       <defs>
        <path id="MalgunGothic-16" d="M 416 719 
Q 891 344 1478 344 
Q 1959 344 2254 587 
Q 2550 831 2550 1247 
Q 2550 2169 1253 2169 
L 872 2169 
L 872 2591 
L 1234 2591 
Q 2388 2591 2388 3453 
Q 2388 4250 1509 4250 
Q 1022 4250 594 3916 
L 594 4413 
Q 1031 4675 1634 4675 
Q 2184 4675 2539 4372 
Q 2894 4069 2894 3581 
Q 2894 2678 1972 2409 
L 1972 2400 
Q 2469 2356 2764 2053 
Q 3059 1750 3059 1300 
Q 3059 672 2604 297 
Q 2150 -78 1450 -78 
Q 806 -78 416 169 
L 416 719 
z
" transform="scale(0.015625)"/>
       </defs>
       <use xlink:href="#MalgunGothic-16"/>
       <use xlink:href="#MalgunGothic-13" transform="translate(55.078125 0)"/>
       <use xlink:href="#MalgunGothic-13" transform="translate(110.15625 0)"/>
      </g>
     </g>
    </g>
    <g id="xtick_8">
     <g id="line2d_15">
      <path d="M 531.971402 311.558047 
L 531.971402 38.04 
" clip-path="url(#p50cdc7269d)" style="fill: none; stroke-dasharray: 2.96,1.28; stroke-dashoffset: 0; stroke: #b0b0b0; stroke-opacity: 0.5; stroke-width: 0.8"/>
     </g>
     <g id="line2d_16">
      <g>
       <use xlink:href="#m7cc6b77fd4" x="531.971402" y="311.558047" style="stroke: #000000; stroke-width: 0.8"/>
      </g>
     </g>
     <g id="text_8">
      <!-- 350 -->
      <g transform="translate(523.709683 326.556094) scale(0.1 -0.1)">
       <use xlink:href="#MalgunGothic-16"/>
       <use xlink:href="#MalgunGothic-18" transform="translate(55.078125 0)"/>
       <use xlink:href="#MalgunGothic-13" transform="translate(110.15625 0)"/>
      </g>
     </g>
    </g>
    <g id="xtick_9">
     <g id="line2d_17">
      <path d="M 586.635609 311.558047 
L 586.635609 38.04 
" clip-path="url(#p50cdc7269d)" style="fill: none; stroke-dasharray: 2.96,1.28; stroke-dashoffset: 0; stroke: #b0b0b0; stroke-opacity: 0.5; stroke-width: 0.8"/>
     </g>
     <g id="line2d_18">
      <g>
       <use xlink:href="#m7cc6b77fd4" x="586.635609" y="311.558047" style="stroke: #000000; stroke-width: 0.8"/>
      </g>
     </g>
     <g id="text_9">
      <!-- 400 -->
      <g transform="translate(578.37389 326.556094) scale(0.1 -0.1)">
       <defs>
        <path id="MalgunGothic-17" d="M 2703 4600 
L 2703 1563 
L 3309 1563 
L 3309 1113 
L 2703 1113 
L 2703 0 
L 2213 0 
L 2213 1113 
L 50 1113 
L 50 1534 
Q 728 2297 1295 3109 
Q 1863 3922 2172 4600 
L 2703 4600 
z
M 625 1563 
L 2213 1563 
L 2213 3831 
Q 1613 2788 959 1981 
L 625 1563 
z
" transform="scale(0.015625)"/>
       </defs>
       <use xlink:href="#MalgunGothic-17"/>
       <use xlink:href="#MalgunGothic-13" transform="translate(55.078125 0)"/>
       <use xlink:href="#MalgunGothic-13" transform="translate(110.15625 0)"/>
      </g>
     </g>
    </g>
    <g id="text_10">
     <!-- 도서 수 (권) -->
     <g transform="translate(366.698477 347.098672) scale(0.1 -0.1)">
      <defs>
       <path id="MalgunGothic-466" d="M 403 372 
L 403 788 
L 2963 788 
L 2963 2181 
L 1350 2181 
L 1350 4897 
L 5050 4897 
L 5050 4481 
L 1819 4481 
L 1819 2600 
L 5147 2600 
L 5147 2181 
L 3438 2181 
L 3438 788 
L 5997 788 
L 5997 372 
L 403 372 
z
" transform="scale(0.015625)"/>
       <path id="MalgunGothic-6f0" d="M 4947 -563 
L 4947 3072 
L 3541 3072 
L 3541 3488 
L 4947 3488 
L 4947 5466 
L 5416 5466 
L 5416 -563 
L 4947 -563 
z
M 3775 966 
Q 3269 1353 2826 1939 
Q 2384 2525 2266 2950 
Q 2122 2463 1694 1872 
Q 1266 1281 763 891 
L 403 1203 
Q 1147 1703 1587 2479 
Q 2028 3256 2028 4063 
L 2028 5050 
L 2491 5050 
L 2491 4084 
Q 2491 3303 2927 2556 
Q 3363 1809 4103 1331 
L 3775 966 
z
" transform="scale(0.015625)"/>
       <path id="MalgunGothic-3" transform="scale(0.015625)"/>
       <path id="MalgunGothic-739" d="M 5491 2994 
Q 4750 3097 4078 3498 
Q 3406 3900 3200 4275 
Q 2975 3891 2309 3491 
Q 1644 3091 922 2956 
L 634 3347 
Q 1559 3450 2261 3942 
Q 2963 4434 2963 5013 
L 2963 5275 
L 3431 5275 
L 3431 5013 
Q 3431 4431 4118 3948 
Q 4806 3466 5766 3378 
L 5491 2994 
z
M 3431 1838 
L 3431 -563 
L 2963 -563 
L 2963 1838 
L 403 1838 
L 403 2253 
L 5997 2253 
L 5997 1838 
L 3431 1838 
z
" transform="scale(0.015625)"/>
       <path id="MalgunGothic-b" d="M 1438 -1044 
Q 447 88 447 1753 
Q 447 3431 1438 4600 
L 1888 4600 
Q 878 3372 878 1759 
Q 878 153 1881 -1044 
L 1438 -1044 
z
" transform="scale(0.015625)"/>
       <path id="MalgunGothic-300" d="M 4978 781 
L 4978 1759 
L 3675 1759 
L 3675 2163 
L 4978 2163 
L 4978 5466 
L 5453 5466 
L 5453 781 
L 4978 781 
z
M 4519 2791 
Q 4144 2763 2828 2719 
L 2828 1094 
L 2369 1094 
L 2369 2700 
Q 1188 2656 616 2656 
L 550 3097 
Q 2169 3097 3463 3144 
Q 3500 3744 3500 4744 
L 1113 4744 
L 1113 5159 
L 3969 5159 
Q 3969 3897 3916 3163 
Q 4284 3175 4494 3194 
L 4519 2791 
z
M 1491 -384 
L 1491 1422 
L 1959 1422 
L 1959 31 
L 5600 31 
L 5600 -384 
L 1491 -384 
z
" transform="scale(0.015625)"/>
       <path id="MalgunGothic-c" d="M 81 -1044 
Q 1081 150 1081 1759 
Q 1081 3378 72 4600 
L 525 4600 
Q 1522 3431 1522 1753 
Q 1522 88 525 -1044 
L 81 -1044 
z
" transform="scale(0.015625)"/>
      </defs>
      <use xlink:href="#MalgunGothic-466"/>
      <use xlink:href="#MalgunGothic-6f0" transform="translate(100 0)"/>
      <use xlink:href="#MalgunGothic-3" transform="translate(200 0)"/>
      <use xlink:href="#MalgunGothic-739" transform="translate(235.15625 0)"/>
      <use xlink:href="#MalgunGothic-3" transform="translate(335.15625 0)"/>
      <use xlink:href="#MalgunGothic-b" transform="translate(370.3125 0)"/>
      <use xlink:href="#MalgunGothic-300" transform="translate(400.78125 0)"/>
      <use xlink:href="#MalgunGothic-c" transform="translate(500.78125 0)"/>
     </g>
    </g>
   </g>
   <g id="matplotlib.axis_2">
    <g id="ytick_1">
     <g id="line2d_19">
      <defs>
       <path id="m87e72c3400" d="M 0 0 
L -3.5 0 
" style="stroke: #000000; stroke-width: 0.8"/>
      </defs>
      <g>
       <use xlink:href="#m87e72c3400" x="149.321953" y="65.391805" style="stroke: #000000; stroke-width: 0.8"/>
      </g>
     </g>
     <g id="text_11">
      <!-- 인공지능 &amp; AI 에이전트 -->
      <g transform="translate(34.314141 69.662117) scale(0.1 -0.1)">
       <defs>
        <path id="MalgunGothic-889" d="M 4947 1063 
L 4947 5466 
L 5416 5466 
L 5416 1063 
L 4947 1063 
z
M 2438 2175 
Q 1763 2175 1309 2601 
Q 856 3028 856 3706 
Q 856 4388 1307 4811 
Q 1759 5234 2438 5234 
Q 3116 5234 3564 4812 
Q 4013 4391 4013 3706 
Q 4013 3028 3563 2601 
Q 3113 2175 2438 2175 
z
M 2438 4819 
Q 1944 4819 1634 4516 
Q 1325 4213 1325 3706 
Q 1325 3200 1633 2895 
Q 1941 2591 2438 2591 
Q 2934 2591 3243 2895 
Q 3553 3200 3553 3706 
Q 3553 4213 3243 4516 
Q 2934 4819 2438 4819 
z
M 1613 -331 
L 1613 1625 
L 2081 1625 
L 2081 91 
L 5575 91 
L 5575 -331 
L 1613 -331 
z
" transform="scale(0.015625)"/>
        <path id="MalgunGothic-2d3" d="M 5178 5281 
Q 5178 3953 5100 3263 
L 4653 3297 
Q 4709 3956 4709 4863 
L 1375 4863 
L 1375 5281 
L 5178 5281 
z
M 403 2406 
L 403 2822 
L 2778 2822 
L 2778 4044 
L 3238 4044 
L 3238 2822 
L 5997 2822 
L 5997 2406 
L 403 2406 
z
M 3188 -466 
Q 2244 -466 1736 -148 
Q 1228 169 1228 691 
Q 1228 1216 1734 1536 
Q 2241 1856 3188 1856 
Q 4128 1856 4634 1536 
Q 5141 1216 5141 691 
Q 5141 169 4633 -148 
Q 4125 -466 3188 -466 
z
M 3188 1459 
Q 2488 1459 2108 1248 
Q 1728 1038 1728 691 
Q 1728 344 2106 136 
Q 2484 -72 3188 -72 
Q 3891 -72 4269 136 
Q 4647 344 4647 691 
Q 4647 1038 4265 1248 
Q 3884 1459 3188 1459 
z
" transform="scale(0.015625)"/>
        <path id="MalgunGothic-90f" d="M 4884 -563 
L 4884 5466 
L 5350 5466 
L 5350 -563 
L 4884 -563 
z
M 3775 909 
Q 3228 1338 2822 1881 
Q 2416 2425 2297 2859 
Q 2178 2397 1756 1814 
Q 1334 1231 825 825 
L 475 1147 
Q 1191 1638 1625 2425 
Q 2059 3213 2059 4019 
L 2059 4525 
L 716 4525 
L 716 4941 
L 3884 4941 
L 3884 4525 
L 2528 4525 
L 2528 4038 
Q 2528 3238 2968 2459 
Q 3409 1681 4097 1269 
L 3775 909 
z
" transform="scale(0.015625)"/>
        <path id="MalgunGothic-41c" d="M 1409 3419 
L 1409 5338 
L 1875 5338 
L 1875 3834 
L 5178 3834 
L 5178 3419 
L 1409 3419 
z
M 403 2344 
L 403 2759 
L 5997 2759 
L 5997 2344 
L 403 2344 
z
M 3200 -488 
Q 2256 -488 1745 -186 
Q 1234 116 1234 634 
Q 1234 1150 1745 1451 
Q 2256 1753 3200 1753 
Q 4144 1753 4655 1451 
Q 5166 1150 5166 634 
Q 5166 116 4655 -186 
Q 4144 -488 3200 -488 
z
M 3200 1356 
Q 2478 1356 2103 1161 
Q 1728 966 1728 634 
Q 1728 303 2100 106 
Q 2472 -91 3200 -91 
Q 3925 -91 4298 106 
Q 4672 303 4672 634 
Q 4672 969 4297 1162 
Q 3922 1356 3200 1356 
z
" transform="scale(0.015625)"/>
        <path id="MalgunGothic-9" d="M 3591 647 
Q 2909 -75 1938 -75 
Q 1222 -75 806 278 
Q 391 631 391 1244 
Q 391 2197 1456 2656 
Q 925 3056 925 3622 
Q 925 4106 1253 4390 
Q 1581 4675 2106 4675 
Q 2603 4675 2912 4406 
Q 3222 4138 3222 3703 
Q 3222 2981 2338 2628 
Q 3025 2366 3628 1425 
Q 4150 2181 4150 3153 
Q 4150 3356 4094 3594 
L 4584 3594 
Q 4622 3434 4622 3169 
Q 4622 2094 3881 1025 
Q 4166 628 4331 511 
Q 4497 394 4713 394 
Q 4825 394 5100 484 
L 5100 13 
Q 4881 -75 4628 -75 
Q 4347 -75 4130 56 
Q 3913 188 3591 647 
z
M 1931 2841 
Q 2753 3128 2753 3656 
Q 2753 3944 2564 4108 
Q 2375 4272 2106 4272 
Q 1784 4272 1590 4095 
Q 1397 3919 1397 3625 
Q 1397 3134 1931 2841 
z
M 3350 1022 
Q 2925 1684 2615 1959 
Q 2306 2234 1841 2406 
Q 1325 2206 1109 1936 
Q 894 1666 894 1263 
Q 894 850 1180 606 
Q 1466 363 1934 363 
Q 2778 363 3350 1022 
z
" transform="scale(0.015625)"/>
        <path id="MalgunGothic-24" d="M 4134 0 
L 3575 0 
L 3075 1306 
L 1103 1306 
L 638 0 
L 75 0 
L 1844 4600 
L 2356 4600 
L 4134 0 
z
M 2903 1769 
L 2169 3756 
Q 2128 3866 2100 4059 
L 2084 4059 
Q 2050 3844 2009 3756 
L 1281 1769 
L 2903 1769 
z
" transform="scale(0.015625)"/>
        <path id="MalgunGothic-2c" d="M 1116 0 
L 613 0 
L 613 4600 
L 1116 4600 
L 1116 0 
z
" transform="scale(0.015625)"/>
        <path id="MalgunGothic-7fe" d="M 5081 -563 
L 5081 5466 
L 5550 5466 
L 5550 -563 
L 5081 -563 
z
M 3278 2822 
Q 3244 1931 2903 1448 
Q 2563 966 1959 966 
Q 1325 966 983 1495 
Q 641 2025 641 3016 
Q 641 4006 986 4534 
Q 1331 5063 1959 5063 
Q 2559 5063 2898 4591 
Q 3238 4119 3272 3238 
L 4000 3238 
L 4000 5344 
L 4469 5344 
L 4469 -378 
L 4000 -378 
L 4000 2822 
L 3278 2822 
z
M 1959 4641 
Q 1538 4641 1316 4225 
Q 1094 3809 1094 3016 
Q 1094 2222 1316 1805 
Q 1538 1388 1959 1388 
Q 2378 1388 2600 1806 
Q 2822 2225 2822 3016 
Q 2822 3806 2600 4223 
Q 2378 4641 1959 4641 
z
" transform="scale(0.015625)"/>
        <path id="MalgunGothic-887" d="M 4947 -563 
L 4947 5466 
L 5416 5466 
L 5416 -563 
L 4947 -563 
z
M 2284 959 
Q 1597 959 1173 1514 
Q 750 2069 750 3016 
Q 750 3975 1169 4522 
Q 1588 5069 2284 5069 
Q 2978 5069 3403 4522 
Q 3828 3975 3828 3016 
Q 3828 2063 3401 1511 
Q 2975 959 2284 959 
z
M 2284 4653 
Q 1803 4653 1503 4204 
Q 1203 3756 1203 3016 
Q 1203 2278 1506 1826 
Q 1809 1375 2284 1375 
Q 2756 1375 3061 1828 
Q 3366 2281 3366 3016 
Q 3366 3759 3067 4206 
Q 2769 4653 2284 4653 
z
" transform="scale(0.015625)"/>
        <path id="MalgunGothic-8b7" d="M 4878 1178 
L 4878 3525 
L 3469 3525 
L 3469 3944 
L 4878 3944 
L 4878 5466 
L 5344 5466 
L 5344 1178 
L 4878 1178 
z
M 3675 2069 
Q 3228 2344 2829 2776 
Q 2431 3209 2266 3566 
Q 2091 3150 1662 2648 
Q 1234 2147 819 1913 
L 481 2234 
Q 1125 2559 1573 3198 
Q 2022 3838 2022 4494 
L 2022 4716 
L 684 4716 
L 684 5141 
L 3788 5141 
L 3788 4716 
L 2478 4716 
L 2478 4494 
Q 2478 3894 2943 3286 
Q 3409 2678 3988 2406 
L 3675 2069 
z
M 1631 -366 
L 1631 1606 
L 2100 1606 
L 2100 44 
L 5503 44 
L 5503 -366 
L 1631 -366 
z
" transform="scale(0.015625)"/>
        <path id="MalgunGothic-a9d" d="M 5131 4469 
L 1766 4469 
L 1766 3597 
L 4959 3597 
L 4959 3181 
L 1766 3181 
L 1766 2356 
L 5228 2356 
L 5228 1941 
L 1306 1941 
L 1306 4878 
L 5131 4878 
L 5131 4469 
z
M 403 384 
L 403 800 
L 5997 800 
L 5997 384 
L 403 384 
z
" transform="scale(0.015625)"/>
       </defs>
       <use xlink:href="#MalgunGothic-889"/>
       <use xlink:href="#MalgunGothic-2d3" transform="translate(100 0)"/>
       <use xlink:href="#MalgunGothic-90f" transform="translate(200 0)"/>
       <use xlink:href="#MalgunGothic-41c" transform="translate(300 0)"/>
       <use xlink:href="#MalgunGothic-3" transform="translate(400 0)"/>
       <use xlink:href="#MalgunGothic-9" transform="translate(435.15625 0)"/>
       <use xlink:href="#MalgunGothic-3" transform="translate(516.9375 0)"/>
       <use xlink:href="#MalgunGothic-24" transform="translate(552.09375 0)"/>
       <use xlink:href="#MalgunGothic-2c" transform="translate(617.921875 0)"/>
       <use xlink:href="#MalgunGothic-3" transform="translate(644.921875 0)"/>
       <use xlink:href="#MalgunGothic-7fe" transform="translate(680.078125 0)"/>
       <use xlink:href="#MalgunGothic-887" transform="translate(780.078125 0)"/>
       <use xlink:href="#MalgunGothic-8b7" transform="translate(880.078125 0)"/>
       <use xlink:href="#MalgunGothic-a9d" transform="translate(980.078125 0)"/>
      </g>
     </g>
    </g>
    <g id="ytick_2">
     <g id="line2d_20">
      <g>
       <use xlink:href="#m87e72c3400" x="149.321953" y="120.095414" style="stroke: #000000; stroke-width: 0.8"/>
      </g>
     </g>
     <g id="text_12">
      <!-- 기타 IT &amp; 일반 교양 -->
      <g transform="translate(52.043828 124.365727) scale(0.1 -0.1)">
       <defs>
        <path id="MalgunGothic-31b" d="M 4884 -563 
L 4884 5466 
L 5350 5466 
L 5350 -563 
L 4884 -563 
z
M 3675 4909 
Q 3653 3656 2956 2611 
Q 2259 1566 959 844 
L 603 1222 
Q 1559 1619 2293 2478 
Q 3028 3338 3175 4494 
L 850 4494 
L 850 4909 
L 3675 4909 
z
" transform="scale(0.015625)"/>
        <path id="MalgunGothic-a49" d="M 5094 2688 
L 5094 -563 
L 4628 -563 
L 4628 5466 
L 5094 5466 
L 5094 3109 
L 6113 3109 
L 6113 2688 
L 5094 2688 
z
M 1306 2828 
L 1306 1466 
L 1591 1466 
Q 3453 1466 4013 1550 
L 4050 1147 
Q 3544 1088 2953 1072 
Q 2363 1056 838 1056 
L 838 4934 
L 3653 4934 
L 3653 4519 
L 1306 4519 
L 1306 3238 
L 3494 3238 
L 3494 2828 
L 1306 2828 
z
" transform="scale(0.015625)"/>
        <path id="MalgunGothic-37" d="M 3294 4134 
L 1966 4134 
L 1966 0 
L 1456 0 
L 1456 4134 
L 134 4134 
L 134 4600 
L 3294 4600 
L 3294 4134 
z
" transform="scale(0.015625)"/>
        <path id="MalgunGothic-88a" d="M 4947 2363 
L 4947 5466 
L 5422 5466 
L 5422 2363 
L 4947 2363 
z
M 2419 2578 
Q 1738 2578 1314 2970 
Q 891 3363 891 3969 
Q 891 4572 1314 4961 
Q 1738 5350 2419 5350 
Q 3097 5350 3523 4959 
Q 3950 4569 3950 3969 
Q 3950 3366 3522 2972 
Q 3094 2578 2419 2578 
z
M 2419 4947 
Q 1931 4947 1643 4680 
Q 1356 4413 1356 3969 
Q 1356 3522 1643 3248 
Q 1931 2975 2419 2975 
Q 2906 2975 3193 3248 
Q 3481 3522 3481 3969 
Q 3481 4413 3193 4680 
Q 2906 4947 2419 4947 
z
M 1703 -422 
L 1703 1038 
L 4959 1038 
L 4959 1613 
L 1703 1613 
L 1703 2028 
L 5422 2028 
L 5422 634 
L 2163 634 
L 2163 -6 
L 5588 -6 
L 5588 -422 
L 1703 -422 
z
" transform="scale(0.015625)"/>
        <path id="MalgunGothic-606" d="M 5125 3169 
L 5125 1063 
L 4659 1063 
L 4659 5466 
L 5125 5466 
L 5125 3591 
L 6034 3591 
L 6034 3169 
L 5125 3169 
z
M 756 2119 
L 756 5178 
L 1216 5178 
L 1216 4019 
L 3059 4019 
L 3059 5178 
L 3519 5178 
L 3519 2119 
L 756 2119 
z
M 3059 3603 
L 1216 3603 
L 1216 2534 
L 3059 2534 
L 3059 3603 
z
M 1453 -372 
L 1453 1478 
L 1919 1478 
L 1919 44 
L 5294 44 
L 5294 -372 
L 1453 -372 
z
" transform="scale(0.015625)"/>
        <path id="MalgunGothic-2ec" d="M 5088 1631 
L 4628 1684 
Q 4716 2581 4716 3597 
L 4716 4475 
L 1131 4475 
L 1131 4897 
L 5197 4897 
L 5197 3597 
Q 5197 2713 5088 1631 
z
M 403 459 
L 403 884 
L 1850 884 
L 1850 2931 
L 2309 2931 
L 2309 884 
L 3378 884 
L 3378 2931 
L 3841 2931 
L 3841 884 
L 5997 884 
L 5997 459 
L 403 459 
z
" transform="scale(0.015625)"/>
        <path id="MalgunGothic-7e6" d="M 5125 2809 
L 5125 1984 
L 4659 1984 
L 4659 5466 
L 5125 5466 
L 5125 4569 
L 6034 4569 
L 6034 4159 
L 5125 4159 
L 5125 3219 
L 6034 3219 
L 6034 2809 
L 5125 2809 
z
M 2150 2400 
Q 1475 2400 1048 2811 
Q 622 3222 622 3847 
Q 622 4469 1045 4878 
Q 1469 5288 2150 5288 
Q 2831 5288 3259 4880 
Q 3688 4472 3688 3847 
Q 3688 3216 3258 2808 
Q 2828 2400 2150 2400 
z
M 2150 4891 
Q 1675 4891 1381 4598 
Q 1088 4306 1088 3847 
Q 1088 3381 1381 3089 
Q 1675 2797 2150 2797 
Q 2628 2797 2923 3090 
Q 3219 3384 3219 3847 
Q 3219 4300 2923 4595 
Q 2628 4891 2150 4891 
z
M 3272 -494 
Q 2334 -494 1832 -170 
Q 1331 153 1331 703 
Q 1331 1250 1831 1572 
Q 2331 1894 3272 1894 
Q 4222 1894 4719 1572 
Q 5216 1250 5216 703 
Q 5216 156 4717 -169 
Q 4219 -494 3272 -494 
z
M 3272 1497 
Q 2569 1497 2200 1283 
Q 1831 1069 1831 703 
Q 1831 334 2198 118 
Q 2566 -97 3272 -97 
Q 3981 -97 4351 120 
Q 4722 338 4722 703 
Q 4722 1066 4350 1281 
Q 3978 1497 3272 1497 
z
" transform="scale(0.015625)"/>
       </defs>
       <use xlink:href="#MalgunGothic-31b"/>
       <use xlink:href="#MalgunGothic-a49" transform="translate(100 0)"/>
       <use xlink:href="#MalgunGothic-3" transform="translate(200 0)"/>
       <use xlink:href="#MalgunGothic-2c" transform="translate(235.15625 0)"/>
       <use xlink:href="#MalgunGothic-37" transform="translate(262.15625 0)"/>
       <use xlink:href="#MalgunGothic-3" transform="translate(315.53125 0)"/>
       <use xlink:href="#MalgunGothic-9" transform="translate(350.6875 0)"/>
       <use xlink:href="#MalgunGothic-3" transform="translate(432.46875 0)"/>
       <use xlink:href="#MalgunGothic-88a" transform="translate(467.625 0)"/>
       <use xlink:href="#MalgunGothic-606" transform="translate(567.625 0)"/>
       <use xlink:href="#MalgunGothic-3" transform="translate(667.625 0)"/>
       <use xlink:href="#MalgunGothic-2ec" transform="translate(702.78125 0)"/>
       <use xlink:href="#MalgunGothic-7e6" transform="translate(802.78125 0)"/>
      </g>
     </g>
    </g>
    <g id="ytick_3">
     <g id="line2d_21">
      <g>
       <use xlink:href="#m87e72c3400" x="149.321953" y="174.799023" style="stroke: #000000; stroke-width: 0.8"/>
      </g>
     </g>
     <g id="text_13">
      <!-- 프로그래밍 &amp; 코딩 교육 -->
      <g transform="translate(33.596953 179.069336) scale(0.1 -0.1)">
       <defs>
        <path id="MalgunGothic-b0e" d="M 997 4891 
L 5403 4891 
L 5403 4475 
L 997 4475 
L 997 4891 
z
M 4459 2463 
L 5478 2463 
L 5478 2053 
L 922 2053 
L 922 2463 
L 1925 2463 
L 1850 4159 
L 2309 4159 
L 2388 2463 
L 4000 2463 
L 4091 4159 
L 4550 4159 
L 4459 2463 
z
M 403 397 
L 403 813 
L 5997 813 
L 5997 397 
L 403 397 
z
" transform="scale(0.015625)"/>
        <path id="MalgunGothic-53b" d="M 1247 3641 
L 4659 3641 
L 4659 4531 
L 1259 4531 
L 1259 4941 
L 5125 4941 
L 5125 3238 
L 1722 3238 
L 1722 2241 
L 5300 2241 
L 5300 1825 
L 3438 1825 
L 3438 728 
L 5997 728 
L 5997 313 
L 403 313 
L 403 728 
L 2969 728 
L 2969 1825 
L 1247 1825 
L 1247 3641 
z
" transform="scale(0.015625)"/>
        <path id="MalgunGothic-310" d="M 403 622 
L 403 1038 
L 4434 1038 
Q 4563 1981 4563 3053 
L 4563 4481 
L 1253 4481 
L 1253 4897 
L 5031 4897 
L 5031 3238 
Q 5031 2322 4891 1038 
L 5997 1038 
L 5997 622 
L 403 622 
z
" transform="scale(0.015625)"/>
        <path id="MalgunGothic-50e" d="M 5088 -563 
L 5088 2431 
L 4319 2431 
L 4319 -378 
L 3859 -378 
L 3859 5344 
L 4319 5344 
L 4319 2847 
L 5088 2847 
L 5088 5466 
L 5556 5466 
L 5556 -563 
L 5088 -563 
z
M 763 819 
L 763 3169 
L 2606 3169 
L 2606 4500 
L 763 4500 
L 763 4916 
L 3072 4916 
L 3072 2766 
L 1228 2766 
L 1228 1228 
L 1916 1228 
Q 3134 1228 3481 1288 
L 3541 897 
Q 3316 847 2852 833 
Q 2388 819 763 819 
z
" transform="scale(0.015625)"/>
        <path id="MalgunGothic-5ff" d="M 4947 1984 
L 4947 5466 
L 5416 5466 
L 5416 1984 
L 4947 1984 
z
M 1044 2419 
L 1044 5134 
L 3828 5134 
L 3828 2419 
L 1044 2419 
z
M 3366 4722 
L 1503 4722 
L 1503 2834 
L 3366 2834 
L 3366 4722 
z
M 3578 -481 
Q 2638 -481 2125 -162 
Q 1613 156 1613 678 
Q 1613 1200 2125 1519 
Q 2638 1838 3578 1838 
Q 4519 1838 5031 1519 
Q 5544 1200 5544 678 
Q 5544 156 5031 -162 
Q 4519 -481 3578 -481 
z
M 3578 1441 
Q 2869 1441 2491 1231 
Q 2113 1022 2113 678 
Q 2113 334 2491 125 
Q 2869 -84 3578 -84 
Q 4294 -84 4672 127 
Q 5050 338 5050 678 
Q 5050 1019 4672 1230 
Q 4294 1441 3578 1441 
z
" transform="scale(0.015625)"/>
        <path id="MalgunGothic-a0d" d="M 5006 1478 
L 4563 1528 
Q 4656 2344 4666 3047 
L 959 2797 
L 863 3244 
L 4666 3438 
L 4672 4481 
L 1147 4481 
L 1147 4891 
L 5141 4891 
L 5141 3481 
Q 5141 2375 5006 1478 
z
M 403 416 
L 403 838 
L 2656 838 
L 2656 2309 
L 3122 2309 
L 3122 838 
L 5997 838 
L 5997 416 
L 403 416 
z
" transform="scale(0.015625)"/>
        <path id="MalgunGothic-4aa" d="M 4947 1966 
L 4947 5466 
L 5416 5466 
L 5416 1966 
L 4947 1966 
z
M 4206 2600 
Q 3309 2528 1113 2528 
L 1113 5119 
L 3963 5119 
L 3963 4703 
L 1581 4703 
L 1581 2944 
L 1988 2944 
Q 3356 2944 4172 3003 
L 4206 2600 
z
M 3531 -488 
Q 2591 -488 2080 -172 
Q 1569 144 1569 666 
Q 1569 1184 2078 1501 
Q 2588 1819 3531 1819 
Q 4478 1819 4987 1500 
Q 5497 1181 5497 666 
Q 5497 147 4986 -170 
Q 4475 -488 3531 -488 
z
M 3531 1422 
Q 2813 1422 2436 1211 
Q 2059 1000 2059 666 
Q 2059 331 2436 120 
Q 2813 -91 3531 -91 
Q 4247 -91 4622 118 
Q 4997 328 4997 666 
Q 4997 1003 4622 1212 
Q 4247 1422 3531 1422 
z
" transform="scale(0.015625)"/>
        <path id="MalgunGothic-86b" d="M 3200 3163 
Q 2266 3163 1770 3463 
Q 1275 3763 1275 4281 
Q 1275 4809 1776 5109 
Q 2278 5409 3200 5409 
Q 4122 5409 4623 5109 
Q 5125 4809 5125 4281 
Q 5125 3763 4629 3463 
Q 4134 3163 3200 3163 
z
M 3200 5013 
Q 1766 5013 1766 4281 
Q 1766 3941 2123 3750 
Q 2481 3559 3200 3559 
Q 3919 3559 4276 3750 
Q 4634 3941 4634 4281 
Q 4634 5013 3200 5013 
z
M 4609 -563 
L 4609 1000 
L 1197 1000 
L 1197 1416 
L 2003 1416 
L 2003 2216 
L 403 2216 
L 403 2638 
L 5997 2638 
L 5997 2216 
L 4397 2216 
L 4397 1416 
L 5075 1416 
L 5075 -563 
L 4609 -563 
z
M 3928 1416 
L 3928 2216 
L 2472 2216 
L 2472 1416 
L 3928 1416 
z
" transform="scale(0.015625)"/>
       </defs>
       <use xlink:href="#MalgunGothic-b0e"/>
       <use xlink:href="#MalgunGothic-53b" transform="translate(100 0)"/>
       <use xlink:href="#MalgunGothic-310" transform="translate(200 0)"/>
       <use xlink:href="#MalgunGothic-50e" transform="translate(300 0)"/>
       <use xlink:href="#MalgunGothic-5ff" transform="translate(400 0)"/>
       <use xlink:href="#MalgunGothic-3" transform="translate(500 0)"/>
       <use xlink:href="#MalgunGothic-9" transform="translate(535.15625 0)"/>
       <use xlink:href="#MalgunGothic-3" transform="translate(616.9375 0)"/>
       <use xlink:href="#MalgunGothic-a0d" transform="translate(652.09375 0)"/>
       <use xlink:href="#MalgunGothic-4aa" transform="translate(752.09375 0)"/>
       <use xlink:href="#MalgunGothic-3" transform="translate(852.09375 0)"/>
       <use xlink:href="#MalgunGothic-2ec" transform="translate(887.25 0)"/>
       <use xlink:href="#MalgunGothic-86b" transform="translate(987.25 0)"/>
      </g>
     </g>
    </g>
    <g id="ytick_4">
     <g id="line2d_22">
      <g>
       <use xlink:href="#m87e72c3400" x="149.321953" y="229.502633" style="stroke: #000000; stroke-width: 0.8"/>
      </g>
     </g>
     <g id="text_14">
      <!-- IT 인프라 &amp; 오피스 실무 -->
      <g transform="translate(32.043828 233.772945) scale(0.1 -0.1)">
       <defs>
        <path id="MalgunGothic-502" d="M 5094 2503 
L 5094 -563 
L 4628 -563 
L 4628 5466 
L 5094 5466 
L 5094 2925 
L 6138 2925 
L 6138 2503 
L 5094 2503 
z
M 806 794 
L 806 3169 
L 3003 3169 
L 3003 4506 
L 806 4506 
L 806 4922 
L 3469 4922 
L 3469 2759 
L 1275 2759 
L 1275 1203 
Q 3419 1203 4063 1338 
L 4128 928 
Q 3284 794 806 794 
z
" transform="scale(0.015625)"/>
        <path id="MalgunGothic-81d" d="M 403 391 
L 403 800 
L 2963 800 
L 2963 2016 
Q 2103 2081 1634 2479 
Q 1166 2878 1166 3525 
Q 1166 4228 1727 4629 
Q 2288 5031 3200 5031 
Q 4113 5031 4670 4632 
Q 5228 4234 5228 3525 
Q 5228 2878 4759 2479 
Q 4291 2081 3438 2016 
L 3438 800 
L 5997 800 
L 5997 391 
L 403 391 
z
M 1650 3525 
Q 1650 3016 2079 2720 
Q 2509 2425 3200 2425 
Q 3891 2425 4317 2722 
Q 4744 3019 4744 3525 
Q 4744 4028 4317 4325 
Q 3891 4622 3200 4622 
Q 2506 4622 2078 4325 
Q 1650 4028 1650 3525 
z
" transform="scale(0.015625)"/>
        <path id="MalgunGothic-b14" d="M 5025 -563 
L 5025 5466 
L 5491 5466 
L 5491 -563 
L 5025 -563 
z
M 672 4531 
L 672 4941 
L 4319 4941 
L 4319 4531 
L 672 4531 
z
M 4622 1141 
Q 4163 1050 3647 1050 
L 475 1050 
L 475 1466 
L 1409 1466 
L 1344 4091 
L 1813 4091 
L 1869 1466 
L 3122 1466 
L 3181 4091 
L 3641 4091 
L 3578 1466 
Q 4272 1466 4575 1538 
L 4622 1141 
z
" transform="scale(0.015625)"/>
        <path id="MalgunGothic-75b" d="M 3194 3897 
Q 2969 3416 2328 2930 
Q 1688 2444 959 2247 
L 641 2619 
Q 1703 2841 2329 3472 
Q 2956 4103 2956 4659 
L 2956 4978 
L 3438 4978 
L 3438 4659 
Q 3438 4094 4073 3476 
Q 4709 2859 5759 2625 
L 5428 2253 
Q 4694 2481 4058 2956 
Q 3422 3431 3194 3897 
z
M 5997 447 
L 403 447 
L 403 863 
L 5997 863 
L 5997 447 
z
" transform="scale(0.015625)"/>
        <path id="MalgunGothic-768" d="M 4878 2450 
L 4878 5466 
L 5344 5466 
L 5344 2450 
L 4878 2450 
z
M 3653 2663 
Q 3266 2828 2845 3203 
Q 2425 3578 2241 3938 
Q 1884 3125 800 2509 
L 469 2822 
Q 1178 3159 1590 3681 
Q 2003 4203 2003 4813 
L 2003 5331 
L 2456 5331 
L 2456 4813 
Q 2456 4219 2907 3717 
Q 3359 3216 3969 3003 
L 3653 2663 
z
M 1631 -422 
L 1631 1069 
L 4884 1069 
L 4884 1716 
L 1631 1716 
L 1631 2131 
L 5344 2131 
L 5344 666 
L 2094 666 
L 2094 -6 
L 5509 -6 
L 5509 -422 
L 1631 -422 
z
" transform="scale(0.015625)"/>
        <path id="MalgunGothic-5d4" d="M 1331 2919 
L 1331 5247 
L 5063 5247 
L 5063 2919 
L 1331 2919 
z
M 4603 4831 
L 1791 4831 
L 1791 3334 
L 4603 3334 
L 4603 4831 
z
M 3438 1691 
L 3438 -563 
L 2963 -563 
L 2963 1691 
L 403 1691 
L 403 2106 
L 5997 2106 
L 5997 1691 
L 3438 1691 
z
" transform="scale(0.015625)"/>
       </defs>
       <use xlink:href="#MalgunGothic-2c"/>
       <use xlink:href="#MalgunGothic-37" transform="translate(27 0)"/>
       <use xlink:href="#MalgunGothic-3" transform="translate(80.375 0)"/>
       <use xlink:href="#MalgunGothic-889" transform="translate(115.53125 0)"/>
       <use xlink:href="#MalgunGothic-b0e" transform="translate(215.53125 0)"/>
       <use xlink:href="#MalgunGothic-502" transform="translate(315.53125 0)"/>
       <use xlink:href="#MalgunGothic-3" transform="translate(415.53125 0)"/>
       <use xlink:href="#MalgunGothic-9" transform="translate(450.6875 0)"/>
       <use xlink:href="#MalgunGothic-3" transform="translate(532.46875 0)"/>
       <use xlink:href="#MalgunGothic-81d" transform="translate(567.625 0)"/>
       <use xlink:href="#MalgunGothic-b14" transform="translate(667.625 0)"/>
       <use xlink:href="#MalgunGothic-75b" transform="translate(767.625 0)"/>
       <use xlink:href="#MalgunGothic-3" transform="translate(867.625 0)"/>
       <use xlink:href="#MalgunGothic-768" transform="translate(902.78125 0)"/>
       <use xlink:href="#MalgunGothic-5d4" transform="translate(1002.78125 0)"/>
      </g>
     </g>
    </g>
    <g id="ytick_5">
     <g id="line2d_23">
      <g>
       <use xlink:href="#m87e72c3400" x="149.321953" y="284.206242" style="stroke: #000000; stroke-width: 0.8"/>
      </g>
     </g>
     <g id="text_15">
      <!-- 디자인 &amp; 영상/마케팅 -->
      <g transform="translate(43.153203 288.476555) scale(0.1 -0.1)">
       <defs>
        <path id="MalgunGothic-4a1" d="M 4947 -563 
L 4947 5466 
L 5416 5466 
L 5416 -563 
L 4947 -563 
z
M 4250 1153 
Q 3753 1094 3154 1078 
Q 2556 1063 1013 1063 
L 1013 4928 
L 3916 4928 
L 3916 4513 
L 1478 4513 
L 1478 1478 
Q 3722 1478 4219 1556 
L 4250 1153 
z
" transform="scale(0.015625)"/>
        <path id="MalgunGothic-895" d="M 5094 2600 
L 5094 -563 
L 4628 -563 
L 4628 5466 
L 5094 5466 
L 5094 3016 
L 6138 3016 
L 6138 2600 
L 5094 2600 
z
M 3675 909 
Q 3228 1250 2808 1812 
Q 2388 2375 2247 2822 
Q 2125 2394 1712 1809 
Q 1300 1225 800 825 
L 441 1134 
Q 1100 1569 1551 2364 
Q 2003 3159 2003 3891 
L 2003 4525 
L 666 4525 
L 666 4941 
L 3775 4941 
L 3775 4525 
L 2463 4525 
L 2463 3922 
Q 2463 3188 2916 2434 
Q 3369 1681 4000 1259 
L 3675 909 
z
" transform="scale(0.015625)"/>
        <path id="MalgunGothic-812" d="M 3669 2816 
Q 3209 2247 2406 2247 
Q 1731 2247 1284 2676 
Q 838 3106 838 3781 
Q 838 4459 1284 4895 
Q 1731 5331 2406 5331 
Q 3231 5331 3694 4722 
L 4959 4722 
L 4959 5466 
L 5428 5466 
L 5428 1913 
L 4959 1913 
L 4959 2816 
L 3669 2816 
z
M 2406 4922 
Q 1919 4922 1609 4606 
Q 1300 4291 1300 3781 
Q 1300 3275 1609 2965 
Q 1919 2656 2406 2656 
Q 2894 2656 3206 2961 
Q 3519 3266 3519 3781 
Q 3519 4300 3206 4611 
Q 2894 4922 2406 4922 
z
M 3891 3225 
L 4959 3225 
L 4959 4313 
L 3903 4313 
Q 3988 4066 3988 3781 
Q 3988 3516 3891 3225 
z
M 3616 -506 
Q 2669 -506 2156 -182 
Q 1644 141 1644 659 
Q 1644 1178 2156 1501 
Q 2669 1825 3616 1825 
Q 4563 1825 5075 1500 
Q 5588 1175 5588 659 
Q 5588 144 5075 -181 
Q 4563 -506 3616 -506 
z
M 3616 1428 
Q 2909 1428 2523 1214 
Q 2138 1000 2138 659 
Q 2138 319 2523 105 
Q 2909 -109 3616 -109 
Q 4325 -109 4706 105 
Q 5088 319 5088 659 
Q 5088 1000 4706 1214 
Q 4325 1428 3616 1428 
z
" transform="scale(0.015625)"/>
        <path id="MalgunGothic-6d8" d="M 5125 3391 
L 5125 1991 
L 4659 1991 
L 4659 5466 
L 5125 5466 
L 5125 3816 
L 6034 3816 
L 6034 3391 
L 5125 3391 
z
M 3603 2316 
Q 3206 2528 2778 2934 
Q 2350 3341 2188 3681 
Q 2022 3291 1609 2852 
Q 1197 2413 750 2163 
L 409 2484 
Q 1072 2806 1512 3397 
Q 1953 3988 1953 4628 
L 1953 5259 
L 2400 5259 
L 2400 4628 
Q 2400 4025 2845 3472 
Q 3291 2919 3909 2656 
L 3603 2316 
z
M 3263 -513 
Q 2322 -513 1811 -186 
Q 1300 141 1300 659 
Q 1300 1175 1812 1500 
Q 2325 1825 3263 1825 
Q 4203 1825 4715 1501 
Q 5228 1178 5228 659 
Q 5228 138 4717 -187 
Q 4206 -513 3263 -513 
z
M 3263 1428 
Q 2563 1428 2180 1215 
Q 1797 1003 1797 659 
Q 1797 309 2181 96 
Q 2566 -116 3263 -116 
Q 3969 -116 4353 98 
Q 4738 313 4738 659 
Q 4738 1000 4353 1214 
Q 3969 1428 3263 1428 
z
" transform="scale(0.015625)"/>
        <path id="MalgunGothic-12" d="M 2584 4600 
L 378 -763 
L -84 -763 
L 2113 4600 
L 2584 4600 
z
" transform="scale(0.015625)"/>
        <path id="MalgunGothic-581" d="M 5094 2631 
L 5094 -563 
L 4628 -563 
L 4628 5466 
L 5094 5466 
L 5094 3047 
L 6138 3047 
L 6138 2631 
L 5094 2631 
z
M 800 1209 
L 800 4934 
L 3647 4934 
L 3647 1209 
L 800 1209 
z
M 3188 4525 
L 1269 4525 
L 1269 1619 
L 3188 1619 
L 3188 4525 
z
" transform="scale(0.015625)"/>
        <path id="MalgunGothic-9fc" d="M 5044 -563 
L 5044 5466 
L 5509 5466 
L 5509 -563 
L 5044 -563 
z
M 3938 -363 
L 3938 2700 
L 2803 2700 
L 2803 3116 
L 3938 3116 
L 3938 5344 
L 4397 5344 
L 4397 -363 
L 3938 -363 
z
M 3078 4941 
Q 2978 2403 813 872 
L 441 1197 
Q 1059 1538 1543 2113 
Q 2028 2688 2253 3231 
L 722 3034 
L 556 3475 
L 2406 3616 
Q 2556 4047 2584 4531 
L 800 4531 
L 800 4941 
L 3078 4941 
z
" transform="scale(0.015625)"/>
        <path id="MalgunGothic-ab2" d="M 4934 1772 
L 4934 5466 
L 5403 5466 
L 5403 1772 
L 4934 1772 
z
M 1563 3584 
L 1563 2797 
L 1975 2797 
Q 3453 2797 4197 2853 
L 4225 2456 
Q 3100 2381 1094 2381 
L 1094 5153 
L 3988 5153 
L 3988 4738 
L 1563 4738 
L 1563 3988 
L 3681 3988 
L 3681 3584 
L 1563 3584 
z
M 3519 -481 
Q 2575 -481 2059 -173 
Q 1544 134 1544 641 
Q 1544 1147 2059 1453 
Q 2575 1759 3519 1759 
Q 4469 1759 4986 1454 
Q 5503 1150 5503 641 
Q 5503 128 4987 -176 
Q 4472 -481 3519 -481 
z
M 3519 1363 
Q 2803 1363 2422 1167 
Q 2041 972 2041 641 
Q 2041 313 2419 114 
Q 2797 -84 3519 -84 
Q 4250 -84 4631 114 
Q 5013 313 5013 641 
Q 5013 972 4628 1167 
Q 4244 1363 3519 1363 
z
" transform="scale(0.015625)"/>
       </defs>
       <use xlink:href="#MalgunGothic-4a1"/>
       <use xlink:href="#MalgunGothic-895" transform="translate(100 0)"/>
       <use xlink:href="#MalgunGothic-889" transform="translate(200 0)"/>
       <use xlink:href="#MalgunGothic-3" transform="translate(300 0)"/>
       <use xlink:href="#MalgunGothic-9" transform="translate(335.15625 0)"/>
       <use xlink:href="#MalgunGothic-3" transform="translate(416.9375 0)"/>
       <use xlink:href="#MalgunGothic-812" transform="translate(452.09375 0)"/>
       <use xlink:href="#MalgunGothic-6d8" transform="translate(552.09375 0)"/>
       <use xlink:href="#MalgunGothic-12" transform="translate(652.09375 0)"/>
       <use xlink:href="#MalgunGothic-581" transform="translate(691.6875 0)"/>
       <use xlink:href="#MalgunGothic-9fc" transform="translate(791.6875 0)"/>
       <use xlink:href="#MalgunGothic-ab2" transform="translate(891.6875 0)"/>
      </g>
     </g>
    </g>
    <g id="text_16">
     <!-- 카테고리 -->
     <g transform="translate(20.041875 194.799023) rotate(-90) scale(0.1 -0.1)">
      <defs>
       <path id="MalgunGothic-9de" d="M 5091 2566 
L 5091 -563 
L 4625 -563 
L 4625 5466 
L 5091 5466 
L 5091 2981 
L 6172 2981 
L 6172 2566 
L 5091 2566 
z
M 3606 4928 
Q 3553 2375 894 856 
L 528 1234 
Q 1169 1497 1758 2017 
Q 2347 2538 2678 3156 
L 688 2956 
L 522 3400 
L 2866 3547 
Q 3050 4019 3106 4513 
L 791 4513 
L 791 4928 
L 3606 4928 
z
" transform="scale(0.015625)"/>
       <path id="MalgunGothic-a68" d="M 5044 -563 
L 5044 5466 
L 5509 5466 
L 5509 -563 
L 5044 -563 
z
M 3897 -366 
L 3897 2503 
L 2963 2503 
L 2963 2919 
L 3897 2919 
L 3897 5344 
L 4359 5344 
L 4359 -366 
L 3897 -366 
z
M 1313 2828 
L 1313 1363 
Q 2809 1363 3263 1434 
L 3297 1031 
Q 2781 953 844 953 
L 844 4966 
L 3072 4966 
L 3072 4550 
L 1313 4550 
L 1313 3238 
L 2528 3238 
L 2528 2828 
L 1313 2828 
z
" transform="scale(0.015625)"/>
       <path id="MalgunGothic-2c8" d="M 4959 1656 
L 4506 1697 
Q 4616 2694 4616 3534 
L 4616 4475 
L 1216 4475 
L 1216 4897 
L 5081 4897 
L 5081 3525 
Q 5081 2613 4959 1656 
z
M 403 513 
L 403 934 
L 2625 934 
L 2625 2900 
L 3091 2900 
L 3091 934 
L 5997 934 
L 5997 513 
L 403 513 
z
" transform="scale(0.015625)"/>
       <path id="MalgunGothic-579" d="M 4884 -563 
L 4884 5466 
L 5350 5466 
L 5350 -563 
L 4884 -563 
z
M 856 738 
L 856 3128 
L 3150 3128 
L 3150 4519 
L 856 4519 
L 856 4934 
L 3616 4934 
L 3616 2725 
L 1325 2725 
L 1325 1153 
Q 3597 1153 4197 1281 
L 4250 878 
Q 3500 738 856 738 
z
" transform="scale(0.015625)"/>
      </defs>
      <use xlink:href="#MalgunGothic-9de"/>
      <use xlink:href="#MalgunGothic-a68" transform="translate(100 0)"/>
      <use xlink:href="#MalgunGothic-2c8" transform="translate(200 0)"/>
      <use xlink:href="#MalgunGothic-579" transform="translate(300 0)"/>
     </g>
    </g>
   </g>
   <g id="line2d_24">
    <path clip-path="url(#p50cdc7269d)" style="fill: none; stroke: #424242; stroke-width: 2.25; stroke-linecap: square"/>
   </g>
   <g id="line2d_25">
    <path clip-path="url(#p50cdc7269d)" style="fill: none; stroke: #424242; stroke-width: 2.25; stroke-linecap: square"/>
   </g>
   <g id="line2d_26">
    <path clip-path="url(#p50cdc7269d)" style="fill: none; stroke: #424242; stroke-width: 2.25; stroke-linecap: square"/>
   </g>
   <g id="line2d_27">
    <path clip-path="url(#p50cdc7269d)" style="fill: none; stroke: #424242; stroke-width: 2.25; stroke-linecap: square"/>
   </g>
   <g id="line2d_28">
    <path clip-path="url(#p50cdc7269d)" style="fill: none; stroke: #424242; stroke-width: 2.25; stroke-linecap: square"/>
   </g>
   <g id="patch_8">
    <path d="M 149.321953 311.558047 
L 149.321953 38.04 
" style="fill: none; stroke: #000000; stroke-width: 0.8; stroke-linejoin: miter; stroke-linecap: square"/>
   </g>
   <g id="patch_9">
    <path d="M 637.2 311.558047 
L 637.2 38.04 
" style="fill: none; stroke: #000000; stroke-width: 0.8; stroke-linejoin: miter; stroke-linecap: square"/>
   </g>
   <g id="patch_10">
    <path d="M 149.321953 311.558047 
L 637.2 311.558047 
" style="fill: none; stroke: #000000; stroke-width: 0.8; stroke-linejoin: miter; stroke-linecap: square"/>
   </g>
   <g id="patch_11">
    <path d="M 149.321953 38.04 
L 637.2 38.04 
" style="fill: none; stroke: #000000; stroke-width: 0.8; stroke-linejoin: miter; stroke-linecap: square"/>
   </g>
   <g id="text_17">
    <!-- 카테고리별 도서 빈도 -->
    <g transform="translate(325.339102 23.04) scale(0.14 -0.14)">
     <defs>
      <path id="MalgunGothicBold-9db" d="M 5269 2431 
L 5269 -563 
L 4481 -563 
L 4481 5466 
L 5269 5466 
L 5269 3091 
L 6203 3091 
L 6203 2431 
L 5269 2431 
z
M 3725 4947 
Q 3628 3619 2922 2531 
Q 2216 1444 966 763 
L 378 1344 
Q 1534 1816 2266 2913 
L 722 2766 
L 447 3425 
L 2631 3566 
Q 2800 3966 2841 4288 
L 738 4288 
L 738 4947 
L 3725 4947 
z
" transform="scale(0.015625)"/>
      <path id="MalgunGothicBold-a65" d="M 4856 -563 
L 4856 5466 
L 5638 5466 
L 5638 -563 
L 4856 -563 
z
M 2859 2503 
L 2859 3163 
L 3669 3163 
L 3669 5344 
L 4441 5344 
L 4441 -384 
L 3669 -384 
L 3669 2503 
L 2859 2503 
z
M 3231 1141 
Q 2634 1050 666 1050 
L 666 4953 
L 2969 4953 
L 2969 4294 
L 1434 4294 
L 1434 3488 
L 2484 3488 
L 2484 2853 
L 1434 2853 
L 1434 1697 
L 1772 1697 
Q 2559 1697 3181 1778 
L 3231 1141 
z
" transform="scale(0.015625)"/>
      <path id="MalgunGothicBold-2c5" d="M 5209 3647 
Q 5209 2613 5069 1563 
L 4294 1619 
Q 4422 2584 4422 3463 
L 4422 4269 
L 1113 4269 
L 1113 4916 
L 5209 4916 
L 5209 3647 
z
M 403 263 
L 403 922 
L 2394 922 
L 2394 2931 
L 3181 2931 
L 3181 922 
L 5997 922 
L 5997 263 
L 403 263 
z
" transform="scale(0.015625)"/>
      <path id="MalgunGothicBold-576" d="M 4672 -563 
L 4672 5466 
L 5447 5466 
L 5447 -563 
L 4672 -563 
z
M 4184 903 
Q 3634 813 3154 797 
Q 2675 781 756 781 
L 756 3328 
L 2900 3328 
L 2900 4341 
L 769 4341 
L 769 5000 
L 3675 5000 
L 3675 2675 
L 1528 2675 
L 1528 1434 
Q 3594 1416 4084 1538 
L 4184 903 
z
" transform="scale(0.015625)"/>
      <path id="MalgunGothicBold-634" d="M 722 2541 
L 722 5269 
L 1491 5269 
L 1491 4525 
L 2847 4525 
L 2847 5269 
L 3622 5269 
L 3622 4716 
L 4794 4716 
L 4794 5466 
L 5563 5466 
L 5563 2438 
L 4794 2438 
L 4794 2956 
L 3622 2956 
L 3622 2541 
L 722 2541 
z
M 3622 3547 
L 4794 3547 
L 4794 4128 
L 3622 4128 
L 3622 3547 
z
M 2847 3866 
L 1491 3866 
L 1491 3194 
L 2847 3194 
L 2847 3866 
z
M 1663 -466 
L 1663 1166 
L 4794 1166 
L 4794 1538 
L 1663 1538 
L 1663 2175 
L 5563 2175 
L 5563 563 
L 2438 563 
L 2438 172 
L 5716 172 
L 5716 -466 
L 1663 -466 
z
" transform="scale(0.015625)"/>
      <path id="MalgunGothicBold-3" transform="scale(0.015625)"/>
      <path id="MalgunGothicBold-463" d="M 403 263 
L 403 916 
L 2803 916 
L 2803 2113 
L 1294 2113 
L 1294 4934 
L 5106 4934 
L 5106 4281 
L 2081 4281 
L 2081 2766 
L 5197 2766 
L 5197 2113 
L 3591 2113 
L 3591 916 
L 5997 916 
L 5997 263 
L 403 263 
z
" transform="scale(0.015625)"/>
      <path id="MalgunGothicBold-6ed" d="M 4794 -563 
L 4794 2981 
L 3488 2981 
L 3488 3641 
L 4794 3641 
L 4794 5466 
L 5575 5466 
L 5575 -563 
L 4794 -563 
z
M 3609 934 
Q 2681 1578 2228 2444 
Q 1731 1463 838 831 
L 231 1369 
Q 925 1725 1381 2434 
Q 1838 3144 1838 3891 
L 1838 5063 
L 2619 5063 
L 2619 3909 
Q 2619 3178 3066 2498 
Q 3513 1819 4159 1544 
L 3609 934 
z
" transform="scale(0.015625)"/>
      <path id="MalgunGothicBold-677" d="M 4716 1153 
L 4716 5466 
L 5484 5466 
L 5484 1153 
L 4716 1153 
z
M 716 2228 
L 716 5153 
L 1484 5153 
L 1484 4256 
L 2841 4256 
L 2841 5153 
L 3616 5153 
L 3616 2228 
L 716 2228 
z
M 2841 3597 
L 1484 3597 
L 1484 2881 
L 2841 2881 
L 2841 3597 
z
M 1594 -353 
L 1594 1703 
L 2381 1703 
L 2381 306 
L 5600 306 
L 5600 -353 
L 1594 -353 
z
" transform="scale(0.015625)"/>
     </defs>
     <use xlink:href="#MalgunGothicBold-9db"/>
     <use xlink:href="#MalgunGothicBold-a65" transform="translate(100 0)"/>
     <use xlink:href="#MalgunGothicBold-2c5" transform="translate(200 0)"/>
     <use xlink:href="#MalgunGothicBold-576" transform="translate(300 0)"/>
     <use xlink:href="#MalgunGothicBold-634" transform="translate(400 0)"/>
     <use xlink:href="#MalgunGothicBold-3" transform="translate(500 0)"/>
     <use xlink:href="#MalgunGothicBold-463" transform="translate(535.15625 0)"/>
     <use xlink:href="#MalgunGothicBold-6ed" transform="translate(635.15625 0)"/>
     <use xlink:href="#MalgunGothicBold-3" transform="translate(735.15625 0)"/>
     <use xlink:href="#MalgunGothicBold-677" transform="translate(770.3125 0)"/>
     <use xlink:href="#MalgunGothicBold-463" transform="translate(870.3125 0)"/>
    </g>
   </g>
  </g>
 </g>
 <defs>
  <clipPath id="p50cdc7269d">
   <rect x="149.321953" y="38.04" width="487.878047" height="273.518047"/>
  </clipPath>
 </defs>
</svg>
