<?xml version="1.0" encoding="utf-8" standalone="no"?>
<!DOCTYPE svg PUBLIC "-//W3C//DTD SVG 1.1//EN"
  "http://www.w3.org/Graphics/SVG/1.1/DTD/svg11.dtd">
<svg xmlns:xlink="http://www.w3.org/1999/xlink" width="720pt" height="576pt" viewBox="0 0 720 576" xmlns="http://www.w3.org/2000/svg" version="1.1">
 <metadata>
  <rdf:RDF xmlns:dc="http://purl.org/dc/elements/1.1/" xmlns:cc="http://creativecommons.org/ns#" xmlns:rdf="http://www.w3.org/1999/02/22-rdf-syntax-ns#">
   <cc:Work>
    <dc:type rdf:resource="http://purl.org/dc/dcmitype/StillImage"/>
    <dc:date>2026-07-06T15:52:33.939485</dc:date>
    <dc:format>image/svg+xml</dc:format>
    <dc:creator>
     <cc:Agent>
      <dc:title>Matplotlib v3.11.0, https://matplotlib.org/</dc:title>
     </cc:Agent>
    </dc:creator>
   </cc:Work>
  </rdf:RDF>
 </metadata>
 <defs>
  <style type="text/css">*{stroke-linejoin: round; stroke-linecap: butt}</style>
 </defs>
 <g id="figure_1">
  <g id="patch_1">
   <path d="M 0 576 
L 720 576 
L 720 0 
L 0 0 
z
" style="fill: #ffffff"/>
  </g>
  <g id="axes_1">
   <g id="patch_2">
    <path d="M 78.761953 527.558047 
L 709.2 527.558047 
L 709.2 38.04 
L 78.761953 38.04 
z
" style="fill: #ffffff"/>
   </g>
   <g id="patch_3">
    <path d="M 78.761953 39.671727 
L 679.179141 39.671727 
L 679.179141 52.725541 
L 78.761953 52.725541 
z
" clip-path="url(#p0410fae930)" style="fill: #184a7b"/>
   </g>
   <g id="patch_4">
    <path d="M 78.761953 55.988995 
L 295.049645 55.988995 
L 295.049645 69.04281 
L 78.761953 69.04281 
z
" clip-path="url(#p0410fae930)" style="fill: #1a5385"/>
   </g>
   <g id="patch_5">
    <path d="M 78.761953 72.306263 
L 288.958043 72.306263 
L 288.958043 85.360078 
L 78.761953 85.360078 
z
" clip-path="url(#p0410fae930)" style="fill: #1b5c8e"/>
   </g>
   <g id="patch_6">
    <path d="M 78.761953 88.623532 
L 244.276878 88.623532 
L 244.276878 101.677346 
L 78.761953 101.677346 
z
" clip-path="url(#p0410fae930)" style="fill: #1e6698"/>
   </g>
   <g id="patch_7">
    <path d="M 78.761953 104.9408 
L 241.290182 104.9408 
L 241.290182 117.994614 
L 78.761953 117.994614 
z
" clip-path="url(#p0410fae930)" style="fill: #266e9d"/>
   </g>
   <g id="patch_8">
    <path d="M 78.761953 121.258068 
L 231.886895 121.258068 
L 231.886895 134.311883 
L 78.761953 134.311883 
z
" clip-path="url(#p0410fae930)" style="fill: #2e77a2"/>
   </g>
   <g id="patch_9">
    <path d="M 78.761953 137.575336 
L 229.351995 137.575336 
L 229.351995 150.629151 
L 78.761953 150.629151 
z
" clip-path="url(#p0410fae930)" style="fill: #367fa7"/>
   </g>
   <g id="patch_10">
    <path d="M 78.761953 153.892604 
L 225.37094 153.892604 
L 225.37094 166.946419 
L 78.761953 166.946419 
z
" clip-path="url(#p0410fae930)" style="fill: #4089ad"/>
   </g>
   <g id="patch_11">
    <path d="M 78.761953 170.209873 
L 224.079857 170.209873 
L 224.079857 183.263687 
L 78.761953 183.263687 
z
" clip-path="url(#p0410fae930)" style="fill: #4892b3"/>
   </g>
   <g id="patch_12">
    <path d="M 78.761953 186.527141 
L 217.254033 186.527141 
L 217.254033 199.580955 
L 78.761953 199.580955 
z
" clip-path="url(#p0410fae930)" style="fill: #509bb9"/>
   </g>
   <g id="patch_13">
    <path d="M 78.761953 202.844409 
L 212.222548 202.844409 
L 212.222548 215.898224 
L 78.761953 215.898224 
z
" clip-path="url(#p0410fae930)" style="fill: #59a4be"/>
   </g>
   <g id="patch_14">
    <path d="M 78.761953 219.161677 
L 204.722503 219.161677 
L 204.722503 232.215492 
L 78.761953 232.215492 
z
" clip-path="url(#p0410fae930)" style="fill: #63adc2"/>
   </g>
   <g id="patch_15">
    <path d="M 78.761953 235.478946 
L 204.51773 235.478946 
L 204.51773 248.53276 
L 78.761953 248.53276 
z
" clip-path="url(#p0410fae930)" style="fill: #6cb2c0"/>
   </g>
   <g id="patch_16">
    <path d="M 78.761953 251.796214 
L 201.024514 251.796214 
L 201.024514 264.850028 
L 78.761953 264.850028 
z
" clip-path="url(#p0410fae930)" style="fill: #75b8be"/>
   </g>
   <g id="patch_17">
    <path d="M 78.761953 268.113482 
L 200.181102 268.113482 
L 200.181102 281.167297 
L 78.761953 281.167297 
z
" clip-path="url(#p0410fae930)" style="fill: #7fbebc"/>
   </g>
   <g id="patch_18">
    <path d="M 78.761953 284.43075 
L 196.609951 284.43075 
L 196.609951 297.484565 
L 78.761953 297.484565 
z
" clip-path="url(#p0410fae930)" style="fill: #8bc5bb"/>
   </g>
   <g id="patch_19">
    <path d="M 78.761953 300.748018 
L 195.795715 300.748018 
L 195.795715 313.801833 
L 78.761953 313.801833 
z
" clip-path="url(#p0410fae930)" style="fill: #95cabb"/>
   </g>
   <g id="patch_20">
    <path d="M 78.761953 317.065287 
L 195.725144 317.065287 
L 195.725144 330.119101 
L 78.761953 330.119101 
z
" clip-path="url(#p0410fae930)" style="fill: #a0cfba"/>
   </g>
   <g id="patch_21">
    <path d="M 78.761953 333.382555 
L 194.86843 333.382555 
L 194.86843 346.43637 
L 78.761953 346.43637 
z
" clip-path="url(#p0410fae930)" style="fill: #aad4b9"/>
   </g>
   <g id="patch_22">
    <path d="M 78.761953 349.699823 
L 194.08928 349.699823 
L 194.08928 362.753638 
L 78.761953 362.753638 
z
" clip-path="url(#p0410fae930)" style="fill: #b4d9bc"/>
   </g>
   <g id="patch_23">
    <path d="M 78.761953 366.017091 
L 194.038082 366.017091 
L 194.038082 379.070906 
L 78.761953 379.070906 
z
" clip-path="url(#p0410fae930)" style="fill: #bddec0"/>
   </g>
   <g id="patch_24">
    <path d="M 78.761953 382.33436 
L 193.925884 382.33436 
L 193.925884 395.388174 
L 78.761953 395.388174 
z
" clip-path="url(#p0410fae930)" style="fill: #c5e2c5"/>
   </g>
   <g id="patch_25">
    <path d="M 78.761953 398.651628 
L 193.038799 398.651628 
L 193.038799 411.705442 
L 78.761953 411.705442 
z
" clip-path="url(#p0410fae930)" style="fill: #cde5c9"/>
   </g>
   <g id="patch_26">
    <path d="M 78.761953 414.968896 
L 190.544866 414.968896 
L 190.544866 428.022711 
L 78.761953 428.022711 
z
" clip-path="url(#p0410fae930)" style="fill: #d3e8ce"/>
   </g>
   <g id="patch_27">
    <path d="M 78.761953 431.286164 
L 188.481105 431.286164 
L 188.481105 444.339979 
L 78.761953 444.339979 
z
" clip-path="url(#p0410fae930)" style="fill: #d8ebd3"/>
   </g>
   <g id="patch_28">
    <path d="M 78.761953 447.603433 
L 186.648807 447.603433 
L 186.648807 460.657247 
L 78.761953 460.657247 
z
" clip-path="url(#p0410fae930)" style="fill: #dcedd8"/>
   </g>
   <g id="patch_29">
    <path d="M 78.761953 463.920701 
L 185.896497 463.920701 
L 185.896497 476.974515 
L 78.761953 476.974515 
z
" clip-path="url(#p0410fae930)" style="fill: #e1f0dd"/>
   </g>
   <g id="patch_30">
    <path d="M 78.761953 480.237969 
L 182.928571 480.237969 
L 182.928571 493.291784 
L 78.761953 493.291784 
z
" clip-path="url(#p0410fae930)" style="fill: #e7f3e3"/>
   </g>
   <g id="patch_31">
    <path d="M 78.761953 496.555237 
L 180.333833 496.555237 
L 180.333833 509.609052 
L 78.761953 509.609052 
z
" clip-path="url(#p0410fae930)" style="fill: #ecf5e8"/>
   </g>
   <g id="patch_32">
    <path d="M 78.761953 512.872505 
L 175.488098 512.872505 
L 175.488098 525.92632 
L 78.761953 525.92632 
z
" clip-path="url(#p0410fae930)" style="fill: #f1f8ed"/>
   </g>
   <g id="matplotlib.axis_1">
    <g id="xtick_1">
     <g id="line2d_1">
      <path d="M 78.761953 527.558047 
L 78.761953 38.04 
" clip-path="url(#p0410fae930)" style="fill: none; stroke-dasharray: 2.96,1.28; stroke-dashoffset: 0; stroke: #b0b0b0; stroke-opacity: 0.5; stroke-width: 0.8"/>
     </g>
     <g id="line2d_2">
      <defs>
       <path id="mf7c1319094" d="M 0 0 
L 0 3.5 
" style="stroke: #000000; stroke-width: 0.8"/>
      </defs>
      <g>
       <use xlink:href="#mf7c1319094" x="78.761953" y="527.558047" style="stroke: #000000; stroke-width: 0.8"/>
      </g>
     </g>
     <g id="text_1">
      <!-- 0 -->
      <g transform="translate(76.008047 542.556094) scale(0.1 -0.1)">
       <defs>
        <path id="MalgunGothic-13" d="M 278 2206 
Q 278 3425 675 4050 
Q 1072 4675 1819 4675 
Q 3253 4675 3253 2319 
Q 3253 1156 2854 539 
Q 2456 -78 1716 -78 
Q 1016 -78 647 520 
Q 278 1119 278 2206 
z
M 784 2231 
Q 784 344 1769 344 
Q 2747 344 2747 2259 
Q 2747 4250 1794 4250 
Q 784 4250 784 2231 
z
" transform="scale(0.015625)"/>
       </defs>
       <use xlink:href="#MalgunGothic-13"/>
      </g>
     </g>
    </g>
    <g id="xtick_2">
     <g id="line2d_3">
      <path d="M 160.532266 527.558047 
L 160.532266 38.04 
" clip-path="url(#p0410fae930)" style="fill: none; stroke-dasharray: 2.96,1.28; stroke-dashoffset: 0; stroke: #b0b0b0; stroke-opacity: 0.5; stroke-width: 0.8"/>
     </g>
     <g id="line2d_4">
      <g>
       <use xlink:href="#mf7c1319094" x="160.532266" y="527.558047" style="stroke: #000000; stroke-width: 0.8"/>
      </g>
     </g>
     <g id="text_2">
      <!-- 100 -->
      <g transform="translate(152.270547 542.556094) scale(0.1 -0.1)">
       <defs>
        <path id="MalgunGothic-14" d="M 2231 0 
L 1734 0 
L 1734 3972 
Q 1591 3828 1266 3661 
Q 941 3494 672 3428 
L 672 3959 
Q 1016 4056 1409 4275 
Q 1803 4494 2031 4700 
L 2231 4700 
L 2231 0 
z
" transform="scale(0.015625)"/>
       </defs>
       <use xlink:href="#MalgunGothic-14"/>
       <use xlink:href="#MalgunGothic-13" transform="translate(55.078125 0)"/>
       <use xlink:href="#MalgunGothic-13" transform="translate(110.15625 0)"/>
      </g>
     </g>
    </g>
    <g id="xtick_3">
     <g id="line2d_5">
      <path d="M 242.302578 527.558047 
L 242.302578 38.04 
" clip-path="url(#p0410fae930)" style="fill: none; stroke-dasharray: 2.96,1.28; stroke-dashoffset: 0; stroke: #b0b0b0; stroke-opacity: 0.5; stroke-width: 0.8"/>
     </g>
     <g id="line2d_6">
      <g>
       <use xlink:href="#mf7c1319094" x="242.302578" y="527.558047" style="stroke: #000000; stroke-width: 0.8"/>
      </g>
     </g>
     <g id="text_3">
      <!-- 200 -->
      <g transform="translate(234.040859 542.556094) scale(0.1 -0.1)">
       <defs>
        <path id="MalgunGothic-15" d="M 2519 3372 
Q 2519 3784 2275 4018 
Q 2031 4253 1628 4253 
Q 1341 4253 1053 4104 
Q 766 3956 534 3697 
L 534 4234 
Q 981 4675 1691 4675 
Q 2281 4675 2642 4334 
Q 3003 3994 3003 3416 
Q 3003 2919 2772 2545 
Q 2541 2172 1984 1775 
Q 1459 1406 1254 1215 
Q 1050 1025 967 854 
Q 884 684 884 450 
L 3116 450 
L 3116 0 
L 356 0 
L 356 225 
Q 356 603 461 870 
Q 566 1138 811 1392 
Q 1056 1647 1597 2022 
Q 2091 2363 2305 2670 
Q 2519 2978 2519 3372 
z
" transform="scale(0.015625)"/>
       </defs>
       <use xlink:href="#MalgunGothic-15"/>
       <use xlink:href="#MalgunGothic-13" transform="translate(55.078125 0)"/>
       <use xlink:href="#MalgunGothic-13" transform="translate(110.15625 0)"/>
      </g>
     </g>
    </g>
    <g id="xtick_4">
     <g id="line2d_7">
      <path d="M 324.072891 527.558047 
L 324.072891 38.04 
" clip-path="url(#p0410fae930)" style="fill: none; stroke-dasharray: 2.96,1.28; stroke-dashoffset: 0; stroke: #b0b0b0; stroke-opacity: 0.5; stroke-width: 0.8"/>
     </g>
     <g id="line2d_8">
      <g>
       <use xlink:href="#mf7c1319094" x="324.072891" y="527.558047" style="stroke: #000000; stroke-width: 0.8"/>
      </g>
     </g>
     <g id="text_4">
      <!-- 300 -->
      <g transform="translate(315.811172 542.556094) scale(0.1 -0.1)">
       <defs>
        <path id="MalgunGothic-16" d="M 416 719 
Q 891 344 1478 344 
Q 1959 344 2254 587 
Q 2550 831 2550 1247 
Q 2550 2169 1253 2169 
L 872 2169 
L 872 2591 
L 1234 2591 
Q 2388 2591 2388 3453 
Q 2388 4250 1509 4250 
Q 1022 4250 594 3916 
L 594 4413 
Q 1031 4675 1634 4675 
Q 2184 4675 2539 4372 
Q 2894 4069 2894 3581 
Q 2894 2678 1972 2409 
L 1972 2400 
Q 2469 2356 2764 2053 
Q 3059 1750 3059 1300 
Q 3059 672 2604 297 
Q 2150 -78 1450 -78 
Q 806 -78 416 169 
L 416 719 
z
" transform="scale(0.015625)"/>
       </defs>
       <use xlink:href="#MalgunGothic-16"/>
       <use xlink:href="#MalgunGothic-13" transform="translate(55.078125 0)"/>
       <use xlink:href="#MalgunGothic-13" transform="translate(110.15625 0)"/>
      </g>
     </g>
    </g>
    <g id="xtick_5">
     <g id="line2d_9">
      <path d="M 405.843203 527.558047 
L 405.843203 38.04 
" clip-path="url(#p0410fae930)" style="fill: none; stroke-dasharray: 2.96,1.28; stroke-dashoffset: 0; stroke: #b0b0b0; stroke-opacity: 0.5; stroke-width: 0.8"/>
     </g>
     <g id="line2d_10">
      <g>
       <use xlink:href="#mf7c1319094" x="405.843203" y="527.558047" style="stroke: #000000; stroke-width: 0.8"/>
      </g>
     </g>
     <g id="text_5">
      <!-- 400 -->
      <g transform="translate(397.581484 542.556094) scale(0.1 -0.1)">
       <defs>
        <path id="MalgunGothic-17" d="M 2703 4600 
L 2703 1563 
L 3309 1563 
L 3309 1113 
L 2703 1113 
L 2703 0 
L 2213 0 
L 2213 1113 
L 50 1113 
L 50 1534 
Q 728 2297 1295 3109 
Q 1863 3922 2172 4600 
L 2703 4600 
z
M 625 1563 
L 2213 1563 
L 2213 3831 
Q 1613 2788 959 1981 
L 625 1563 
z
" transform="scale(0.015625)"/>
       </defs>
       <use xlink:href="#MalgunGothic-17"/>
       <use xlink:href="#MalgunGothic-13" transform="translate(55.078125 0)"/>
       <use xlink:href="#MalgunGothic-13" transform="translate(110.15625 0)"/>
      </g>
     </g>
    </g>
    <g id="xtick_6">
     <g id="line2d_11">
      <path d="M 487.613516 527.558047 
L 487.613516 38.04 
" clip-path="url(#p0410fae930)" style="fill: none; stroke-dasharray: 2.96,1.28; stroke-dashoffset: 0; stroke: #b0b0b0; stroke-opacity: 0.5; stroke-width: 0.8"/>
     </g>
     <g id="line2d_12">
      <g>
       <use xlink:href="#mf7c1319094" x="487.613516" y="527.558047" style="stroke: #000000; stroke-width: 0.8"/>
      </g>
     </g>
     <g id="text_6">
      <!-- 500 -->
      <g transform="translate(479.351797 542.556094) scale(0.1 -0.1)">
       <defs>
        <path id="MalgunGothic-18" d="M 3072 1403 
Q 3072 722 2636 322 
Q 2200 -78 1469 -78 
Q 828 -78 516 113 
L 516 650 
Q 994 344 1475 344 
Q 1969 344 2270 630 
Q 2572 916 2572 1372 
Q 2572 1838 2265 2092 
Q 1959 2347 1381 2347 
Q 994 2347 603 2300 
L 759 4600 
L 2869 4600 
L 2869 4147 
L 1206 4147 
L 1106 2763 
Q 1347 2784 1547 2784 
Q 2263 2784 2667 2414 
Q 3072 2044 3072 1403 
z
" transform="scale(0.015625)"/>
       </defs>
       <use xlink:href="#MalgunGothic-18"/>
       <use xlink:href="#MalgunGothic-13" transform="translate(55.078125 0)"/>
       <use xlink:href="#MalgunGothic-13" transform="translate(110.15625 0)"/>
      </g>
     </g>
    </g>
    <g id="xtick_7">
     <g id="line2d_13">
      <path d="M 569.383828 527.558047 
L 569.383828 38.04 
" clip-path="url(#p0410fae930)" style="fill: none; stroke-dasharray: 2.96,1.28; stroke-dashoffset: 0; stroke: #b0b0b0; stroke-opacity: 0.5; stroke-width: 0.8"/>
     </g>
     <g id="line2d_14">
      <g>
       <use xlink:href="#mf7c1319094" x="569.383828" y="527.558047" style="stroke: #000000; stroke-width: 0.8"/>
      </g>
     </g>
     <g id="text_7">
      <!-- 600 -->
      <g transform="translate(561.122109 542.556094) scale(0.1 -0.1)">
       <defs>
        <path id="MalgunGothic-19" d="M 2981 4069 
Q 2619 4250 2228 4250 
Q 1591 4250 1228 3689 
Q 866 3128 869 2213 
L 884 2213 
Q 1203 2872 1938 2872 
Q 2547 2872 2903 2478 
Q 3259 2084 3259 1450 
Q 3259 797 2857 359 
Q 2456 -78 1825 -78 
Q 1116 -78 736 478 
Q 356 1034 356 2019 
Q 356 3181 847 3928 
Q 1338 4675 2222 4675 
Q 2700 4675 2981 4544 
L 2981 4069 
z
M 906 1506 
Q 906 1022 1165 683 
Q 1425 344 1844 344 
Q 2247 344 2498 645 
Q 2750 947 2750 1388 
Q 2750 1888 2509 2167 
Q 2269 2447 1838 2447 
Q 1444 2447 1175 2173 
Q 906 1900 906 1506 
z
" transform="scale(0.015625)"/>
       </defs>
       <use xlink:href="#MalgunGothic-19"/>
       <use xlink:href="#MalgunGothic-13" transform="translate(55.078125 0)"/>
       <use xlink:href="#MalgunGothic-13" transform="translate(110.15625 0)"/>
      </g>
     </g>
    </g>
    <g id="xtick_8">
     <g id="line2d_15">
      <path d="M 651.154141 527.558047 
L 651.154141 38.04 
" clip-path="url(#p0410fae930)" style="fill: none; stroke-dasharray: 2.96,1.28; stroke-dashoffset: 0; stroke: #b0b0b0; stroke-opacity: 0.5; stroke-width: 0.8"/>
     </g>
     <g id="line2d_16">
      <g>
       <use xlink:href="#mf7c1319094" x="651.154141" y="527.558047" style="stroke: #000000; stroke-width: 0.8"/>
      </g>
     </g>
     <g id="text_8">
      <!-- 700 -->
      <g transform="translate(642.892422 542.556094) scale(0.1 -0.1)">
       <defs>
        <path id="MalgunGothic-1a" d="M 3213 4297 
Q 2478 3006 2064 1918 
Q 1650 831 1550 0 
L 1009 0 
Q 1084 531 1290 1176 
Q 1497 1822 1815 2537 
Q 2134 3253 2631 4147 
L 291 4147 
L 291 4600 
L 3213 4600 
L 3213 4297 
z
" transform="scale(0.015625)"/>
       </defs>
       <use xlink:href="#MalgunGothic-1a"/>
       <use xlink:href="#MalgunGothic-13" transform="translate(55.078125 0)"/>
       <use xlink:href="#MalgunGothic-13" transform="translate(110.15625 0)"/>
      </g>
     </g>
    </g>
    <g id="text_9">
     <!-- TF-IDF 가중치 합계 -->
     <g transform="translate(350.823164 563.229922) scale(0.1 -0.1)">
      <defs>
       <path id="MalgunGothic-37" d="M 3294 4134 
L 1966 4134 
L 1966 0 
L 1456 0 
L 1456 4134 
L 134 4134 
L 134 4600 
L 3294 4600 
L 3294 4134 
z
" transform="scale(0.015625)"/>
       <path id="MalgunGothic-29" d="M 2922 4134 
L 1113 4134 
L 1113 2516 
L 2788 2516 
L 2788 2050 
L 1113 2050 
L 1113 0 
L 609 0 
L 609 4600 
L 2922 4600 
L 2922 4134 
z
" transform="scale(0.015625)"/>
       <path id="MalgunGothic-10" d="M 2213 1634 
L 463 1634 
L 463 2031 
L 2213 2031 
L 2213 1634 
z
" transform="scale(0.015625)"/>
       <path id="MalgunGothic-2c" d="M 1116 0 
L 613 0 
L 613 4600 
L 1116 4600 
L 1116 0 
z
" transform="scale(0.015625)"/>
       <path id="MalgunGothic-27" d="M 609 0 
L 609 4600 
L 1856 4600 
Q 4281 4600 4281 2356 
Q 4281 1288 3587 644 
Q 2894 0 1800 0 
L 609 0 
z
M 1113 4134 
L 1113 463 
L 1813 463 
Q 2734 463 3243 958 
Q 3753 1453 3753 2344 
Q 3753 4134 1844 4134 
L 1113 4134 
z
" transform="scale(0.015625)"/>
       <path id="MalgunGothic-3" transform="scale(0.015625)"/>
       <path id="MalgunGothic-27c" d="M 5094 2566 
L 5094 -563 
L 4628 -563 
L 4628 5466 
L 5094 5466 
L 5094 2981 
L 6175 2981 
L 6175 2566 
L 5094 2566 
z
M 3609 4928 
Q 3541 2363 897 863 
L 538 1241 
Q 1484 1631 2234 2506 
Q 2984 3381 3109 4513 
L 794 4513 
L 794 4928 
L 3609 4928 
z
" transform="scale(0.015625)"/>
       <path id="MalgunGothic-8f8" d="M 5459 3272 
Q 4750 3372 4097 3714 
Q 3444 4056 3206 4422 
Q 2984 4094 2328 3736 
Q 1672 3378 972 3278 
L 697 3653 
Q 1478 3713 2139 4083 
Q 2800 4453 2950 4878 
L 1025 4878 
L 1025 5300 
L 5375 5300 
L 5375 4878 
L 3456 4878 
Q 3597 4456 4251 4090 
Q 4906 3725 5703 3653 
L 5459 3272 
z
M 2963 1734 
L 2963 2431 
L 403 2431 
L 403 2853 
L 5997 2853 
L 5997 2431 
L 3438 2431 
L 3438 1734 
Q 4269 1697 4700 1400 
Q 5131 1103 5131 628 
Q 5131 100 4634 -200 
Q 4138 -500 3200 -500 
Q 2263 -500 1766 -200 
Q 1269 100 1269 628 
Q 1269 1103 1700 1400 
Q 2131 1697 2963 1734 
z
M 3200 1344 
Q 2481 1344 2117 1155 
Q 1753 966 1753 628 
Q 1753 284 2123 90 
Q 2494 -103 3200 -103 
Q 3903 -103 4275 90 
Q 4647 284 4647 628 
Q 4647 966 4281 1155 
Q 3916 1344 3200 1344 
z
" transform="scale(0.015625)"/>
       <path id="MalgunGothic-9d4" d="M 4941 -563 
L 4941 5466 
L 5409 5466 
L 5409 -563 
L 4941 -563 
z
M 3969 966 
Q 3447 1272 2995 1773 
Q 2544 2275 2406 2656 
Q 2281 2259 1817 1686 
Q 1353 1113 891 831 
L 531 1197 
Q 1197 1519 1683 2242 
Q 2169 2966 2169 3628 
L 2169 4206 
L 678 4206 
L 678 4622 
L 2163 4622 
L 2163 5466 
L 2631 5466 
L 2631 4622 
L 4128 4622 
L 4128 4206 
L 2638 4206 
L 2631 3603 
Q 2625 2991 3111 2314 
Q 3597 1638 4300 1338 
L 3969 966 
z
" transform="scale(0.015625)"/>
       <path id="MalgunGothic-b22" d="M 1997 5550 
L 2463 5550 
L 2463 4838 
L 4013 4838 
L 4013 4428 
L 447 4428 
L 447 4838 
L 1997 4838 
L 1997 5550 
z
M 5125 3303 
L 5125 1941 
L 4659 1941 
L 4659 5466 
L 5125 5466 
L 5125 3719 
L 5972 3719 
L 5972 3303 
L 5125 3303 
z
M 2241 1991 
Q 1550 1991 1153 2294 
Q 756 2597 756 3059 
Q 756 3516 1157 3822 
Q 1559 4128 2247 4128 
Q 2934 4128 3336 3822 
Q 3738 3516 3738 3059 
Q 3738 2603 3336 2297 
Q 2934 1991 2241 1991 
z
M 2247 3731 
Q 1766 3731 1491 3539 
Q 1216 3347 1216 3059 
Q 1216 2763 1494 2575 
Q 1772 2388 2247 2388 
Q 2722 2388 3000 2575 
Q 3278 2763 3278 3059 
Q 3278 3347 3003 3539 
Q 2728 3731 2247 3731 
z
M 1416 -500 
L 1416 1606 
L 1875 1606 
L 1875 916 
L 4666 916 
L 4666 1606 
L 5125 1606 
L 5125 -500 
L 1416 -500 
z
M 4666 513 
L 1875 513 
L 1875 -91 
L 4666 -91 
L 4666 513 
z
" transform="scale(0.015625)"/>
       <path id="MalgunGothic-2c3" d="M 5044 -563 
L 5044 5466 
L 5509 5466 
L 5509 -563 
L 5044 -563 
z
M 3938 -366 
L 3938 1925 
L 2700 1925 
L 2700 2344 
L 3938 2344 
L 3938 3616 
L 2869 3616 
Q 2366 1953 813 878 
L 441 1197 
Q 1263 1634 1891 2575 
Q 2519 3516 2584 4531 
L 800 4531 
L 800 4941 
L 3078 4941 
Q 3056 4409 2969 4031 
L 3938 4031 
L 3938 5344 
L 4397 5344 
L 4397 -366 
L 3938 -366 
z
" transform="scale(0.015625)"/>
      </defs>
      <use xlink:href="#MalgunGothic-37"/>
      <use xlink:href="#MalgunGothic-29" transform="translate(53.375 0)"/>
      <use xlink:href="#MalgunGothic-10" transform="translate(103.234375 0)"/>
      <use xlink:href="#MalgunGothic-2c" transform="translate(144.25 0)"/>
      <use xlink:href="#MalgunGothic-27" transform="translate(171.25 0)"/>
      <use xlink:href="#MalgunGothic-29" transform="translate(242.984375 0)"/>
      <use xlink:href="#MalgunGothic-3" transform="translate(292.84375 0)"/>
      <use xlink:href="#MalgunGothic-27c" transform="translate(328 0)"/>
      <use xlink:href="#MalgunGothic-8f8" transform="translate(428 0)"/>
      <use xlink:href="#MalgunGothic-9d4" transform="translate(528 0)"/>
      <use xlink:href="#MalgunGothic-3" transform="translate(628 0)"/>
      <use xlink:href="#MalgunGothic-b22" transform="translate(663.15625 0)"/>
      <use xlink:href="#MalgunGothic-2c3" transform="translate(763.15625 0)"/>
     </g>
    </g>
   </g>
   <g id="matplotlib.axis_2">
    <g id="ytick_1">
     <g id="line2d_17">
      <defs>
       <path id="m5e8d945528" d="M 0 0 
L -3.5 0 
" style="stroke: #000000; stroke-width: 0.8"/>
      </defs>
      <g>
       <use xlink:href="#m5e8d945528" x="78.761953" y="46.198634" style="stroke: #000000; stroke-width: 0.8"/>
      </g>
     </g>
     <g id="text_10">
      <!-- ai -->
      <g transform="translate(64.101016 50.197658) scale(0.1 -0.1)">
       <defs>
        <path id="MalgunGothic-44" d="M 616 3050 
Q 1097 3359 1722 3359 
Q 2866 3359 2866 2147 
L 2866 0 
L 2369 0 
L 2369 516 
L 2350 516 
Q 2009 -78 1341 -78 
Q 859 -78 576 180 
Q 294 438 294 869 
Q 294 1784 1375 1934 
L 2366 2078 
Q 2366 2934 1684 2934 
Q 1084 2934 616 2525 
L 616 3050 
z
M 1563 1559 
Q 1178 1509 993 1371 
Q 809 1234 809 903 
Q 809 653 986 500 
Q 1163 347 1450 347 
Q 1847 347 2106 628 
Q 2366 909 2366 1334 
L 2366 1666 
L 1563 1559 
z
" transform="scale(0.015625)"/>
        <path id="MalgunGothic-4c" d="M 472 4466 
Q 472 4606 565 4701 
Q 659 4797 794 4797 
Q 934 4797 1029 4700 
Q 1125 4603 1125 4466 
Q 1125 4325 1029 4231 
Q 934 4138 794 4138 
Q 659 4138 565 4230 
Q 472 4322 472 4466 
z
M 541 0 
L 541 3284 
L 1034 3284 
L 1034 0 
L 541 0 
z
" transform="scale(0.015625)"/>
       </defs>
       <use xlink:href="#MalgunGothic-44"/>
       <use xlink:href="#MalgunGothic-4c" transform="translate(52 0)"/>
      </g>
     </g>
    </g>
    <g id="ytick_2">
     <g id="line2d_18">
      <g>
       <use xlink:href="#m5e8d945528" x="78.761953" y="62.515902" style="stroke: #000000; stroke-width: 0.8"/>
      </g>
     </g>
     <g id="text_11">
      <!-- 코딩 -->
      <g transform="translate(51.761953 66.786215) scale(0.1 -0.1)">
       <defs>
        <path id="MalgunGothic-a0d" d="M 5006 1478 
L 4563 1528 
Q 4656 2344 4666 3047 
L 959 2797 
L 863 3244 
L 4666 3438 
L 4672 4481 
L 1147 4481 
L 1147 4891 
L 5141 4891 
L 5141 3481 
Q 5141 2375 5006 1478 
z
M 403 416 
L 403 838 
L 2656 838 
L 2656 2309 
L 3122 2309 
L 3122 838 
L 5997 838 
L 5997 416 
L 403 416 
z
" transform="scale(0.015625)"/>
        <path id="MalgunGothic-4aa" d="M 4947 1966 
L 4947 5466 
L 5416 5466 
L 5416 1966 
L 4947 1966 
z
M 4206 2600 
Q 3309 2528 1113 2528 
L 1113 5119 
L 3963 5119 
L 3963 4703 
L 1581 4703 
L 1581 2944 
L 1988 2944 
Q 3356 2944 4172 3003 
L 4206 2600 
z
M 3531 -488 
Q 2591 -488 2080 -172 
Q 1569 144 1569 666 
Q 1569 1184 2078 1501 
Q 2588 1819 3531 1819 
Q 4478 1819 4987 1500 
Q 5497 1181 5497 666 
Q 5497 147 4986 -170 
Q 4475 -488 3531 -488 
z
M 3531 1422 
Q 2813 1422 2436 1211 
Q 2059 1000 2059 666 
Q 2059 331 2436 120 
Q 2813 -91 3531 -91 
Q 4247 -91 4622 118 
Q 4997 328 4997 666 
Q 4997 1003 4622 1212 
Q 4247 1422 3531 1422 
z
" transform="scale(0.015625)"/>
       </defs>
       <use xlink:href="#MalgunGothic-a0d"/>
       <use xlink:href="#MalgunGothic-4aa" transform="translate(100 0)"/>
      </g>
     </g>
    </g>
    <g id="ytick_3">
     <g id="line2d_19">
      <g>
       <use xlink:href="#m5e8d945528" x="78.761953" y="78.833171" style="stroke: #000000; stroke-width: 0.8"/>
      </g>
     </g>
     <g id="text_12">
      <!-- 디자인 -->
      <g transform="translate(41.761953 83.103483) scale(0.1 -0.1)">
       <defs>
        <path id="MalgunGothic-4a1" d="M 4947 -563 
L 4947 5466 
L 5416 5466 
L 5416 -563 
L 4947 -563 
z
M 4250 1153 
Q 3753 1094 3154 1078 
Q 2556 1063 1013 1063 
L 1013 4928 
L 3916 4928 
L 3916 4513 
L 1478 4513 
L 1478 1478 
Q 3722 1478 4219 1556 
L 4250 1153 
z
" transform="scale(0.015625)"/>
        <path id="MalgunGothic-895" d="M 5094 2600 
L 5094 -563 
L 4628 -563 
L 4628 5466 
L 5094 5466 
L 5094 3016 
L 6138 3016 
L 6138 2600 
L 5094 2600 
z
M 3675 909 
Q 3228 1250 2808 1812 
Q 2388 2375 2247 2822 
Q 2125 2394 1712 1809 
Q 1300 1225 800 825 
L 441 1134 
Q 1100 1569 1551 2364 
Q 2003 3159 2003 3891 
L 2003 4525 
L 666 4525 
L 666 4941 
L 3775 4941 
L 3775 4525 
L 2463 4525 
L 2463 3922 
Q 2463 3188 2916 2434 
Q 3369 1681 4000 1259 
L 3675 909 
z
" transform="scale(0.015625)"/>
        <path id="MalgunGothic-889" d="M 4947 1063 
L 4947 5466 
L 5416 5466 
L 5416 1063 
L 4947 1063 
z
M 2438 2175 
Q 1763 2175 1309 2601 
Q 856 3028 856 3706 
Q 856 4388 1307 4811 
Q 1759 5234 2438 5234 
Q 3116 5234 3564 4812 
Q 4013 4391 4013 3706 
Q 4013 3028 3563 2601 
Q 3113 2175 2438 2175 
z
M 2438 4819 
Q 1944 4819 1634 4516 
Q 1325 4213 1325 3706 
Q 1325 3200 1633 2895 
Q 1941 2591 2438 2591 
Q 2934 2591 3243 2895 
Q 3553 3200 3553 3706 
Q 3553 4213 3243 4516 
Q 2934 4819 2438 4819 
z
M 1613 -331 
L 1613 1625 
L 2081 1625 
L 2081 91 
L 5575 91 
L 5575 -331 
L 1613 -331 
z
" transform="scale(0.015625)"/>
       </defs>
       <use xlink:href="#MalgunGothic-4a1"/>
       <use xlink:href="#MalgunGothic-895" transform="translate(100 0)"/>
       <use xlink:href="#MalgunGothic-889" transform="translate(200 0)"/>
      </g>
     </g>
    </g>
    <g id="ytick_4">
     <g id="line2d_20">
      <g>
       <use xlink:href="#m5e8d945528" x="78.761953" y="95.150439" style="stroke: #000000; stroke-width: 0.8"/>
      </g>
     </g>
     <g id="text_13">
      <!-- 에이전트 -->
      <g transform="translate(31.761953 99.420751) scale(0.1 -0.1)">
       <defs>
        <path id="MalgunGothic-7fe" d="M 5081 -563 
L 5081 5466 
L 5550 5466 
L 5550 -563 
L 5081 -563 
z
M 3278 2822 
Q 3244 1931 2903 1448 
Q 2563 966 1959 966 
Q 1325 966 983 1495 
Q 641 2025 641 3016 
Q 641 4006 986 4534 
Q 1331 5063 1959 5063 
Q 2559 5063 2898 4591 
Q 3238 4119 3272 3238 
L 4000 3238 
L 4000 5344 
L 4469 5344 
L 4469 -378 
L 4000 -378 
L 4000 2822 
L 3278 2822 
z
M 1959 4641 
Q 1538 4641 1316 4225 
Q 1094 3809 1094 3016 
Q 1094 2222 1316 1805 
Q 1538 1388 1959 1388 
Q 2378 1388 2600 1806 
Q 2822 2225 2822 3016 
Q 2822 3806 2600 4223 
Q 2378 4641 1959 4641 
z
" transform="scale(0.015625)"/>
        <path id="MalgunGothic-887" d="M 4947 -563 
L 4947 5466 
L 5416 5466 
L 5416 -563 
L 4947 -563 
z
M 2284 959 
Q 1597 959 1173 1514 
Q 750 2069 750 3016 
Q 750 3975 1169 4522 
Q 1588 5069 2284 5069 
Q 2978 5069 3403 4522 
Q 3828 3975 3828 3016 
Q 3828 2063 3401 1511 
Q 2975 959 2284 959 
z
M 2284 4653 
Q 1803 4653 1503 4204 
Q 1203 3756 1203 3016 
Q 1203 2278 1506 1826 
Q 1809 1375 2284 1375 
Q 2756 1375 3061 1828 
Q 3366 2281 3366 3016 
Q 3366 3759 3067 4206 
Q 2769 4653 2284 4653 
z
" transform="scale(0.015625)"/>
        <path id="MalgunGothic-8b7" d="M 4878 1178 
L 4878 3525 
L 3469 3525 
L 3469 3944 
L 4878 3944 
L 4878 5466 
L 5344 5466 
L 5344 1178 
L 4878 1178 
z
M 3675 2069 
Q 3228 2344 2829 2776 
Q 2431 3209 2266 3566 
Q 2091 3150 1662 2648 
Q 1234 2147 819 1913 
L 481 2234 
Q 1125 2559 1573 3198 
Q 2022 3838 2022 4494 
L 2022 4716 
L 684 4716 
L 684 5141 
L 3788 5141 
L 3788 4716 
L 2478 4716 
L 2478 4494 
Q 2478 3894 2943 3286 
Q 3409 2678 3988 2406 
L 3675 2069 
z
M 1631 -366 
L 1631 1606 
L 2100 1606 
L 2100 44 
L 5503 44 
L 5503 -366 
L 1631 -366 
z
" transform="scale(0.015625)"/>
        <path id="MalgunGothic-a9d" d="M 5131 4469 
L 1766 4469 
L 1766 3597 
L 4959 3597 
L 4959 3181 
L 1766 3181 
L 1766 2356 
L 5228 2356 
L 5228 1941 
L 1306 1941 
L 1306 4878 
L 5131 4878 
L 5131 4469 
z
M 403 384 
L 403 800 
L 5997 800 
L 5997 384 
L 403 384 
z
" transform="scale(0.015625)"/>
       </defs>
       <use xlink:href="#MalgunGothic-7fe"/>
       <use xlink:href="#MalgunGothic-887" transform="translate(100 0)"/>
       <use xlink:href="#MalgunGothic-8b7" transform="translate(200 0)"/>
       <use xlink:href="#MalgunGothic-a9d" transform="translate(300 0)"/>
      </g>
     </g>
    </g>
    <g id="ytick_5">
     <g id="line2d_21">
      <g>
       <use xlink:href="#m5e8d945528" x="78.761953" y="111.467707" style="stroke: #000000; stroke-width: 0.8"/>
      </g>
     </g>
     <g id="text_14">
      <!-- 인공지능 -->
      <g transform="translate(31.761953 115.73802) scale(0.1 -0.1)">
       <defs>
        <path id="MalgunGothic-2d3" d="M 5178 5281 
Q 5178 3953 5100 3263 
L 4653 3297 
Q 4709 3956 4709 4863 
L 1375 4863 
L 1375 5281 
L 5178 5281 
z
M 403 2406 
L 403 2822 
L 2778 2822 
L 2778 4044 
L 3238 4044 
L 3238 2822 
L 5997 2822 
L 5997 2406 
L 403 2406 
z
M 3188 -466 
Q 2244 -466 1736 -148 
Q 1228 169 1228 691 
Q 1228 1216 1734 1536 
Q 2241 1856 3188 1856 
Q 4128 1856 4634 1536 
Q 5141 1216 5141 691 
Q 5141 169 4633 -148 
Q 4125 -466 3188 -466 
z
M 3188 1459 
Q 2488 1459 2108 1248 
Q 1728 1038 1728 691 
Q 1728 344 2106 136 
Q 2484 -72 3188 -72 
Q 3891 -72 4269 136 
Q 4647 344 4647 691 
Q 4647 1038 4265 1248 
Q 3884 1459 3188 1459 
z
" transform="scale(0.015625)"/>
        <path id="MalgunGothic-90f" d="M 4884 -563 
L 4884 5466 
L 5350 5466 
L 5350 -563 
L 4884 -563 
z
M 3775 909 
Q 3228 1338 2822 1881 
Q 2416 2425 2297 2859 
Q 2178 2397 1756 1814 
Q 1334 1231 825 825 
L 475 1147 
Q 1191 1638 1625 2425 
Q 2059 3213 2059 4019 
L 2059 4525 
L 716 4525 
L 716 4941 
L 3884 4941 
L 3884 4525 
L 2528 4525 
L 2528 4038 
Q 2528 3238 2968 2459 
Q 3409 1681 4097 1269 
L 3775 909 
z
" transform="scale(0.015625)"/>
        <path id="MalgunGothic-41c" d="M 1409 3419 
L 1409 5338 
L 1875 5338 
L 1875 3834 
L 5178 3834 
L 5178 3419 
L 1409 3419 
z
M 403 2344 
L 403 2759 
L 5997 2759 
L 5997 2344 
L 403 2344 
z
M 3200 -488 
Q 2256 -488 1745 -186 
Q 1234 116 1234 634 
Q 1234 1150 1745 1451 
Q 2256 1753 3200 1753 
Q 4144 1753 4655 1451 
Q 5166 1150 5166 634 
Q 5166 116 4655 -186 
Q 4144 -488 3200 -488 
z
M 3200 1356 
Q 2478 1356 2103 1161 
Q 1728 966 1728 634 
Q 1728 303 2100 106 
Q 2472 -91 3200 -91 
Q 3925 -91 4298 106 
Q 4672 303 4672 634 
Q 4672 969 4297 1162 
Q 3922 1356 3200 1356 
z
" transform="scale(0.015625)"/>
       </defs>
       <use xlink:href="#MalgunGothic-889"/>
       <use xlink:href="#MalgunGothic-2d3" transform="translate(100 0)"/>
       <use xlink:href="#MalgunGothic-90f" transform="translate(200 0)"/>
       <use xlink:href="#MalgunGothic-41c" transform="translate(300 0)"/>
      </g>
     </g>
    </g>
    <g id="ytick_6">
     <g id="line2d_22">
      <g>
       <use xlink:href="#m5e8d945528" x="78.761953" y="127.784975" style="stroke: #000000; stroke-width: 0.8"/>
      </g>
     </g>
     <g id="text_15">
      <!-- 개발 -->
      <g transform="translate(51.761953 132.055288) scale(0.1 -0.1)">
       <defs>
        <path id="MalgunGothic-28e" d="M 5038 -563 
L 5038 2431 
L 4288 2431 
L 4288 -378 
L 3828 -378 
L 3828 5344 
L 4288 5344 
L 4288 2847 
L 5038 2847 
L 5038 5466 
L 5503 5466 
L 5503 -563 
L 5038 -563 
z
M 3078 4941 
Q 2981 2394 813 878 
L 441 1197 
Q 1263 1634 1891 2575 
Q 2519 3516 2584 4531 
L 800 4531 
L 800 4941 
L 3078 4941 
z
" transform="scale(0.015625)"/>
        <path id="MalgunGothic-608" d="M 5125 3584 
L 5125 2400 
L 4666 2400 
L 4666 5466 
L 5125 5466 
L 5125 4000 
L 6034 4000 
L 6034 3584 
L 5125 3584 
z
M 756 2725 
L 756 5259 
L 1216 5259 
L 1216 4319 
L 3059 4319 
L 3059 5259 
L 3519 5259 
L 3519 2725 
L 756 2725 
z
M 3059 3916 
L 1216 3916 
L 1216 3128 
L 3059 3128 
L 3059 3916 
z
M 1447 -488 
L 1447 991 
L 4666 991 
L 4666 1656 
L 1447 1656 
L 1447 2069 
L 5125 2069 
L 5125 603 
L 1906 603 
L 1906 -78 
L 5294 -78 
L 5294 -488 
L 1447 -488 
z
" transform="scale(0.015625)"/>
       </defs>
       <use xlink:href="#MalgunGothic-28e"/>
       <use xlink:href="#MalgunGothic-608" transform="translate(100 0)"/>
      </g>
     </g>
    </g>
    <g id="ytick_7">
     <g id="line2d_23">
      <g>
       <use xlink:href="#m5e8d945528" x="78.761953" y="144.102243" style="stroke: #000000; stroke-width: 0.8"/>
      </g>
     </g>
     <g id="text_16">
      <!-- 챗gpt -->
      <g transform="translate(46.288516 148.372556) scale(0.1 -0.1)">
       <defs>
        <path id="MalgunGothic-97f" d="M 5056 1650 
L 5056 3297 
L 4353 3297 
L 4353 2059 
L 3891 2059 
L 3891 5344 
L 4353 5344 
L 4353 3719 
L 5056 3719 
L 5056 5466 
L 5522 5466 
L 5522 1650 
L 5056 1650 
z
M 3256 2131 
Q 2881 2338 2545 2678 
Q 2209 3019 2094 3291 
Q 1969 2988 1628 2609 
Q 1288 2231 916 2003 
L 556 2344 
Q 1091 2563 1477 3063 
Q 1863 3563 1863 4084 
L 1863 4313 
L 763 4313 
L 763 4728 
L 1863 4728 
L 1863 5394 
L 2328 5394 
L 2328 4728 
L 3419 4728 
L 3419 4313 
L 2328 4313 
L 2328 4091 
Q 2328 3588 2687 3136 
Q 3047 2684 3584 2503 
L 3256 2131 
z
M 5631 -428 
Q 5000 -288 4392 121 
Q 3784 531 3519 984 
Q 3281 547 2675 129 
Q 2069 -288 1441 -428 
L 1147 -25 
Q 1984 91 2632 630 
Q 3281 1169 3291 1716 
L 3291 1881 
L 3756 1881 
L 3756 1722 
Q 3756 1188 4400 644 
Q 5044 100 5900 -25 
L 5631 -428 
z
" transform="scale(0.015625)"/>
        <path id="MalgunGothic-4a" d="M 3313 259 
Q 3313 -1547 1603 -1547 
Q 1003 -1547 538 -1313 
L 538 -806 
Q 1088 -1116 1600 -1116 
Q 2822 -1116 2822 194 
L 2822 559 
L 2809 559 
Q 2422 -78 1675 -78 
Q 1066 -78 691 362 
Q 316 803 316 1534 
Q 316 2375 722 2867 
Q 1128 3359 1816 3359 
Q 2484 3359 2809 2822 
L 2822 2822 
L 2822 3284 
L 3313 3284 
L 3313 259 
z
M 2822 1978 
Q 2822 2378 2547 2659 
Q 2272 2941 1878 2941 
Q 1384 2941 1101 2577 
Q 819 2213 819 1572 
Q 819 1016 1092 680 
Q 1366 344 1803 344 
Q 2247 344 2534 666 
Q 2822 988 2822 1478 
L 2822 1978 
z
" transform="scale(0.015625)"/>
        <path id="MalgunGothic-53" d="M 1034 481 
L 1034 -1513 
L 538 -1513 
L 538 3284 
L 1034 3284 
L 1034 2703 
L 1047 2703 
Q 1438 3359 2184 3359 
Q 2809 3359 3171 2920 
Q 3534 2481 3534 1738 
Q 3534 906 3126 414 
Q 2719 -78 2034 -78 
Q 1394 -78 1047 481 
L 1034 481 
z
M 1034 1331 
Q 1034 922 1307 633 
Q 1581 344 1991 344 
Q 2475 344 2751 716 
Q 3028 1088 3028 1753 
Q 3028 2300 2767 2620 
Q 2506 2941 2072 2941 
Q 1619 2941 1326 2619 
Q 1034 2297 1034 1806 
L 1034 1331 
z
" transform="scale(0.015625)"/>
        <path id="MalgunGothic-57" d="M 2031 31 
Q 1844 -72 1553 -72 
Q 706 -72 706 881 
L 706 2856 
L 138 2856 
L 138 3284 
L 706 3284 
L 706 4091 
L 1200 4250 
L 1200 3284 
L 2031 3284 
L 2031 2856 
L 1200 2856 
L 1200 972 
Q 1200 625 1315 487 
Q 1431 350 1691 350 
Q 1888 350 2031 459 
L 2031 31 
z
" transform="scale(0.015625)"/>
       </defs>
       <use xlink:href="#MalgunGothic-97f"/>
       <use xlink:href="#MalgunGothic-4a" transform="translate(100 0)"/>
       <use xlink:href="#MalgunGothic-53" transform="translate(160.203125 0)"/>
       <use xlink:href="#MalgunGothic-57" transform="translate(220.265625 0)"/>
      </g>
     </g>
    </g>
    <g id="ytick_8">
     <g id="line2d_24">
      <g>
       <use xlink:href="#m5e8d945528" x="78.761953" y="160.419512" style="stroke: #000000; stroke-width: 0.8"/>
      </g>
     </g>
     <g id="text_17">
      <!-- 활용 -->
      <g transform="translate(51.761953 164.738262) scale(0.1 -0.1)">
       <defs>
        <path id="MalgunGothic-b5b" d="M 609 4581 
L 609 4966 
L 2150 4966 
L 2150 5528 
L 2619 5528 
L 2619 4966 
L 4159 4966 
L 4159 4581 
L 609 4581 
z
M 5216 3122 
L 5216 1906 
L 4750 1906 
L 4750 5466 
L 5216 5466 
L 5216 3547 
L 6119 3547 
L 6119 3122 
L 5216 3122 
z
M 469 1978 
L 422 2363 
Q 844 2363 2150 2388 
L 2150 2803 
Q 1547 2841 1215 3053 
Q 884 3266 884 3578 
Q 884 3919 1284 4136 
Q 1684 4353 2388 4353 
Q 3091 4353 3487 4134 
Q 3884 3916 3884 3578 
Q 3884 3253 3551 3047 
Q 3219 2841 2613 2803 
L 2613 2400 
Q 3606 2416 4300 2463 
L 4347 2094 
Q 3831 2053 2412 2015 
Q 994 1978 469 1978 
z
M 2388 4000 
Q 1356 4000 1356 3578 
Q 1356 3156 2388 3156 
Q 3413 3156 3413 3578 
Q 3413 4000 2388 4000 
z
M 1472 -513 
L 1472 750 
L 4756 750 
L 4756 1216 
L 1472 1216 
L 1472 1600 
L 5216 1600 
L 5216 384 
L 1931 384 
L 1931 -128 
L 5381 -128 
L 5381 -513 
L 1472 -513 
z
" transform="scale(0.015625)"/>
        <path id="MalgunGothic-848" d="M 1900 3378 
Q 1288 3678 1288 4269 
Q 1288 4803 1784 5095 
Q 2281 5388 3200 5388 
Q 4119 5388 4616 5095 
Q 5113 4803 5113 4269 
Q 5113 3669 4494 3378 
L 4494 2522 
L 5997 2522 
L 5997 2106 
L 403 2106 
L 403 2522 
L 1900 2522 
L 1900 3378 
z
M 3200 4991 
Q 1772 4991 1772 4269 
Q 1772 3928 2126 3737 
Q 2481 3547 3200 3547 
Q 3919 3547 4273 3737 
Q 4628 3928 4628 4269 
Q 4628 4991 3200 4991 
z
M 2369 2522 
L 4025 2522 
L 4025 3225 
Q 3678 3150 3200 3150 
Q 2756 3150 2369 3231 
L 2369 2522 
z
M 3200 -531 
Q 2259 -531 1764 -234 
Q 1269 63 1269 581 
Q 1269 1106 1767 1404 
Q 2266 1703 3200 1703 
Q 4134 1703 4632 1404 
Q 5131 1106 5131 581 
Q 5131 63 4636 -234 
Q 4141 -531 3200 -531 
z
M 3200 1306 
Q 2484 1306 2118 1112 
Q 1753 919 1753 581 
Q 1753 244 2117 55 
Q 2481 -134 3200 -134 
Q 3916 -134 4281 55 
Q 4647 244 4647 581 
Q 4647 922 4280 1114 
Q 3913 1306 3200 1306 
z
" transform="scale(0.015625)"/>
       </defs>
       <use xlink:href="#MalgunGothic-b5b"/>
       <use xlink:href="#MalgunGothic-848" transform="translate(100 0)"/>
      </g>
     </g>
    </g>
    <g id="ytick_9">
     <g id="line2d_25">
      <g>
       <use xlink:href="#m5e8d945528" x="78.761953" y="176.73678" style="stroke: #000000; stroke-width: 0.8"/>
      </g>
     </g>
     <g id="text_18">
      <!-- 엑셀 -->
      <g transform="translate(51.761953 181.007092) scale(0.1 -0.1)">
       <defs>
        <path id="MalgunGothic-7ff" d="M 5056 2075 
L 5056 5466 
L 5522 5466 
L 5522 2075 
L 5056 2075 
z
M 3353 3578 
Q 3288 2991 2919 2667 
Q 2550 2344 1991 2344 
Q 1363 2344 986 2731 
Q 609 3119 609 3809 
Q 609 4503 990 4889 
Q 1372 5275 1991 5275 
Q 2566 5275 2939 4933 
Q 3313 4591 3359 3988 
L 4013 3988 
L 4013 5344 
L 4475 5344 
L 4475 2075 
L 4013 2075 
L 4013 3578 
L 3353 3578 
z
M 1991 4872 
Q 1563 4872 1306 4586 
Q 1050 4300 1050 3809 
Q 1050 3325 1304 3036 
Q 1559 2747 1991 2747 
Q 2416 2747 2670 3036 
Q 2925 3325 2925 3809 
Q 2925 4300 2669 4586 
Q 2413 4872 1991 4872 
z
M 5056 -563 
L 5056 1319 
L 1581 1319 
L 1581 1734 
L 5522 1734 
L 5522 -563 
L 5056 -563 
z
" transform="scale(0.015625)"/>
        <path id="MalgunGothic-702" d="M 5056 2425 
L 5056 5466 
L 5522 5466 
L 5522 2425 
L 5056 2425 
z
M 3975 2425 
L 3975 3884 
L 2994 3884 
L 2994 4306 
L 3975 4306 
L 3975 5344 
L 4434 5344 
L 4434 2425 
L 3975 2425 
z
M 3200 2625 
Q 2397 3081 2003 3847 
Q 1913 3544 1545 3134 
Q 1178 2725 781 2472 
L 447 2791 
Q 1041 3088 1403 3606 
Q 1766 4125 1766 4744 
L 1766 5253 
L 2222 5253 
L 2222 4744 
Q 2222 4175 2590 3690 
Q 2959 3206 3500 2969 
L 3200 2625 
z
M 1747 -422 
L 1747 1069 
L 5063 1069 
L 5063 1678 
L 1747 1678 
L 1747 2094 
L 5522 2094 
L 5522 666 
L 2216 666 
L 2216 -6 
L 5684 -6 
L 5684 -422 
L 1747 -422 
z
" transform="scale(0.015625)"/>
       </defs>
       <use xlink:href="#MalgunGothic-7ff"/>
       <use xlink:href="#MalgunGothic-702" transform="translate(100 0)"/>
      </g>
     </g>
    </g>
    <g id="ytick_10">
     <g id="line2d_26">
      <g>
       <use xlink:href="#m5e8d945528" x="78.761953" y="193.054048" style="stroke: #000000; stroke-width: 0.8"/>
      </g>
     </g>
     <g id="text_19">
      <!-- 제미나이 -->
      <g transform="translate(31.761953 197.324361) scale(0.1 -0.1)">
       <defs>
        <path id="MalgunGothic-8bf" d="M 5038 -563 
L 5038 5466 
L 5503 5466 
L 5503 -563 
L 5038 -563 
z
M 3944 -378 
L 3944 2975 
L 2894 2975 
L 2894 3391 
L 3944 3391 
L 3944 5344 
L 4403 5344 
L 4403 -378 
L 3944 -378 
z
M 3116 850 
Q 2306 1647 1984 2734 
Q 1881 2291 1529 1722 
Q 1178 1153 775 769 
L 409 1063 
Q 941 1438 1350 2248 
Q 1759 3059 1759 3834 
L 1759 4525 
L 634 4525 
L 634 4941 
L 3359 4941 
L 3359 4525 
L 2222 4525 
L 2222 3828 
Q 2222 3075 2589 2328 
Q 2956 1581 3469 1153 
L 3116 850 
z
" transform="scale(0.015625)"/>
        <path id="MalgunGothic-5f5" d="M 4884 -563 
L 4884 5466 
L 5350 5466 
L 5350 -563 
L 4884 -563 
z
M 819 1209 
L 819 4934 
L 3688 4934 
L 3688 1209 
L 819 1209 
z
M 3219 4525 
L 1288 4525 
L 1288 1619 
L 3219 1619 
L 3219 4525 
z
" transform="scale(0.015625)"/>
        <path id="MalgunGothic-39f" d="M 5094 2600 
L 5094 -563 
L 4628 -563 
L 4628 5466 
L 5094 5466 
L 5094 3016 
L 6138 3016 
L 6138 2600 
L 5094 2600 
z
M 4122 1375 
Q 3816 1300 3300 1279 
Q 2784 1259 844 1259 
L 844 4966 
L 1313 4966 
L 1313 1678 
L 2456 1672 
Q 3066 1672 3456 1698 
Q 3847 1725 4056 1766 
L 4122 1375 
z
" transform="scale(0.015625)"/>
       </defs>
       <use xlink:href="#MalgunGothic-8bf"/>
       <use xlink:href="#MalgunGothic-5f5" transform="translate(100 0)"/>
       <use xlink:href="#MalgunGothic-39f" transform="translate(200 0)"/>
       <use xlink:href="#MalgunGothic-887" transform="translate(300 0)"/>
      </g>
     </g>
    </g>
    <g id="ytick_11">
     <g id="line2d_27">
      <g>
       <use xlink:href="#m5e8d945528" x="78.761953" y="209.371316" style="stroke: #000000; stroke-width: 0.8"/>
      </g>
     </g>
     <g id="text_20">
      <!-- 만들기 -->
      <g transform="translate(41.761953 213.641629) scale(0.1 -0.1)">
       <defs>
        <path id="MalgunGothic-583" d="M 5125 3169 
L 5125 1056 
L 4659 1056 
L 4659 5466 
L 5125 5466 
L 5125 3591 
L 6034 3591 
L 6034 3169 
L 5125 3169 
z
M 763 2241 
L 763 5100 
L 3513 5100 
L 3513 2241 
L 763 2241 
z
M 3053 4684 
L 1222 4684 
L 1222 2656 
L 3053 2656 
L 3053 4684 
z
M 1459 -331 
L 1459 1581 
L 1925 1581 
L 1925 91 
L 5294 91 
L 5294 -331 
L 1459 -331 
z
" transform="scale(0.015625)"/>
        <path id="MalgunGothic-49a" d="M 1344 3506 
L 1344 5331 
L 5081 5331 
L 5081 4934 
L 1806 4934 
L 1806 3903 
L 5153 3903 
L 5153 3506 
L 1344 3506 
z
M 403 2484 
L 403 2881 
L 5997 2881 
L 5997 2484 
L 403 2484 
z
M 1313 -488 
L 1313 878 
L 4616 878 
L 4616 1472 
L 1313 1472 
L 1313 1869 
L 5075 1869 
L 5075 506 
L 1772 506 
L 1772 -91 
L 5234 -91 
L 5234 -488 
L 1313 -488 
z
" transform="scale(0.015625)"/>
        <path id="MalgunGothic-31b" d="M 4884 -563 
L 4884 5466 
L 5350 5466 
L 5350 -563 
L 4884 -563 
z
M 3675 4909 
Q 3653 3656 2956 2611 
Q 2259 1566 959 844 
L 603 1222 
Q 1559 1619 2293 2478 
Q 3028 3338 3175 4494 
L 850 4494 
L 850 4909 
L 3675 4909 
z
" transform="scale(0.015625)"/>
       </defs>
       <use xlink:href="#MalgunGothic-583"/>
       <use xlink:href="#MalgunGothic-49a" transform="translate(100 0)"/>
       <use xlink:href="#MalgunGothic-31b" transform="translate(200 0)"/>
      </g>
     </g>
    </g>
    <g id="ytick_12">
     <g id="line2d_28">
      <g>
       <use xlink:href="#m5e8d945528" x="78.761953" y="225.688585" style="stroke: #000000; stroke-width: 0.8"/>
      </g>
     </g>
     <g id="text_21">
      <!-- 게임 -->
      <g transform="translate(51.761953 229.958897) scale(0.1 -0.1)">
       <defs>
        <path id="MalgunGothic-2af" d="M 5044 -563 
L 5044 5466 
L 5509 5466 
L 5509 -563 
L 5044 -563 
z
M 3938 -366 
L 3938 2859 
L 2797 2859 
L 2797 3278 
L 3938 3278 
L 3938 5344 
L 4397 5344 
L 4397 -366 
L 3938 -366 
z
M 3078 4941 
Q 2981 2394 813 878 
L 441 1197 
Q 1263 1634 1891 2575 
Q 2519 3516 2584 4531 
L 800 4531 
L 800 4941 
L 3078 4941 
z
" transform="scale(0.015625)"/>
        <path id="MalgunGothic-88e" d="M 4947 2138 
L 4947 5466 
L 5416 5466 
L 5416 2138 
L 4947 2138 
z
M 2406 2419 
Q 1731 2419 1304 2825 
Q 878 3231 878 3853 
Q 878 4472 1304 4876 
Q 1731 5281 2406 5281 
Q 3081 5281 3512 4879 
Q 3944 4478 3944 3853 
Q 3944 3228 3514 2823 
Q 3084 2419 2406 2419 
z
M 2406 4878 
Q 1928 4878 1636 4593 
Q 1344 4309 1344 3853 
Q 1344 3391 1636 3106 
Q 1928 2822 2406 2822 
Q 2891 2822 3183 3109 
Q 3475 3397 3475 3853 
Q 3475 4303 3183 4590 
Q 2891 4878 2406 4878 
z
M 1703 -397 
L 1703 1806 
L 5416 1806 
L 5416 -397 
L 1703 -397 
z
M 4953 1394 
L 2163 1394 
L 2163 13 
L 4953 13 
L 4953 1394 
z
" transform="scale(0.015625)"/>
       </defs>
       <use xlink:href="#MalgunGothic-2af"/>
       <use xlink:href="#MalgunGothic-88e" transform="translate(100 0)"/>
      </g>
     </g>
    </g>
    <g id="ytick_13">
     <g id="line2d_29">
      <g>
       <use xlink:href="#m5e8d945528" x="78.761953" y="242.005853" style="stroke: #000000; stroke-width: 0.8"/>
      </g>
     </g>
     <g id="text_22">
      <!-- 생성형 -->
      <g transform="translate(41.761953 246.300384) scale(0.1 -0.1)">
       <defs>
        <path id="MalgunGothic-6e2" d="M 4991 1953 
L 4991 3463 
L 4288 3463 
L 4288 2113 
L 3822 2113 
L 3822 5344 
L 4288 5344 
L 4288 3866 
L 4991 3866 
L 4991 5466 
L 5459 5466 
L 5459 1953 
L 4991 1953 
z
M 3138 2406 
Q 2794 2603 2431 3009 
Q 2069 3416 1941 3725 
Q 1828 3369 1467 2930 
Q 1106 2491 716 2253 
L 384 2566 
Q 981 2881 1345 3442 
Q 1709 4003 1709 4616 
L 1709 5253 
L 2156 5253 
L 2156 4616 
Q 2156 4038 2536 3514 
Q 2916 2991 3444 2753 
L 3138 2406 
z
M 3488 -459 
Q 2538 -459 2008 -139 
Q 1478 181 1478 691 
Q 1478 1200 2008 1522 
Q 2538 1844 3488 1844 
Q 4444 1844 4973 1522 
Q 5503 1200 5503 691 
Q 5503 181 4973 -139 
Q 4444 -459 3488 -459 
z
M 3488 1447 
Q 2756 1447 2364 1233 
Q 1972 1019 1972 691 
Q 1972 359 2367 148 
Q 2763 -63 3488 -63 
Q 4209 -63 4607 146 
Q 5006 356 5006 691 
Q 5006 1022 4609 1234 
Q 4213 1447 3488 1447 
z
" transform="scale(0.015625)"/>
        <path id="MalgunGothic-6fd" d="M 4947 1984 
L 4947 3781 
L 3541 3781 
L 3541 4200 
L 4947 4200 
L 4947 5466 
L 5416 5466 
L 5416 1984 
L 4947 1984 
z
M 3653 2328 
Q 3244 2550 2831 2950 
Q 2419 3350 2253 3700 
Q 2075 3303 1659 2858 
Q 1244 2413 819 2175 
L 488 2497 
Q 1134 2806 1571 3393 
Q 2009 3981 2009 4628 
L 2009 5269 
L 2463 5269 
L 2463 4628 
Q 2463 4025 2916 3472 
Q 3369 2919 3969 2669 
L 3653 2328 
z
M 3566 -475 
Q 2622 -475 2108 -148 
Q 1594 178 1594 697 
Q 1594 1216 2106 1539 
Q 2619 1863 3566 1863 
Q 4513 1863 5025 1539 
Q 5538 1216 5538 697 
Q 5538 178 5023 -148 
Q 4509 -475 3566 -475 
z
M 3566 1466 
Q 2850 1466 2472 1248 
Q 2094 1031 2094 697 
Q 2094 359 2473 143 
Q 2853 -72 3566 -72 
Q 4275 -72 4656 142 
Q 5038 356 5038 697 
Q 5038 1034 4659 1250 
Q 4281 1466 3566 1466 
z
" transform="scale(0.015625)"/>
        <path id="MalgunGothic-b49" d="M 494 4306 
L 494 4716 
L 2028 4716 
L 2028 5497 
L 2491 5497 
L 2491 4716 
L 4025 4716 
L 4025 4306 
L 494 4306 
z
M 3950 2463 
L 3950 2875 
L 4947 2875 
L 4947 3541 
L 3950 3541 
L 3950 3944 
L 4947 3944 
L 4947 5466 
L 5416 5466 
L 5416 1778 
L 4947 1778 
L 4947 2463 
L 3950 2463 
z
M 2253 1959 
Q 1584 1959 1192 2257 
Q 800 2556 800 3009 
Q 800 3459 1189 3754 
Q 1578 4050 2259 4050 
Q 2934 4050 3323 3754 
Q 3713 3459 3713 3009 
Q 3713 2556 3320 2257 
Q 2928 1959 2253 1959 
z
M 2259 3653 
Q 1797 3653 1533 3475 
Q 1269 3297 1269 3009 
Q 1269 2722 1534 2539 
Q 1800 2356 2259 2356 
Q 2719 2356 2981 2539 
Q 3244 2722 3244 3009 
Q 3244 3294 2983 3473 
Q 2722 3653 2259 3653 
z
M 3481 -519 
Q 2519 -519 2001 -226 
Q 1484 66 1484 563 
Q 1484 1059 2000 1348 
Q 2516 1638 3481 1638 
Q 4456 1638 4967 1347 
Q 5478 1056 5478 563 
Q 5478 66 4964 -226 
Q 4450 -519 3481 -519 
z
M 3481 1241 
Q 2753 1241 2368 1062 
Q 1984 884 1984 563 
Q 1984 241 2364 59 
Q 2744 -122 3481 -122 
Q 4222 -122 4603 61 
Q 4984 244 4984 563 
Q 4984 884 4598 1062 
Q 4213 1241 3481 1241 
z
" transform="scale(0.015625)"/>
       </defs>
       <use xlink:href="#MalgunGothic-6e2"/>
       <use xlink:href="#MalgunGothic-6fd" transform="translate(100 0)"/>
       <use xlink:href="#MalgunGothic-b49" transform="translate(200 0)"/>
      </g>
     </g>
    </g>
    <g id="ytick_14">
     <g id="line2d_30">
      <g>
       <use xlink:href="#m5e8d945528" x="78.761953" y="258.323121" style="stroke: #000000; stroke-width: 0.8"/>
      </g>
     </g>
     <g id="text_23">
      <!-- 파이썬 -->
      <g transform="translate(41.761953 262.593434) scale(0.1 -0.1)">
       <defs>
        <path id="MalgunGothic-ab3" d="M 5141 2663 
L 5131 -563 
L 4666 -563 
L 4666 5466 
L 5141 5466 
L 5141 3078 
L 6150 3078 
L 6150 2663 
L 5141 2663 
z
M 538 4531 
L 538 4941 
L 4000 4941 
L 4000 4531 
L 538 4531 
z
M 4325 1141 
Q 3878 1050 3353 1050 
L 319 1050 
L 319 1466 
L 1253 1466 
L 1197 4091 
L 1656 4091 
L 1722 1466 
L 2828 1466 
L 2888 4091 
L 3347 4091 
L 3284 1466 
Q 4000 1466 4281 1538 
L 4325 1141 
z
" transform="scale(0.015625)"/>
        <path id="MalgunGothic-784" d="M 4884 1178 
L 4884 3525 
L 3822 3525 
L 3822 3944 
L 4884 3944 
L 4884 5466 
L 5350 5466 
L 5350 1178 
L 4884 1178 
z
M 2188 2675 
Q 1678 3175 1528 3628 
Q 1375 2984 697 2297 
L 319 2541 
Q 772 2938 1033 3492 
Q 1294 4047 1294 4634 
L 1294 5203 
L 1734 5203 
L 1734 4628 
Q 1734 3694 2419 3047 
Q 2828 3772 2828 4653 
L 2828 5203 
L 3278 5203 
L 3278 4653 
Q 3278 3244 4378 2450 
L 4044 2150 
Q 3750 2363 3450 2753 
Q 3150 3144 3053 3450 
Q 2841 2691 2100 1925 
L 1734 2156 
Q 1966 2363 2188 2675 
z
M 1638 -366 
L 1638 1581 
L 2113 1581 
L 2113 44 
L 5509 44 
L 5509 -366 
L 1638 -366 
z
" transform="scale(0.015625)"/>
       </defs>
       <use xlink:href="#MalgunGothic-ab3"/>
       <use xlink:href="#MalgunGothic-887" transform="translate(100 0)"/>
       <use xlink:href="#MalgunGothic-784" transform="translate(200 0)"/>
      </g>
     </g>
    </g>
    <g id="ytick_15">
     <g id="line2d_31">
      <g>
       <use xlink:href="#m5e8d945528" x="78.761953" y="274.640389" style="stroke: #000000; stroke-width: 0.8"/>
      </g>
     </g>
     <g id="text_24">
      <!-- 코드 -->
      <g transform="translate(51.761953 278.639413) scale(0.1 -0.1)">
       <defs>
        <path id="MalgunGothic-496" d="M 5050 4488 
L 1819 4488 
L 1819 2613 
L 5147 2613 
L 5147 2194 
L 1350 2194 
L 1350 4903 
L 5050 4903 
L 5050 4488 
z
M 403 481 
L 403 897 
L 5997 897 
L 5997 481 
L 403 481 
z
" transform="scale(0.015625)"/>
       </defs>
       <use xlink:href="#MalgunGothic-a0d"/>
       <use xlink:href="#MalgunGothic-496" transform="translate(100 0)"/>
      </g>
     </g>
    </g>
    <g id="ytick_16">
     <g id="line2d_32">
      <g>
       <use xlink:href="#m5e8d945528" x="78.761953" y="290.957658" style="stroke: #000000; stroke-width: 0.8"/>
      </g>
     </g>
     <g id="text_25">
      <!-- 클로드 -->
      <g transform="translate(41.761953 295.117814) scale(0.1 -0.1)">
       <defs>
        <path id="MalgunGothic-a3d" d="M 403 2675 
L 403 3084 
L 4659 3084 
Q 4669 3100 4697 3891 
L 1209 3713 
L 1081 4141 
L 4703 4269 
L 4709 4634 
L 4709 4922 
L 1344 4922 
L 1344 5325 
L 5178 5325 
Q 5178 3819 5106 3084 
L 5997 3084 
L 5997 2675 
L 403 2675 
z
M 1331 -384 
L 1331 1088 
L 4634 1088 
L 4634 1663 
L 1331 1663 
L 1331 2081 
L 5094 2081 
L 5094 678 
L 1791 678 
L 1791 25 
L 5259 25 
L 5259 -384 
L 1331 -384 
z
" transform="scale(0.015625)"/>
        <path id="MalgunGothic-53b" d="M 1247 3641 
L 4659 3641 
L 4659 4531 
L 1259 4531 
L 1259 4941 
L 5125 4941 
L 5125 3238 
L 1722 3238 
L 1722 2241 
L 5300 2241 
L 5300 1825 
L 3438 1825 
L 3438 728 
L 5997 728 
L 5997 313 
L 403 313 
L 403 728 
L 2969 728 
L 2969 1825 
L 1247 1825 
L 1247 3641 
z
" transform="scale(0.015625)"/>
       </defs>
       <use xlink:href="#MalgunGothic-a3d"/>
       <use xlink:href="#MalgunGothic-53b" transform="translate(100 0)"/>
       <use xlink:href="#MalgunGothic-496" transform="translate(200 0)"/>
      </g>
     </g>
    </g>
    <g id="ytick_17">
     <g id="line2d_33">
      <g>
       <use xlink:href="#m5e8d945528" x="78.761953" y="307.274926" style="stroke: #000000; stroke-width: 0.8"/>
      </g>
     </g>
     <g id="text_26">
      <!-- 구글 -->
      <g transform="translate(51.761953 311.391332) scale(0.1 -0.1)">
       <defs>
        <path id="MalgunGothic-2f1" d="M 2913 -563 
L 2913 2228 
L 403 2228 
L 403 2650 
L 4594 2650 
Q 4666 3391 4666 4788 
L 1313 4788 
L 1313 5203 
L 5131 5203 
Q 5131 3656 5044 2650 
L 5997 2650 
L 5997 2228 
L 3378 2228 
L 3378 -563 
L 2913 -563 
z
" transform="scale(0.015625)"/>
        <path id="MalgunGothic-314" d="M 403 2834 
L 403 3250 
L 4594 3250 
Q 4634 3584 4634 4850 
L 1338 4850 
L 1338 5269 
L 5100 5269 
Q 5100 3853 5050 3250 
L 5997 3250 
L 5997 2834 
L 403 2834 
z
M 1356 -384 
L 1356 1113 
L 4609 1100 
L 4609 1747 
L 1356 1747 
L 1356 2163 
L 5069 2163 
L 5069 703 
L 1819 703 
L 1819 25 
L 5234 25 
L 5234 -384 
L 1356 -384 
z
" transform="scale(0.015625)"/>
       </defs>
       <use xlink:href="#MalgunGothic-2f1"/>
       <use xlink:href="#MalgunGothic-314" transform="translate(100 0)"/>
      </g>
     </g>
    </g>
    <g id="ytick_18">
     <g id="line2d_34">
      <g>
       <use xlink:href="#m5e8d945528" x="78.761953" y="323.592194" style="stroke: #000000; stroke-width: 0.8"/>
      </g>
     </g>
     <g id="text_27">
      <!-- 설계 -->
      <g transform="translate(51.761953 327.862507) scale(0.1 -0.1)">
       <defs>
        <path id="MalgunGothic-6f6" d="M 4878 2450 
L 4878 3969 
L 3469 3969 
L 3469 4391 
L 4878 4391 
L 4878 5466 
L 5344 5466 
L 5344 2450 
L 4878 2450 
z
M 3653 2663 
Q 3266 2828 2845 3203 
Q 2425 3578 2241 3938 
Q 1884 3125 800 2509 
L 469 2822 
Q 1178 3159 1590 3681 
Q 2003 4203 2003 4813 
L 2003 5331 
L 2456 5331 
L 2456 4813 
Q 2456 4219 2907 3717 
Q 3359 3216 3969 3003 
L 3653 2663 
z
M 1631 -422 
L 1631 1069 
L 4884 1069 
L 4884 1716 
L 1631 1716 
L 1631 2131 
L 5344 2131 
L 5344 666 
L 2094 666 
L 2094 -6 
L 5509 -6 
L 5509 -422 
L 1631 -422 
z
" transform="scale(0.015625)"/>
       </defs>
       <use xlink:href="#MalgunGothic-6f6"/>
       <use xlink:href="#MalgunGothic-2c3" transform="translate(100 0)"/>
      </g>
     </g>
    </g>
    <g id="ytick_19">
     <g id="line2d_35">
      <g>
       <use xlink:href="#m5e8d945528" x="78.761953" y="339.909462" style="stroke: #000000; stroke-width: 0.8"/>
      </g>
     </g>
     <g id="text_28">
      <!-- 프롬프트 -->
      <g transform="translate(31.761953 344.074306) scale(0.1 -0.1)">
       <defs>
        <path id="MalgunGothic-b0e" d="M 997 4891 
L 5403 4891 
L 5403 4475 
L 997 4475 
L 997 4891 
z
M 4459 2463 
L 5478 2463 
L 5478 2053 
L 922 2053 
L 922 2463 
L 1925 2463 
L 1850 4159 
L 2309 4159 
L 2388 2463 
L 4000 2463 
L 4091 4159 
L 4550 4159 
L 4459 2463 
z
M 403 397 
L 403 813 
L 5997 813 
L 5997 397 
L 403 397 
z
" transform="scale(0.015625)"/>
        <path id="MalgunGothic-53f" d="M 403 1900 
L 403 2316 
L 2963 2316 
L 2963 2938 
L 1344 2938 
L 1344 4353 
L 4594 4353 
L 4594 4922 
L 1344 4922 
L 1344 5331 
L 5056 5331 
L 5056 3944 
L 1806 3944 
L 1806 3347 
L 5197 3347 
L 5197 2938 
L 3438 2938 
L 3438 2316 
L 5997 2316 
L 5997 1900 
L 403 1900 
z
M 1325 -447 
L 1325 1416 
L 5075 1416 
L 5075 -447 
L 1325 -447 
z
M 4616 1006 
L 1784 1006 
L 1784 -31 
L 4616 -31 
L 4616 1006 
z
" transform="scale(0.015625)"/>
       </defs>
       <use xlink:href="#MalgunGothic-b0e"/>
       <use xlink:href="#MalgunGothic-53f" transform="translate(100 0)"/>
       <use xlink:href="#MalgunGothic-b0e" transform="translate(200 0)"/>
       <use xlink:href="#MalgunGothic-a9d" transform="translate(300 0)"/>
      </g>
     </g>
    </g>
    <g id="ytick_20">
     <g id="line2d_36">
      <g>
       <use xlink:href="#m5e8d945528" x="78.761953" y="356.22673" style="stroke: #000000; stroke-width: 0.8"/>
      </g>
     </g>
     <g id="text_29">
      <!-- 데이터 -->
      <g transform="translate(41.761953 360.497043) scale(0.1 -0.1)">
       <defs>
        <path id="MalgunGothic-456" d="M 5044 -563 
L 5044 5466 
L 5509 5466 
L 5509 -563 
L 5044 -563 
z
M 3897 -366 
L 3897 2859 
L 2650 2859 
L 2650 3272 
L 3897 3272 
L 3897 5344 
L 4359 5344 
L 4359 -366 
L 3897 -366 
z
M 3359 1094 
Q 2766 1019 909 1019 
L 909 4966 
L 3138 4966 
L 3138 4550 
L 1369 4550 
L 1369 1428 
Q 2897 1428 3328 1491 
L 3359 1094 
z
" transform="scale(0.015625)"/>
        <path id="MalgunGothic-a5e" d="M 4891 -563 
L 4891 2516 
L 3706 2516 
L 3706 2925 
L 4891 2925 
L 4891 5466 
L 5356 5466 
L 5356 -563 
L 4891 -563 
z
M 1422 2816 
L 1422 1331 
L 2144 1331 
Q 3525 1331 4141 1409 
L 4172 1006 
Q 3694 950 3141 936 
Q 2588 922 953 922 
L 953 4953 
L 3841 4953 
L 3841 4531 
L 1422 4531 
L 1422 3219 
L 3181 3219 
L 3181 2816 
L 1422 2816 
z
" transform="scale(0.015625)"/>
       </defs>
       <use xlink:href="#MalgunGothic-456"/>
       <use xlink:href="#MalgunGothic-887" transform="translate(100 0)"/>
       <use xlink:href="#MalgunGothic-a5e" transform="translate(200 0)"/>
      </g>
     </g>
    </g>
    <g id="ytick_21">
     <g id="line2d_37">
      <g>
       <use xlink:href="#m5e8d945528" x="78.761953" y="372.543999" style="stroke: #000000; stroke-width: 0.8"/>
      </g>
     </g>
     <g id="text_30">
      <!-- 입문 -->
      <g transform="translate(51.761953 376.814311) scale(0.1 -0.1)">
       <defs>
        <path id="MalgunGothic-88f" d="M 4947 2400 
L 4947 5466 
L 5416 5466 
L 5416 2400 
L 4947 2400 
z
M 2406 2559 
Q 1731 2559 1304 2959 
Q 878 3359 878 3969 
Q 878 4575 1303 4972 
Q 1728 5369 2406 5369 
Q 3081 5369 3509 4973 
Q 3938 4578 3938 3969 
Q 3938 3356 3508 2957 
Q 3078 2559 2406 2559 
z
M 2406 4966 
Q 1922 4966 1633 4689 
Q 1344 4413 1344 3969 
Q 1344 3522 1631 3242 
Q 1919 2963 2406 2963 
Q 2894 2963 3181 3242 
Q 3469 3522 3469 3969 
Q 3469 4413 3180 4689 
Q 2891 4966 2406 4966 
z
M 1709 -397 
L 1709 2069 
L 2169 2069 
L 2169 1203 
L 4953 1203 
L 4953 2069 
L 5416 2069 
L 5416 -397 
L 1709 -397 
z
M 4953 794 
L 2169 794 
L 2169 13 
L 4953 13 
L 4953 794 
z
" transform="scale(0.015625)"/>
        <path id="MalgunGothic-5d7" d="M 1344 3097 
L 1344 5247 
L 5056 5247 
L 5056 3097 
L 1344 3097 
z
M 4594 4831 
L 1806 4831 
L 1806 3506 
L 4594 3506 
L 4594 4831 
z
M 3009 744 
L 3009 1984 
L 403 1984 
L 403 2400 
L 5997 2400 
L 5997 1984 
L 3469 1984 
L 3469 744 
L 3009 744 
z
M 1288 -372 
L 1288 1434 
L 1753 1434 
L 1753 44 
L 5203 44 
L 5203 -372 
L 1288 -372 
z
" transform="scale(0.015625)"/>
       </defs>
       <use xlink:href="#MalgunGothic-88f"/>
       <use xlink:href="#MalgunGothic-5d7" transform="translate(100 0)"/>
      </g>
     </g>
    </g>
    <g id="ytick_22">
     <g id="line2d_38">
      <g>
       <use xlink:href="#m5e8d945528" x="78.761953" y="388.861267" style="stroke: #000000; stroke-width: 0.8"/>
      </g>
     </g>
     <g id="text_31">
      <!-- 시스템 -->
      <g transform="translate(41.761953 393.131579) scale(0.1 -0.1)">
       <defs>
        <path id="MalgunGothic-764" d="M 4947 -563 
L 4947 5466 
L 5416 5466 
L 5416 -563 
L 4947 -563 
z
M 3769 966 
Q 3263 1353 2820 1939 
Q 2378 2525 2259 2950 
Q 2116 2463 1687 1872 
Q 1259 1281 756 891 
L 397 1203 
Q 1141 1703 1581 2479 
Q 2022 3256 2022 4063 
L 2022 5050 
L 2484 5050 
L 2484 4084 
Q 2484 3303 2920 2556 
Q 3356 1809 4097 1331 
L 3769 966 
z
" transform="scale(0.015625)"/>
        <path id="MalgunGothic-75b" d="M 3194 3897 
Q 2969 3416 2328 2930 
Q 1688 2444 959 2247 
L 641 2619 
Q 1703 2841 2329 3472 
Q 2956 4103 2956 4659 
L 2956 4978 
L 3438 4978 
L 3438 4659 
Q 3438 4094 4073 3476 
Q 4709 2859 5759 2625 
L 5428 2253 
Q 4694 2481 4058 2956 
Q 3422 3431 3194 3897 
z
M 5997 447 
L 403 447 
L 403 863 
L 5997 863 
L 5997 447 
z
" transform="scale(0.015625)"/>
        <path id="MalgunGothic-a6c" d="M 5056 2069 
L 5056 5466 
L 5522 5466 
L 5522 2069 
L 5056 2069 
z
M 3975 2069 
L 3975 3534 
L 3150 3534 
L 3150 3950 
L 3975 3950 
L 3975 5344 
L 4434 5344 
L 4434 2069 
L 3975 2069 
z
M 1434 3494 
L 1434 2688 
Q 2763 2688 3366 2753 
L 3397 2344 
Q 2553 2278 972 2278 
L 972 5159 
L 3278 5159 
L 3278 4750 
L 1434 4750 
L 1434 3897 
L 2772 3897 
L 2772 3494 
L 1434 3494 
z
M 1747 -397 
L 1747 1734 
L 5522 1734 
L 5522 -397 
L 1747 -397 
z
M 5063 1325 
L 2209 1325 
L 2209 13 
L 5063 13 
L 5063 1325 
z
" transform="scale(0.015625)"/>
       </defs>
       <use xlink:href="#MalgunGothic-764"/>
       <use xlink:href="#MalgunGothic-75b" transform="translate(100 0)"/>
       <use xlink:href="#MalgunGothic-a6c" transform="translate(200 0)"/>
      </g>
     </g>
    </g>
    <g id="ytick_23">
     <g id="line2d_39">
      <g>
       <use xlink:href="#m5e8d945528" x="78.761953" y="405.178535" style="stroke: #000000; stroke-width: 0.8"/>
      </g>
     </g>
     <g id="text_32">
      <!-- 바이브 -->
      <g transform="translate(41.761953 409.448848) scale(0.1 -0.1)">
       <defs>
        <path id="MalgunGothic-602" d="M 5094 2631 
L 5094 -563 
L 4628 -563 
L 4628 5466 
L 5094 5466 
L 5094 3047 
L 6138 3047 
L 6138 2631 
L 5094 2631 
z
M 788 1081 
L 788 5013 
L 1247 5013 
L 1247 3400 
L 3206 3400 
L 3206 5013 
L 3669 5013 
L 3669 1081 
L 788 1081 
z
M 3206 2988 
L 1247 2988 
L 1247 1497 
L 3206 1497 
L 3206 2988 
z
" transform="scale(0.015625)"/>
        <path id="MalgunGothic-671" d="M 1338 2131 
L 1338 4941 
L 1806 4941 
L 1806 3975 
L 4594 3975 
L 4594 4941 
L 5063 4941 
L 5063 2131 
L 1338 2131 
z
M 4594 3553 
L 1806 3553 
L 1806 2553 
L 4594 2553 
L 4594 3553 
z
M 403 447 
L 403 872 
L 5997 872 
L 5997 447 
L 403 447 
z
" transform="scale(0.015625)"/>
       </defs>
       <use xlink:href="#MalgunGothic-602"/>
       <use xlink:href="#MalgunGothic-887" transform="translate(100 0)"/>
       <use xlink:href="#MalgunGothic-671" transform="translate(200 0)"/>
      </g>
     </g>
    </g>
    <g id="ytick_24">
     <g id="line2d_40">
      <g>
       <use xlink:href="#m5e8d945528" x="78.761953" y="421.495803" style="stroke: #000000; stroke-width: 0.8"/>
      </g>
     </g>
     <g id="text_33">
      <!-- 된다 -->
      <g transform="translate(51.761953 425.766116) scale(0.1 -0.1)">
       <defs>
        <path id="MalgunGothic-479" d="M 4897 966 
L 4897 5466 
L 5363 5466 
L 5363 966 
L 4897 966 
z
M 4434 1791 
Q 2453 1678 616 1678 
L 550 2119 
Q 1338 2119 2350 2131 
L 2350 2994 
L 1081 2994 
L 1081 5094 
L 3963 5094 
L 3963 4672 
L 1550 4672 
L 1550 3413 
L 4031 3413 
L 4031 2994 
L 2816 2994 
L 2816 2138 
Q 4022 2169 4397 2209 
L 4434 1791 
z
M 1509 -422 
L 1509 1216 
L 1978 1216 
L 1978 -6 
L 5544 -6 
L 5544 -422 
L 1509 -422 
z
" transform="scale(0.015625)"/>
        <path id="MalgunGothic-42c" d="M 5094 2669 
L 5094 -563 
L 4628 -563 
L 4628 5466 
L 5094 5466 
L 5094 3091 
L 6156 3091 
L 6156 2669 
L 5094 2669 
z
M 4050 1234 
Q 3538 1172 3003 1159 
Q 2469 1147 838 1147 
L 838 4934 
L 3653 4934 
L 3653 4519 
L 1306 4519 
L 1306 1563 
Q 3566 1563 4013 1638 
L 4050 1234 
z
" transform="scale(0.015625)"/>
       </defs>
       <use xlink:href="#MalgunGothic-479"/>
       <use xlink:href="#MalgunGothic-42c" transform="translate(100 0)"/>
      </g>
     </g>
    </g>
    <g id="ytick_25">
     <g id="line2d_41">
      <g>
       <use xlink:href="#m5e8d945528" x="78.761953" y="437.813072" style="stroke: #000000; stroke-width: 0.8"/>
      </g>
     </g>
     <g id="text_34">
      <!-- 업무 -->
      <g transform="translate(51.761953 442.077915) scale(0.1 -0.1)">
       <defs>
        <path id="MalgunGothic-7f6" d="M 3928 3744 
Q 3847 3181 3422 2842 
Q 2997 2503 2400 2503 
Q 1734 2503 1306 2918 
Q 878 3334 878 3950 
Q 878 4559 1303 4976 
Q 1728 5394 2400 5394 
Q 2994 5394 3419 5055 
Q 3844 4716 3922 4159 
L 4959 4159 
L 4959 5459 
L 5428 5459 
L 5428 2431 
L 4959 2431 
L 4959 3744 
L 3928 3744 
z
M 2400 4991 
Q 1928 4991 1633 4697 
Q 1338 4403 1338 3950 
Q 1338 3488 1630 3194 
Q 1922 2900 2400 2900 
Q 2884 2900 3176 3194 
Q 3469 3488 3469 3950 
Q 3469 4403 3173 4697 
Q 2878 4991 2400 4991 
z
M 1709 -422 
L 1709 2100 
L 2169 2100 
L 2169 1184 
L 4966 1184 
L 4966 2100 
L 5428 2100 
L 5428 -422 
L 1709 -422 
z
M 4966 775 
L 2169 775 
L 2169 -6 
L 4966 -6 
L 4966 775 
z
" transform="scale(0.015625)"/>
        <path id="MalgunGothic-5d4" d="M 1331 2919 
L 1331 5247 
L 5063 5247 
L 5063 2919 
L 1331 2919 
z
M 4603 4831 
L 1791 4831 
L 1791 3334 
L 4603 3334 
L 4603 4831 
z
M 3438 1691 
L 3438 -563 
L 2963 -563 
L 2963 1691 
L 403 1691 
L 403 2106 
L 5997 2106 
L 5997 1691 
L 3438 1691 
z
" transform="scale(0.015625)"/>
       </defs>
       <use xlink:href="#MalgunGothic-7f6"/>
       <use xlink:href="#MalgunGothic-5d4" transform="translate(100 0)"/>
      </g>
     </g>
    </g>
    <g id="ytick_26">
     <g id="line2d_42">
      <g>
       <use xlink:href="#m5e8d945528" x="78.761953" y="454.13034" style="stroke: #000000; stroke-width: 0.8"/>
      </g>
     </g>
     <g id="text_35">
      <!-- 영상 -->
      <g transform="translate(51.761953 458.400652) scale(0.1 -0.1)">
       <defs>
        <path id="MalgunGothic-812" d="M 3669 2816 
Q 3209 2247 2406 2247 
Q 1731 2247 1284 2676 
Q 838 3106 838 3781 
Q 838 4459 1284 4895 
Q 1731 5331 2406 5331 
Q 3231 5331 3694 4722 
L 4959 4722 
L 4959 5466 
L 5428 5466 
L 5428 1913 
L 4959 1913 
L 4959 2816 
L 3669 2816 
z
M 2406 4922 
Q 1919 4922 1609 4606 
Q 1300 4291 1300 3781 
Q 1300 3275 1609 2965 
Q 1919 2656 2406 2656 
Q 2894 2656 3206 2961 
Q 3519 3266 3519 3781 
Q 3519 4300 3206 4611 
Q 2894 4922 2406 4922 
z
M 3891 3225 
L 4959 3225 
L 4959 4313 
L 3903 4313 
Q 3988 4066 3988 3781 
Q 3988 3516 3891 3225 
z
M 3616 -506 
Q 2669 -506 2156 -182 
Q 1644 141 1644 659 
Q 1644 1178 2156 1501 
Q 2669 1825 3616 1825 
Q 4563 1825 5075 1500 
Q 5588 1175 5588 659 
Q 5588 144 5075 -181 
Q 4563 -506 3616 -506 
z
M 3616 1428 
Q 2909 1428 2523 1214 
Q 2138 1000 2138 659 
Q 2138 319 2523 105 
Q 2909 -109 3616 -109 
Q 4325 -109 4706 105 
Q 5088 319 5088 659 
Q 5088 1000 4706 1214 
Q 4325 1428 3616 1428 
z
" transform="scale(0.015625)"/>
        <path id="MalgunGothic-6d8" d="M 5125 3391 
L 5125 1991 
L 4659 1991 
L 4659 5466 
L 5125 5466 
L 5125 3816 
L 6034 3816 
L 6034 3391 
L 5125 3391 
z
M 3603 2316 
Q 3206 2528 2778 2934 
Q 2350 3341 2188 3681 
Q 2022 3291 1609 2852 
Q 1197 2413 750 2163 
L 409 2484 
Q 1072 2806 1512 3397 
Q 1953 3988 1953 4628 
L 1953 5259 
L 2400 5259 
L 2400 4628 
Q 2400 4025 2845 3472 
Q 3291 2919 3909 2656 
L 3603 2316 
z
M 3263 -513 
Q 2322 -513 1811 -186 
Q 1300 141 1300 659 
Q 1300 1175 1812 1500 
Q 2325 1825 3263 1825 
Q 4203 1825 4715 1501 
Q 5228 1178 5228 659 
Q 5228 138 4717 -187 
Q 4206 -513 3263 -513 
z
M 3263 1428 
Q 2563 1428 2180 1215 
Q 1797 1003 1797 659 
Q 1797 309 2181 96 
Q 2566 -116 3263 -116 
Q 3969 -116 4353 98 
Q 4738 313 4738 659 
Q 4738 1000 4353 1214 
Q 3969 1428 3263 1428 
z
" transform="scale(0.015625)"/>
       </defs>
       <use xlink:href="#MalgunGothic-812"/>
       <use xlink:href="#MalgunGothic-6d8" transform="translate(100 0)"/>
      </g>
     </g>
    </g>
    <g id="ytick_27">
     <g id="line2d_43">
      <g>
       <use xlink:href="#m5e8d945528" x="78.761953" y="470.447608" style="stroke: #000000; stroke-width: 0.8"/>
      </g>
     </g>
     <g id="text_36">
      <!-- ai와 -->
      <g transform="translate(54.101016 474.717921) scale(0.1 -0.1)">
       <defs>
        <path id="MalgunGothic-82a" d="M 5203 2600 
L 5203 -563 
L 4738 -563 
L 4738 5466 
L 5203 5466 
L 5203 3016 
L 6188 3016 
L 6188 2600 
L 5203 2600 
z
M 2572 2138 
L 2572 959 
Q 3872 991 4353 1025 
L 4378 622 
Q 3956 588 2537 553 
Q 1119 519 378 519 
L 325 934 
Q 1281 934 2106 953 
L 2106 2131 
Q 1466 2203 1094 2601 
Q 722 3000 722 3572 
Q 722 4213 1187 4616 
Q 1653 5019 2350 5019 
Q 3038 5019 3477 4619 
Q 3916 4219 3916 3572 
Q 3916 2997 3556 2611 
Q 3197 2225 2572 2138 
z
M 2316 4609 
Q 1825 4609 1514 4321 
Q 1203 4034 1203 3572 
Q 1203 3116 1515 2825 
Q 1828 2534 2316 2534 
Q 2806 2534 3122 2826 
Q 3438 3119 3438 3572 
Q 3438 4031 3125 4320 
Q 2813 4609 2316 4609 
z
" transform="scale(0.015625)"/>
       </defs>
       <use xlink:href="#MalgunGothic-44"/>
       <use xlink:href="#MalgunGothic-4c" transform="translate(52 0)"/>
       <use xlink:href="#MalgunGothic-82a" transform="translate(76.609375 0)"/>
      </g>
     </g>
    </g>
    <g id="ytick_28">
     <g id="line2d_44">
      <g>
       <use xlink:href="#m5e8d945528" x="78.761953" y="486.764876" style="stroke: #000000; stroke-width: 0.8"/>
      </g>
     </g>
     <g id="text_37">
      <!-- 수업 -->
      <g transform="translate(51.761953 491.02972) scale(0.1 -0.1)">
       <defs>
        <path id="MalgunGothic-739" d="M 5491 2994 
Q 4750 3097 4078 3498 
Q 3406 3900 3200 4275 
Q 2975 3891 2309 3491 
Q 1644 3091 922 2956 
L 634 3347 
Q 1559 3450 2261 3942 
Q 2963 4434 2963 5013 
L 2963 5275 
L 3431 5275 
L 3431 5013 
Q 3431 4431 4118 3948 
Q 4806 3466 5766 3378 
L 5491 2994 
z
M 3431 1838 
L 3431 -563 
L 2963 -563 
L 2963 1838 
L 403 1838 
L 403 2253 
L 5997 2253 
L 5997 1838 
L 3431 1838 
z
" transform="scale(0.015625)"/>
       </defs>
       <use xlink:href="#MalgunGothic-739"/>
       <use xlink:href="#MalgunGothic-7f6" transform="translate(100 0)"/>
      </g>
     </g>
    </g>
    <g id="ytick_29">
     <g id="line2d_45">
      <g>
       <use xlink:href="#m5e8d945528" x="78.761953" y="503.082145" style="stroke: #000000; stroke-width: 0.8"/>
      </g>
     </g>
     <g id="text_38">
      <!-- 활용한 -->
      <g transform="translate(41.761953 507.400895) scale(0.1 -0.1)">
       <defs>
        <path id="MalgunGothic-b1e" d="M 5125 2713 
L 5125 978 
L 4659 978 
L 4659 5466 
L 5125 5466 
L 5125 3138 
L 6034 3138 
L 6034 2713 
L 5125 2713 
z
M 447 4244 
L 447 4659 
L 2003 4659 
L 2003 5441 
L 2478 5441 
L 2478 4659 
L 4031 4659 
L 4031 4244 
L 447 4244 
z
M 2241 1650 
Q 1559 1650 1161 1979 
Q 763 2309 763 2791 
Q 763 3266 1161 3594 
Q 1559 3922 2247 3922 
Q 2931 3922 3331 3595 
Q 3731 3269 3731 2791 
Q 3731 2316 3329 1983 
Q 2928 1650 2241 1650 
z
M 2247 3525 
Q 1772 3525 1497 3319 
Q 1222 3113 1222 2791 
Q 1222 2466 1498 2256 
Q 1775 2047 2247 2047 
Q 2719 2047 2995 2256 
Q 3272 2466 3272 2791 
Q 3272 3113 2997 3319 
Q 2722 3525 2247 3525 
z
M 1459 -453 
L 1459 1216 
L 1919 1216 
L 1919 -38 
L 5313 -38 
L 5313 -453 
L 1459 -453 
z
" transform="scale(0.015625)"/>
       </defs>
       <use xlink:href="#MalgunGothic-b5b"/>
       <use xlink:href="#MalgunGothic-848" transform="translate(100 0)"/>
       <use xlink:href="#MalgunGothic-b1e" transform="translate(200 0)"/>
      </g>
     </g>
    </g>
    <g id="ytick_30">
     <g id="line2d_46">
      <g>
       <use xlink:href="#m5e8d945528" x="78.761953" y="519.399413" style="stroke: #000000; stroke-width: 0.8"/>
      </g>
     </g>
     <g id="text_39">
      <!-- 기술 -->
      <g transform="translate(51.761953 523.669725) scale(0.1 -0.1)">
       <defs>
        <path id="MalgunGothic-73d" d="M 5459 3400 
Q 4706 3497 4064 3853 
Q 3422 4209 3206 4556 
Q 3038 4238 2384 3878 
Q 1731 3519 972 3406 
L 697 3781 
Q 1656 3866 2312 4305 
Q 2969 4744 2969 5184 
L 2969 5344 
L 3431 5344 
L 3431 5184 
Q 3431 4734 4093 4289 
Q 4756 3844 5703 3775 
L 5459 3400 
z
M 1319 -416 
L 1319 947 
L 4616 947 
L 4616 1478 
L 1319 1478 
L 1319 1888 
L 2963 1888 
L 2963 2528 
L 403 2528 
L 403 2950 
L 5997 2950 
L 5997 2534 
L 3438 2534 
L 3438 1888 
L 5075 1888 
L 5075 544 
L 1778 544 
L 1778 0 
L 5234 0 
L 5234 -416 
L 1319 -416 
z
" transform="scale(0.015625)"/>
       </defs>
       <use xlink:href="#MalgunGothic-31b"/>
       <use xlink:href="#MalgunGothic-73d" transform="translate(100 0)"/>
      </g>
     </g>
    </g>
    <g id="text_40">
     <!-- 핵심 키워드 -->
     <g transform="translate(19.76 309.556836) rotate(-90) scale(0.1 -0.1)">
      <defs>
       <path id="MalgunGothic-b26" d="M 5075 1813 
L 5075 3250 
L 4372 3250 
L 4372 1813 
L 3909 1813 
L 3909 5344 
L 4372 5344 
L 4372 3669 
L 5075 3669 
L 5075 5466 
L 5538 5466 
L 5538 1813 
L 5075 1813 
z
M 459 4263 
L 459 4672 
L 1784 4672 
L 1784 5403 
L 2247 5403 
L 2247 4672 
L 3559 4672 
L 3559 4263 
L 459 4263 
z
M 2022 1978 
Q 1431 1978 1070 2268 
Q 709 2559 709 2994 
Q 709 3425 1071 3715 
Q 1434 4006 2022 4006 
Q 2609 4006 2971 3715 
Q 3334 3425 3334 2994 
Q 3334 2559 2975 2268 
Q 2616 1978 2022 1978 
z
M 2022 3622 
Q 1656 3622 1404 3444 
Q 1153 3266 1153 2994 
Q 1153 2725 1404 2547 
Q 1656 2369 2022 2369 
Q 2394 2369 2647 2545 
Q 2900 2722 2900 2994 
Q 2900 3263 2644 3442 
Q 2388 3622 2022 3622 
z
M 5069 -563 
L 5069 1056 
L 1550 1056 
L 1550 1472 
L 5538 1472 
L 5538 -563 
L 5069 -563 
z
" transform="scale(0.015625)"/>
       <path id="MalgunGothic-76a" d="M 4884 2113 
L 4884 5466 
L 5350 5466 
L 5350 2113 
L 4884 2113 
z
M 3653 2328 
Q 3244 2550 2831 2950 
Q 2419 3350 2253 3700 
Q 2075 3303 1659 2858 
Q 1244 2413 819 2175 
L 488 2497 
Q 1134 2806 1571 3393 
Q 2009 3981 2009 4628 
L 2009 5269 
L 2463 5269 
L 2463 4628 
Q 2463 4025 2916 3472 
Q 3369 2919 3969 2669 
L 3653 2328 
z
M 1625 -397 
L 1625 1766 
L 5350 1766 
L 5350 -397 
L 1625 -397 
z
M 4891 1356 
L 2088 1356 
L 2088 13 
L 4891 13 
L 4891 1356 
z
" transform="scale(0.015625)"/>
       <path id="MalgunGothic-a41" d="M 4884 -563 
L 4884 5466 
L 5350 5466 
L 5350 -563 
L 4884 -563 
z
M 3675 4928 
Q 3609 2366 959 856 
L 603 1234 
Q 1188 1459 1800 1993 
Q 2413 2528 2766 3200 
L 722 2988 
L 556 3438 
L 2944 3584 
Q 3116 4025 3175 4513 
L 850 4513 
L 850 4928 
L 3675 4928 
z
" transform="scale(0.015625)"/>
       <path id="MalgunGothic-853" d="M 3578 872 
L 3578 1294 
L 4997 1294 
L 4997 5466 
L 5466 5466 
L 5466 -563 
L 4997 -563 
L 4997 872 
L 3578 872 
z
M 2456 2784 
Q 1766 2784 1347 3139 
Q 928 3494 928 4038 
Q 928 4584 1348 4942 
Q 1769 5300 2456 5300 
Q 3141 5300 3564 4942 
Q 3988 4584 3988 4038 
Q 3988 3491 3566 3137 
Q 3144 2784 2456 2784 
z
M 2456 4897 
Q 1972 4897 1680 4659 
Q 1388 4422 1388 4038 
Q 1388 3653 1680 3420 
Q 1972 3188 2456 3188 
Q 2944 3188 3231 3422 
Q 3519 3656 3519 4038 
Q 3519 4419 3230 4658 
Q 2941 4897 2456 4897 
z
M 2234 -391 
L 2234 1825 
Q 859 1800 469 1800 
L 422 2209 
Q 2997 2209 4506 2297 
L 4531 1894 
Q 4103 1866 2700 1831 
L 2700 -391 
L 2234 -391 
z
" transform="scale(0.015625)"/>
      </defs>
      <use xlink:href="#MalgunGothic-b26"/>
      <use xlink:href="#MalgunGothic-76a" transform="translate(100 0)"/>
      <use xlink:href="#MalgunGothic-3" transform="translate(200 0)"/>
      <use xlink:href="#MalgunGothic-a41" transform="translate(235.15625 0)"/>
      <use xlink:href="#MalgunGothic-853" transform="translate(335.15625 0)"/>
      <use xlink:href="#MalgunGothic-496" transform="translate(435.15625 0)"/>
     </g>
    </g>
   </g>
   <g id="line2d_47">
    <path clip-path="url(#p0410fae930)" style="fill: none; stroke: #424242; stroke-width: 2.25; stroke-linecap: square"/>
   </g>
   <g id="line2d_48">
    <path clip-path="url(#p0410fae930)" style="fill: none; stroke: #424242; stroke-width: 2.25; stroke-linecap: square"/>
   </g>
   <g id="line2d_49">
    <path clip-path="url(#p0410fae930)" style="fill: none; stroke: #424242; stroke-width: 2.25; stroke-linecap: square"/>
   </g>
   <g id="line2d_50">
    <path clip-path="url(#p0410fae930)" style="fill: none; stroke: #424242; stroke-width: 2.25; stroke-linecap: square"/>
   </g>
   <g id="line2d_51">
    <path clip-path="url(#p0410fae930)" style="fill: none; stroke: #424242; stroke-width: 2.25; stroke-linecap: square"/>
   </g>
   <g id="line2d_52">
    <path clip-path="url(#p0410fae930)" style="fill: none; stroke: #424242; stroke-width: 2.25; stroke-linecap: square"/>
   </g>
   <g id="line2d_53">
    <path clip-path="url(#p0410fae930)" style="fill: none; stroke: #424242; stroke-width: 2.25; stroke-linecap: square"/>
   </g>
   <g id="line2d_54">
    <path clip-path="url(#p0410fae930)" style="fill: none; stroke: #424242; stroke-width: 2.25; stroke-linecap: square"/>
   </g>
   <g id="line2d_55">
    <path clip-path="url(#p0410fae930)" style="fill: none; stroke: #424242; stroke-width: 2.25; stroke-linecap: square"/>
   </g>
   <g id="line2d_56">
    <path clip-path="url(#p0410fae930)" style="fill: none; stroke: #424242; stroke-width: 2.25; stroke-linecap: square"/>
   </g>
   <g id="line2d_57">
    <path clip-path="url(#p0410fae930)" style="fill: none; stroke: #424242; stroke-width: 2.25; stroke-linecap: square"/>
   </g>
   <g id="line2d_58">
    <path clip-path="url(#p0410fae930)" style="fill: none; stroke: #424242; stroke-width: 2.25; stroke-linecap: square"/>
   </g>
   <g id="line2d_59">
    <path clip-path="url(#p0410fae930)" style="fill: none; stroke: #424242; stroke-width: 2.25; stroke-linecap: square"/>
   </g>
   <g id="line2d_60">
    <path clip-path="url(#p0410fae930)" style="fill: none; stroke: #424242; stroke-width: 2.25; stroke-linecap: square"/>
   </g>
   <g id="line2d_61">
    <path clip-path="url(#p0410fae930)" style="fill: none; stroke: #424242; stroke-width: 2.25; stroke-linecap: square"/>
   </g>
   <g id="line2d_62">
    <path clip-path="url(#p0410fae930)" style="fill: none; stroke: #424242; stroke-width: 2.25; stroke-linecap: square"/>
   </g>
   <g id="line2d_63">
    <path clip-path="url(#p0410fae930)" style="fill: none; stroke: #424242; stroke-width: 2.25; stroke-linecap: square"/>
   </g>
   <g id="line2d_64">
    <path clip-path="url(#p0410fae930)" style="fill: none; stroke: #424242; stroke-width: 2.25; stroke-linecap: square"/>
   </g>
   <g id="line2d_65">
    <path clip-path="url(#p0410fae930)" style="fill: none; stroke: #424242; stroke-width: 2.25; stroke-linecap: square"/>
   </g>
   <g id="line2d_66">
    <path clip-path="url(#p0410fae930)" style="fill: none; stroke: #424242; stroke-width: 2.25; stroke-linecap: square"/>
   </g>
   <g id="line2d_67">
    <path clip-path="url(#p0410fae930)" style="fill: none; stroke: #424242; stroke-width: 2.25; stroke-linecap: square"/>
   </g>
   <g id="line2d_68">
    <path clip-path="url(#p0410fae930)" style="fill: none; stroke: #424242; stroke-width: 2.25; stroke-linecap: square"/>
   </g>
   <g id="line2d_69">
    <path clip-path="url(#p0410fae930)" style="fill: none; stroke: #424242; stroke-width: 2.25; stroke-linecap: square"/>
   </g>
   <g id="line2d_70">
    <path clip-path="url(#p0410fae930)" style="fill: none; stroke: #424242; stroke-width: 2.25; stroke-linecap: square"/>
   </g>
   <g id="line2d_71">
    <path clip-path="url(#p0410fae930)" style="fill: none; stroke: #424242; stroke-width: 2.25; stroke-linecap: square"/>
   </g>
   <g id="line2d_72">
    <path clip-path="url(#p0410fae930)" style="fill: none; stroke: #424242; stroke-width: 2.25; stroke-linecap: square"/>
   </g>
   <g id="line2d_73">
    <path clip-path="url(#p0410fae930)" style="fill: none; stroke: #424242; stroke-width: 2.25; stroke-linecap: square"/>
   </g>
   <g id="line2d_74">
    <path clip-path="url(#p0410fae930)" style="fill: none; stroke: #424242; stroke-width: 2.25; stroke-linecap: square"/>
   </g>
   <g id="line2d_75">
    <path clip-path="url(#p0410fae930)" style="fill: none; stroke: #424242; stroke-width: 2.25; stroke-linecap: square"/>
   </g>
   <g id="line2d_76">
    <path clip-path="url(#p0410fae930)" style="fill: none; stroke: #424242; stroke-width: 2.25; stroke-linecap: square"/>
   </g>
   <g id="patch_33">
    <path d="M 78.761953 527.558047 
L 78.761953 38.04 
" style="fill: none; stroke: #000000; stroke-width: 0.8; stroke-linejoin: miter; stroke-linecap: square"/>
   </g>
   <g id="patch_34">
    <path d="M 709.2 527.558047 
L 709.2 38.04 
" style="fill: none; stroke: #000000; stroke-width: 0.8; stroke-linejoin: miter; stroke-linecap: square"/>
   </g>
   <g id="patch_35">
    <path d="M 78.761953 527.558047 
L 709.2 527.558047 
" style="fill: none; stroke: #000000; stroke-width: 0.8; stroke-linejoin: miter; stroke-linecap: square"/>
   </g>
   <g id="patch_36">
    <path d="M 78.761953 38.04 
L 709.2 38.04 
" style="fill: none; stroke: #000000; stroke-width: 0.8; stroke-linejoin: miter; stroke-linecap: square"/>
   </g>
   <g id="text_41">
    <!-- TF-IDF 기반 도서 텍스트 핵심 키워드 상위 30선 -->
    <g transform="translate(241.937695 23.04) scale(0.14 -0.14)">
     <defs>
      <path id="MalgunGothicBold-36" d="M 3628 3859 
L 2313 3859 
L 2313 0 
L 1419 0 
L 1419 3859 
L 106 3859 
L 106 4600 
L 3628 4600 
L 3628 3859 
z
" transform="scale(0.015625)"/>
      <path id="MalgunGothicBold-28" d="M 3109 3859 
L 1438 3859 
L 1438 2594 
L 2978 2594 
L 2978 1863 
L 1438 1863 
L 1438 0 
L 547 0 
L 547 4600 
L 3109 4600 
L 3109 3859 
z
" transform="scale(0.015625)"/>
      <path id="MalgunGothicBold-f" d="M 2213 1463 
L 459 1463 
L 459 2088 
L 2213 2088 
L 2213 1463 
z
" transform="scale(0.015625)"/>
      <path id="MalgunGothicBold-2b" d="M 1434 4600 
L 1434 0 
L 544 0 
L 544 4600 
L 1434 4600 
z
" transform="scale(0.015625)"/>
      <path id="MalgunGothicBold-26" d="M 547 0 
L 547 4600 
L 2072 4600 
Q 4516 4600 4516 2356 
Q 4516 1288 3827 644 
Q 3138 0 2053 0 
L 547 0 
z
M 1438 3859 
L 1438 738 
L 2000 738 
Q 2741 738 3159 1167 
Q 3578 1597 3578 2344 
Q 3578 3078 3159 3468 
Q 2741 3859 2006 3859 
L 1438 3859 
z
" transform="scale(0.015625)"/>
      <path id="MalgunGothicBold-3" transform="scale(0.015625)"/>
      <path id="MalgunGothicBold-318" d="M 4678 -563 
L 4678 5466 
L 5447 5466 
L 5447 -563 
L 4678 -563 
z
M 3756 4934 
Q 3734 3644 3026 2551 
Q 2319 1459 1038 756 
L 434 1325 
Q 1359 1678 2062 2493 
Q 2766 3309 2925 4275 
L 800 4275 
L 800 4934 
L 3756 4934 
z
" transform="scale(0.015625)"/>
      <path id="MalgunGothicBold-603" d="M 5253 3016 
L 5253 1125 
L 4475 1125 
L 4475 5466 
L 5253 5466 
L 5253 3675 
L 6175 3675 
L 6175 3016 
L 5253 3016 
z
M 653 2188 
L 653 5147 
L 1434 5147 
L 1434 4263 
L 2766 4263 
L 2766 5147 
L 3541 5147 
L 3541 2188 
L 653 2188 
z
M 2766 3603 
L 1434 3603 
L 1434 2841 
L 2766 2841 
L 2766 3603 
z
M 1484 -353 
L 1484 1703 
L 2272 1703 
L 2272 306 
L 5422 306 
L 5422 -353 
L 1484 -353 
z
" transform="scale(0.015625)"/>
      <path id="MalgunGothicBold-463" d="M 403 263 
L 403 916 
L 2803 916 
L 2803 2113 
L 1294 2113 
L 1294 4934 
L 5106 4934 
L 5106 4281 
L 2081 4281 
L 2081 2766 
L 5197 2766 
L 5197 2113 
L 3591 2113 
L 3591 916 
L 5997 916 
L 5997 263 
L 403 263 
z
" transform="scale(0.015625)"/>
      <path id="MalgunGothicBold-6ed" d="M 4794 -563 
L 4794 2981 
L 3488 2981 
L 3488 3641 
L 4794 3641 
L 4794 5466 
L 5575 5466 
L 5575 -563 
L 4794 -563 
z
M 3609 934 
Q 2681 1578 2228 2444 
Q 1731 1463 838 831 
L 231 1369 
Q 925 1725 1381 2434 
Q 1838 3144 1838 3891 
L 1838 5063 
L 2619 5063 
L 2619 3909 
Q 2619 3178 3066 2498 
Q 3513 1819 4159 1544 
L 3609 934 
z
" transform="scale(0.015625)"/>
      <path id="MalgunGothicBold-a66" d="M 4856 1991 
L 4856 5466 
L 5631 5466 
L 5631 1991 
L 4856 1991 
z
M 3653 1991 
L 3653 3372 
L 2859 3372 
L 2859 4000 
L 3653 4000 
L 3653 5344 
L 4428 5344 
L 4428 1991 
L 3653 1991 
z
M 1394 3372 
L 1394 2875 
Q 2272 2875 3109 2944 
L 3169 2297 
Q 2222 2216 628 2216 
L 628 5178 
L 2988 5178 
L 2988 4519 
L 1394 4519 
L 1394 3994 
L 2509 3994 
L 2509 3372 
L 1394 3372 
z
M 4850 -563 
L 4850 1069 
L 1631 1069 
L 1631 1734 
L 5631 1734 
L 5631 -563 
L 4850 -563 
z
" transform="scale(0.015625)"/>
      <path id="MalgunGothicBold-758" d="M 5356 2175 
Q 4713 2366 4109 2766 
Q 3506 3166 3194 3609 
Q 2884 3150 2289 2747 
Q 1694 2344 1031 2169 
L 575 2778 
Q 1650 3013 2226 3564 
Q 2803 4116 2803 4628 
L 2803 5075 
L 3597 5075 
L 3597 4628 
Q 3597 4128 4173 3567 
Q 4750 3006 5813 2778 
L 5356 2175 
z
M 403 334 
L 403 978 
L 5997 978 
L 5997 334 
L 403 334 
z
" transform="scale(0.015625)"/>
      <path id="MalgunGothicBold-a9a" d="M 1228 1875 
L 1228 4934 
L 5197 4934 
L 5197 4288 
L 2016 4288 
L 2016 3738 
L 5025 3738 
L 5025 3091 
L 2016 3091 
L 2016 2522 
L 5294 2522 
L 5294 1875 
L 1228 1875 
z
M 403 244 
L 403 897 
L 5997 897 
L 5997 244 
L 403 244 
z
" transform="scale(0.015625)"/>
      <path id="MalgunGothicBold-b23" d="M 366 4231 
L 366 4863 
L 1538 4863 
L 1538 5497 
L 2316 5497 
L 2316 4863 
L 3469 4863 
L 3469 4231 
L 366 4231 
z
M 4856 1800 
L 4856 3084 
L 4488 3084 
L 4488 1800 
L 3725 1800 
L 3725 5344 
L 4488 5344 
L 4488 3744 
L 4856 3744 
L 4856 5466 
L 5631 5466 
L 5631 1800 
L 4856 1800 
z
M 1931 1875 
Q 1300 1875 915 2167 
Q 531 2459 531 2956 
Q 531 3453 915 3745 
Q 1300 4038 1931 4038 
Q 2563 4038 2948 3744 
Q 3334 3450 3334 2956 
Q 3334 2456 2953 2165 
Q 2572 1875 1931 1875 
z
M 1931 3406 
Q 1641 3406 1464 3279 
Q 1288 3153 1288 2956 
Q 1288 2753 1458 2631 
Q 1628 2509 1931 2509 
Q 2225 2509 2401 2639 
Q 2578 2769 2578 2956 
Q 2578 3153 2403 3279 
Q 2228 3406 1931 3406 
z
M 4850 -563 
L 4850 878 
L 1569 878 
L 1569 1544 
L 5631 1544 
L 5631 -563 
L 4850 -563 
z
" transform="scale(0.015625)"/>
      <path id="MalgunGothicBold-767" d="M 4703 2053 
L 4703 5466 
L 5472 5466 
L 5472 2053 
L 4703 2053 
z
M 3653 2209 
Q 2716 2656 2278 3353 
Q 2138 3056 1708 2634 
Q 1278 2213 934 2028 
L 366 2591 
Q 1038 2891 1453 3423 
Q 1869 3956 1869 4525 
L 1869 5275 
L 2656 5275 
L 2656 4550 
Q 2656 3978 3082 3497 
Q 3509 3016 4153 2834 
L 3653 2209 
z
M 1581 -434 
L 1581 1800 
L 5472 1800 
L 5472 -434 
L 1581 -434 
z
M 4709 1147 
L 2350 1147 
L 2350 219 
L 4709 219 
L 4709 1147 
z
" transform="scale(0.015625)"/>
      <path id="MalgunGothicBold-a3e" d="M 4678 -563 
L 4678 5466 
L 5447 5466 
L 5447 -563 
L 4678 -563 
z
M 3763 4934 
Q 3694 3603 2933 2479 
Q 2172 1356 1031 756 
L 434 1306 
Q 1038 1538 1530 1972 
Q 2022 2406 2263 2759 
Q 2294 2806 2328 2853 
L 697 2700 
L 447 3359 
L 2700 3506 
Q 2869 3891 2931 4275 
L 800 4275 
L 800 4934 
L 3763 4934 
z
" transform="scale(0.015625)"/>
      <path id="MalgunGothicBold-850" d="M 3500 744 
L 3500 1409 
L 4788 1409 
L 4788 5466 
L 5569 5466 
L 5569 -563 
L 4788 -563 
L 4788 744 
L 3500 744 
z
M 2350 2759 
Q 1663 2759 1247 3126 
Q 831 3494 831 4050 
Q 831 4613 1250 4981 
Q 1669 5350 2350 5350 
Q 3034 5350 3456 4981 
Q 3878 4613 3878 4050 
Q 3878 3506 3454 3132 
Q 3031 2759 2350 2759 
z
M 2356 4722 
Q 1994 4722 1791 4533 
Q 1588 4344 1588 4050 
Q 1588 3766 1806 3575 
Q 2025 3384 2356 3384 
Q 2691 3384 2903 3573 
Q 3116 3763 3116 4050 
Q 3116 4338 2906 4530 
Q 2697 4722 2356 4722 
z
M 1972 -397 
L 1972 1772 
Q 975 1747 353 1747 
L 275 2419 
Q 2825 2419 4409 2516 
L 4453 1850 
L 2753 1791 
L 2753 -397 
L 1972 -397 
z
" transform="scale(0.015625)"/>
      <path id="MalgunGothicBold-493" d="M 1294 2175 
L 1294 4934 
L 5106 4934 
L 5106 4281 
L 2081 4281 
L 2081 2828 
L 5197 2828 
L 5197 2175 
L 1294 2175 
z
M 403 325 
L 403 978 
L 5997 978 
L 5997 325 
L 403 325 
z
" transform="scale(0.015625)"/>
      <path id="MalgunGothicBold-6d5" d="M 5259 3328 
L 5259 1947 
L 4475 1947 
L 4475 5466 
L 5259 5466 
L 5259 3988 
L 6175 3988 
L 6175 3328 
L 5259 3328 
z
M 3591 2209 
Q 2653 2656 2216 3353 
Q 2053 3028 1625 2615 
Q 1197 2203 872 2028 
L 300 2591 
Q 969 2884 1387 3418 
Q 1806 3953 1806 4525 
L 1806 5275 
L 2591 5275 
L 2591 4550 
Q 2591 3975 3020 3494 
Q 3450 3013 4091 2834 
L 3591 2209 
z
M 3347 -538 
Q 2388 -538 1863 -208 
Q 1338 122 1338 666 
Q 1338 1206 1869 1531 
Q 2400 1856 3347 1856 
Q 4297 1856 4826 1532 
Q 5356 1209 5356 666 
Q 5356 119 4829 -209 
Q 4303 -538 3347 -538 
z
M 3347 1203 
Q 2150 1203 2150 666 
Q 2150 116 3347 116 
Q 4550 116 4550 666 
Q 4550 1203 3347 1203 
z
" transform="scale(0.015625)"/>
      <path id="MalgunGothicBold-85f" d="M 4775 -563 
L 4775 5466 
L 5556 5466 
L 5556 -563 
L 4775 -563 
z
M 2388 2778 
Q 1675 2778 1228 3131 
Q 781 3484 781 4050 
Q 781 4616 1229 4973 
Q 1678 5331 2388 5331 
Q 3100 5331 3553 4973 
Q 4006 4616 4006 4050 
Q 4006 3497 3553 3137 
Q 3100 2778 2388 2778 
z
M 2394 4709 
Q 1997 4709 1762 4532 
Q 1528 4356 1528 4050 
Q 1528 3766 1778 3583 
Q 2028 3400 2394 3400 
Q 2766 3400 3008 3581 
Q 3250 3763 3250 4050 
Q 3250 4347 3012 4528 
Q 2775 4709 2394 4709 
z
M 2022 -397 
L 2022 1656 
Q 1025 1631 403 1631 
L 325 2303 
Q 2691 2303 4459 2400 
L 4506 1734 
L 2803 1678 
L 2803 -397 
L 2022 -397 
z
" transform="scale(0.015625)"/>
      <path id="MalgunGothicBold-15" d="M 456 947 
Q 922 600 1531 600 
Q 1931 600 2175 783 
Q 2419 966 2419 1306 
Q 2419 2022 1338 2022 
L 931 2022 
L 931 2703 
L 1309 2703 
Q 2278 2703 2278 3372 
Q 2278 3997 1534 3997 
Q 1069 3997 631 3691 
L 631 4425 
Q 1100 4675 1738 4675 
Q 2372 4675 2769 4375 
Q 3166 4075 3166 3544 
Q 3166 2647 2250 2406 
L 2250 2394 
Q 2728 2344 3018 2042 
Q 3309 1741 3309 1313 
Q 3309 659 2836 289 
Q 2363 -81 1581 -81 
Q 894 -81 456 156 
L 456 947 
z
" transform="scale(0.015625)"/>
      <path id="MalgunGothicBold-12" d="M 241 2222 
Q 241 3422 670 4048 
Q 1100 4675 1919 4675 
Q 3475 4675 3475 2328 
Q 3475 1172 3051 545 
Q 2628 -81 1825 -81 
Q 241 -81 241 2222 
z
M 1125 2244 
Q 1125 600 1863 600 
Q 2584 600 2584 2288 
Q 2584 3997 1878 3997 
Q 1125 3997 1125 2244 
z
" transform="scale(0.015625)"/>
      <path id="MalgunGothicBold-6f1" d="M 4794 1153 
L 4794 3481 
L 3525 3481 
L 3525 4147 
L 4794 4147 
L 4794 5466 
L 5563 5466 
L 5563 1153 
L 4794 1153 
z
M 3591 1953 
Q 2734 2363 2216 3188 
Q 2038 2834 1608 2384 
Q 1178 1934 872 1772 
L 300 2316 
Q 959 2609 1382 3182 
Q 1806 3756 1806 4334 
L 1806 5209 
L 2584 5209 
L 2584 4359 
Q 2584 3772 3028 3253 
Q 3472 2734 4091 2559 
L 3591 1953 
z
M 1672 -353 
L 1672 1703 
L 2456 1703 
L 2456 306 
L 5678 306 
L 5678 -353 
L 1672 -353 
z
" transform="scale(0.015625)"/>
     </defs>
     <use xlink:href="#MalgunGothicBold-36"/>
     <use xlink:href="#MalgunGothicBold-28" transform="translate(58.25 0)"/>
     <use xlink:href="#MalgunGothicBold-f" transform="translate(110.6875 0)"/>
     <use xlink:href="#MalgunGothicBold-2b" transform="translate(152.046875 0)"/>
     <use xlink:href="#MalgunGothicBold-26" transform="translate(183.046875 0)"/>
     <use xlink:href="#MalgunGothicBold-28" transform="translate(257.609375 0)"/>
     <use xlink:href="#MalgunGothicBold-3" transform="translate(310.046875 0)"/>
     <use xlink:href="#MalgunGothicBold-318" transform="translate(345.203125 0)"/>
     <use xlink:href="#MalgunGothicBold-603" transform="translate(445.203125 0)"/>
     <use xlink:href="#MalgunGothicBold-3" transform="translate(545.203125 0)"/>
     <use xlink:href="#MalgunGothicBold-463" transform="translate(580.359375 0)"/>
     <use xlink:href="#MalgunGothicBold-6ed" transform="translate(680.359375 0)"/>
     <use xlink:href="#MalgunGothicBold-3" transform="translate(780.359375 0)"/>
     <use xlink:href="#MalgunGothicBold-a66" transform="translate(815.515625 0)"/>
     <use xlink:href="#MalgunGothicBold-758" transform="translate(915.515625 0)"/>
     <use xlink:href="#MalgunGothicBold-a9a" transform="translate(1015.515625 0)"/>
     <use xlink:href="#MalgunGothicBold-3" transform="translate(1115.515625 0)"/>
     <use xlink:href="#MalgunGothicBold-b23" transform="translate(1150.671875 0)"/>
     <use xlink:href="#MalgunGothicBold-767" transform="translate(1250.671875 0)"/>
     <use xlink:href="#MalgunGothicBold-3" transform="translate(1350.671875 0)"/>
     <use xlink:href="#MalgunGothicBold-a3e" transform="translate(1385.828125 0)"/>
     <use xlink:href="#MalgunGothicBold-850" transform="translate(1485.828125 0)"/>
     <use xlink:href="#MalgunGothicBold-493" transform="translate(1585.828125 0)"/>
     <use xlink:href="#MalgunGothicBold-3" transform="translate(1685.828125 0)"/>
     <use xlink:href="#MalgunGothicBold-6d5" transform="translate(1720.984375 0)"/>
     <use xlink:href="#MalgunGothicBold-85f" transform="translate(1820.984375 0)"/>
     <use xlink:href="#MalgunGothicBold-3" transform="translate(1920.984375 0)"/>
     <use xlink:href="#MalgunGothicBold-15" transform="translate(1956.140625 0)"/>
     <use xlink:href="#MalgunGothicBold-12" transform="translate(2014.09375 0)"/>
     <use xlink:href="#MalgunGothicBold-6f1" transform="translate(2072.046875 0)"/>
    </g>
   </g>
  </g>
 </g>
 <defs>
  <clipPath id="p0410fae930">
   <rect x="78.761953" y="38.04" width="630.438047" height="489.518047"/>
  </clipPath>
 </defs>
</svg>
