<?xml version="1.0" encoding="utf-8" standalone="no"?>
<!DOCTYPE svg PUBLIC "-//W3C//DTD SVG 1.1//EN"
  "http://www.w3.org/Graphics/SVG/1.1/DTD/svg11.dtd">
<svg xmlns:xlink="http://www.w3.org/1999/xlink" width="720pt" height="360pt" viewBox="0 0 720 360" xmlns="http://www.w3.org/2000/svg" version="1.1">
 <metadata>
  <rdf:RDF xmlns:dc="http://purl.org/dc/elements/1.1/" xmlns:cc="http://creativecommons.org/ns#" xmlns:rdf="http://www.w3.org/1999/02/22-rdf-syntax-ns#">
   <cc:Work>
    <dc:type rdf:resource="http://purl.org/dc/dcmitype/StillImage"/>
    <dc:date>2026-07-06T15:52:34.670335</dc:date>
    <dc:format>image/svg+xml</dc:format>
    <dc:creator>
     <cc:Agent>
      <dc:title>Matplotlib v3.11.0, https://matplotlib.org/</dc:title>
     </cc:Agent>
    </dc:creator>
   </cc:Work>
  </rdf:RDF>
 </metadata>
 <defs>
  <style type="text/css">*{stroke-linejoin: round; stroke-linecap: butt}</style>
 </defs>
 <g id="figure_1">
  <g id="patch_1">
   <path d="M 0 360 
L 720 360 
L 720 0 
L 0 0 
z
" style="fill: #ffffff"/>
  </g>
  <g id="axes_1">
   <g id="patch_2">
    <path d="M 55.721953 311.558047 
L 658.518047 311.558047 
L 658.518047 38.04 
L 55.721953 38.04 
z
" style="fill: #ffffff"/>
   </g>
   <g id="patch_3">
    <path d="M 83.121776 311.558047 
L 132.939635 311.558047 
L 132.939635 300.997505 
L 83.121776 300.997505 
z
" clip-path="url(#p4e71cffea3)" style="fill: #5d92cf; opacity: 0.6"/>
   </g>
   <g id="patch_4">
    <path d="M 145.394099 311.558047 
L 195.211958 311.558047 
L 195.211958 305.397731 
L 145.394099 305.397731 
z
" clip-path="url(#p4e71cffea3)" style="fill: #5d92cf; opacity: 0.6"/>
   </g>
   <g id="patch_5">
    <path d="M 207.666423 311.558047 
L 257.484282 311.558047 
L 257.484282 292.197053 
L 207.666423 292.197053 
z
" clip-path="url(#p4e71cffea3)" style="fill: #5d92cf; opacity: 0.6"/>
   </g>
   <g id="patch_6">
    <path d="M 269.938747 311.558047 
L 319.756606 311.558047 
L 319.756606 293.957143 
L 269.938747 293.957143 
z
" clip-path="url(#p4e71cffea3)" style="fill: #5d92cf; opacity: 0.6"/>
   </g>
   <g id="patch_7">
    <path d="M 332.211071 311.558047 
L 382.028929 311.558047 
L 382.028929 278.996375 
L 332.211071 278.996375 
z
" clip-path="url(#p4e71cffea3)" style="fill: #5d92cf; opacity: 0.6"/>
   </g>
   <g id="patch_8">
    <path d="M 394.483394 311.558047 
L 444.301253 311.558047 
L 444.301253 279.87642 
L 394.483394 279.87642 
z
" clip-path="url(#p4e71cffea3)" style="fill: #5d92cf; opacity: 0.6"/>
   </g>
   <g id="patch_9">
    <path d="M 456.755718 311.558047 
L 506.573577 311.558047 
L 506.573577 187.471674 
L 456.755718 187.471674 
z
" clip-path="url(#p4e71cffea3)" style="fill: #5d92cf; opacity: 0.6"/>
   </g>
   <g id="patch_10">
    <path d="M 519.028042 311.558047 
L 568.845901 311.558047 
L 568.845901 66.025437 
L 519.028042 66.025437 
z
" clip-path="url(#p4e71cffea3)" style="fill: #5d92cf; opacity: 0.6"/>
   </g>
   <g id="patch_11">
    <path d="M 581.300365 311.558047 
L 631.118224 311.558047 
L 631.118224 51.064669 
L 581.300365 51.064669 
z
" clip-path="url(#p4e71cffea3)" style="fill: #5d92cf; opacity: 0.6"/>
   </g>
   <g id="matplotlib.axis_1">
    <g id="xtick_1">
     <g id="line2d_1">
      <defs>
       <path id="md86624a64a" d="M 0 0 
L 0 3.5 
" style="stroke: #000000; stroke-width: 0.8"/>
      </defs>
      <g>
       <use xlink:href="#md86624a64a" x="108.030705" y="311.558047" style="stroke: #000000; stroke-width: 0.8"/>
      </g>
     </g>
     <g id="text_1">
      <!-- 2018 -->
      <g transform="translate(97.01508 326.556094) scale(0.1 -0.1)">
       <defs>
        <path id="MalgunGothic-15" d="M 2519 3372 
Q 2519 3784 2275 4018 
Q 2031 4253 1628 4253 
Q 1341 4253 1053 4104 
Q 766 3956 534 3697 
L 534 4234 
Q 981 4675 1691 4675 
Q 2281 4675 2642 4334 
Q 3003 3994 3003 3416 
Q 3003 2919 2772 2545 
Q 2541 2172 1984 1775 
Q 1459 1406 1254 1215 
Q 1050 1025 967 854 
Q 884 684 884 450 
L 3116 450 
L 3116 0 
L 356 0 
L 356 225 
Q 356 603 461 870 
Q 566 1138 811 1392 
Q 1056 1647 1597 2022 
Q 2091 2363 2305 2670 
Q 2519 2978 2519 3372 
z
" transform="scale(0.015625)"/>
        <path id="MalgunGothic-13" d="M 278 2206 
Q 278 3425 675 4050 
Q 1072 4675 1819 4675 
Q 3253 4675 3253 2319 
Q 3253 1156 2854 539 
Q 2456 -78 1716 -78 
Q 1016 -78 647 520 
Q 278 1119 278 2206 
z
M 784 2231 
Q 784 344 1769 344 
Q 2747 344 2747 2259 
Q 2747 4250 1794 4250 
Q 784 4250 784 2231 
z
" transform="scale(0.015625)"/>
        <path id="MalgunGothic-14" d="M 2231 0 
L 1734 0 
L 1734 3972 
Q 1591 3828 1266 3661 
Q 941 3494 672 3428 
L 672 3959 
Q 1016 4056 1409 4275 
Q 1803 4494 2031 4700 
L 2231 4700 
L 2231 0 
z
" transform="scale(0.015625)"/>
        <path id="MalgunGothic-1b" d="M 303 1281 
Q 303 1669 539 2011 
Q 775 2353 1153 2494 
Q 856 2647 675 2915 
Q 494 3184 494 3500 
Q 494 3828 659 4098 
Q 825 4369 1122 4522 
Q 1419 4675 1778 4675 
Q 2334 4675 2700 4342 
Q 3066 4009 3066 3500 
Q 3066 3181 2881 2914 
Q 2697 2647 2413 2494 
Q 2788 2350 3022 2009 
Q 3256 1669 3256 1281 
Q 3256 672 2843 297 
Q 2431 -78 1778 -78 
Q 1131 -78 717 301 
Q 303 681 303 1281 
z
M 809 1328 
Q 809 878 1081 611 
Q 1353 344 1781 344 
Q 2206 344 2482 619 
Q 2759 894 2759 1328 
Q 2759 1731 2482 2011 
Q 2206 2291 1781 2291 
Q 1372 2291 1090 2020 
Q 809 1750 809 1328 
z
M 1003 3459 
Q 1003 3125 1234 2900 
Q 1466 2675 1781 2675 
Q 2097 2675 2330 2900 
Q 2563 3125 2563 3459 
Q 2563 3803 2341 4026 
Q 2119 4250 1781 4250 
Q 1450 4250 1226 4029 
Q 1003 3809 1003 3459 
z
" transform="scale(0.015625)"/>
       </defs>
       <use xlink:href="#MalgunGothic-15"/>
       <use xlink:href="#MalgunGothic-13" transform="translate(55.078125 0)"/>
       <use xlink:href="#MalgunGothic-14" transform="translate(110.15625 0)"/>
       <use xlink:href="#MalgunGothic-1b" transform="translate(165.234375 0)"/>
      </g>
     </g>
    </g>
    <g id="xtick_2">
     <g id="line2d_2">
      <g>
       <use xlink:href="#md86624a64a" x="170.303029" y="311.558047" style="stroke: #000000; stroke-width: 0.8"/>
      </g>
     </g>
     <g id="text_2">
      <!-- 2019 -->
      <g transform="translate(159.287404 326.556094) scale(0.1 -0.1)">
       <defs>
        <path id="MalgunGothic-1c" d="M 556 563 
Q 941 344 1366 344 
Q 1994 344 2347 855 
Q 2700 1366 2700 2313 
Q 2694 2306 2688 2313 
Q 2388 1713 1653 1713 
Q 1059 1713 682 2120 
Q 306 2528 306 3144 
Q 306 3806 711 4240 
Q 1116 4675 1772 4675 
Q 2466 4675 2833 4131 
Q 3200 3588 3200 2578 
Q 3200 1319 2717 620 
Q 2234 -78 1344 -78 
Q 881 -78 556 78 
L 556 563 
z
M 813 3219 
Q 813 2741 1063 2450 
Q 1313 2159 1759 2159 
Q 2147 2159 2406 2417 
Q 2666 2675 2666 3047 
Q 2666 3556 2411 3903 
Q 2156 4250 1725 4250 
Q 1322 4250 1067 3948 
Q 813 3647 813 3219 
z
" transform="scale(0.015625)"/>
       </defs>
       <use xlink:href="#MalgunGothic-15"/>
       <use xlink:href="#MalgunGothic-13" transform="translate(55.078125 0)"/>
       <use xlink:href="#MalgunGothic-14" transform="translate(110.15625 0)"/>
       <use xlink:href="#MalgunGothic-1c" transform="translate(165.234375 0)"/>
      </g>
     </g>
    </g>
    <g id="xtick_3">
     <g id="line2d_3">
      <g>
       <use xlink:href="#md86624a64a" x="232.575353" y="311.558047" style="stroke: #000000; stroke-width: 0.8"/>
      </g>
     </g>
     <g id="text_3">
      <!-- 2020 -->
      <g transform="translate(221.559728 326.556094) scale(0.1 -0.1)">
       <use xlink:href="#MalgunGothic-15"/>
       <use xlink:href="#MalgunGothic-13" transform="translate(55.078125 0)"/>
       <use xlink:href="#MalgunGothic-15" transform="translate(110.15625 0)"/>
       <use xlink:href="#MalgunGothic-13" transform="translate(165.234375 0)"/>
      </g>
     </g>
    </g>
    <g id="xtick_4">
     <g id="line2d_4">
      <g>
       <use xlink:href="#md86624a64a" x="294.847676" y="311.558047" style="stroke: #000000; stroke-width: 0.8"/>
      </g>
     </g>
     <g id="text_4">
      <!-- 2021 -->
      <g transform="translate(283.832051 326.556094) scale(0.1 -0.1)">
       <use xlink:href="#MalgunGothic-15"/>
       <use xlink:href="#MalgunGothic-13" transform="translate(55.078125 0)"/>
       <use xlink:href="#MalgunGothic-15" transform="translate(110.15625 0)"/>
       <use xlink:href="#MalgunGothic-14" transform="translate(165.234375 0)"/>
      </g>
     </g>
    </g>
    <g id="xtick_5">
     <g id="line2d_5">
      <g>
       <use xlink:href="#md86624a64a" x="357.12" y="311.558047" style="stroke: #000000; stroke-width: 0.8"/>
      </g>
     </g>
     <g id="text_5">
      <!-- 2022 -->
      <g transform="translate(346.104375 326.556094) scale(0.1 -0.1)">
       <use xlink:href="#MalgunGothic-15"/>
       <use xlink:href="#MalgunGothic-13" transform="translate(55.078125 0)"/>
       <use xlink:href="#MalgunGothic-15" transform="translate(110.15625 0)"/>
       <use xlink:href="#MalgunGothic-15" transform="translate(165.234375 0)"/>
      </g>
     </g>
    </g>
    <g id="xtick_6">
     <g id="line2d_6">
      <g>
       <use xlink:href="#md86624a64a" x="419.392324" y="311.558047" style="stroke: #000000; stroke-width: 0.8"/>
      </g>
     </g>
     <g id="text_6">
      <!-- 2023 -->
      <g transform="translate(408.376699 326.556094) scale(0.1 -0.1)">
       <defs>
        <path id="MalgunGothic-16" d="M 416 719 
Q 891 344 1478 344 
Q 1959 344 2254 587 
Q 2550 831 2550 1247 
Q 2550 2169 1253 2169 
L 872 2169 
L 872 2591 
L 1234 2591 
Q 2388 2591 2388 3453 
Q 2388 4250 1509 4250 
Q 1022 4250 594 3916 
L 594 4413 
Q 1031 4675 1634 4675 
Q 2184 4675 2539 4372 
Q 2894 4069 2894 3581 
Q 2894 2678 1972 2409 
L 1972 2400 
Q 2469 2356 2764 2053 
Q 3059 1750 3059 1300 
Q 3059 672 2604 297 
Q 2150 -78 1450 -78 
Q 806 -78 416 169 
L 416 719 
z
" transform="scale(0.015625)"/>
       </defs>
       <use xlink:href="#MalgunGothic-15"/>
       <use xlink:href="#MalgunGothic-13" transform="translate(55.078125 0)"/>
       <use xlink:href="#MalgunGothic-15" transform="translate(110.15625 0)"/>
       <use xlink:href="#MalgunGothic-16" transform="translate(165.234375 0)"/>
      </g>
     </g>
    </g>
    <g id="xtick_7">
     <g id="line2d_7">
      <g>
       <use xlink:href="#md86624a64a" x="481.664647" y="311.558047" style="stroke: #000000; stroke-width: 0.8"/>
      </g>
     </g>
     <g id="text_7">
      <!-- 2024 -->
      <g transform="translate(470.649022 326.556094) scale(0.1 -0.1)">
       <defs>
        <path id="MalgunGothic-17" d="M 2703 4600 
L 2703 1563 
L 3309 1563 
L 3309 1113 
L 2703 1113 
L 2703 0 
L 2213 0 
L 2213 1113 
L 50 1113 
L 50 1534 
Q 728 2297 1295 3109 
Q 1863 3922 2172 4600 
L 2703 4600 
z
M 625 1563 
L 2213 1563 
L 2213 3831 
Q 1613 2788 959 1981 
L 625 1563 
z
" transform="scale(0.015625)"/>
       </defs>
       <use xlink:href="#MalgunGothic-15"/>
       <use xlink:href="#MalgunGothic-13" transform="translate(55.078125 0)"/>
       <use xlink:href="#MalgunGothic-15" transform="translate(110.15625 0)"/>
       <use xlink:href="#MalgunGothic-17" transform="translate(165.234375 0)"/>
      </g>
     </g>
    </g>
    <g id="xtick_8">
     <g id="line2d_8">
      <g>
       <use xlink:href="#md86624a64a" x="543.936971" y="311.558047" style="stroke: #000000; stroke-width: 0.8"/>
      </g>
     </g>
     <g id="text_8">
      <!-- 2025 -->
      <g transform="translate(532.921346 326.556094) scale(0.1 -0.1)">
       <defs>
        <path id="MalgunGothic-18" d="M 3072 1403 
Q 3072 722 2636 322 
Q 2200 -78 1469 -78 
Q 828 -78 516 113 
L 516 650 
Q 994 344 1475 344 
Q 1969 344 2270 630 
Q 2572 916 2572 1372 
Q 2572 1838 2265 2092 
Q 1959 2347 1381 2347 
Q 994 2347 603 2300 
L 759 4600 
L 2869 4600 
L 2869 4147 
L 1206 4147 
L 1106 2763 
Q 1347 2784 1547 2784 
Q 2263 2784 2667 2414 
Q 3072 2044 3072 1403 
z
" transform="scale(0.015625)"/>
       </defs>
       <use xlink:href="#MalgunGothic-15"/>
       <use xlink:href="#MalgunGothic-13" transform="translate(55.078125 0)"/>
       <use xlink:href="#MalgunGothic-15" transform="translate(110.15625 0)"/>
       <use xlink:href="#MalgunGothic-18" transform="translate(165.234375 0)"/>
      </g>
     </g>
    </g>
    <g id="xtick_9">
     <g id="line2d_9">
      <g>
       <use xlink:href="#md86624a64a" x="606.209295" y="311.558047" style="stroke: #000000; stroke-width: 0.8"/>
      </g>
     </g>
     <g id="text_9">
      <!-- 2026 -->
      <g transform="translate(595.19367 326.556094) scale(0.1 -0.1)">
       <defs>
        <path id="MalgunGothic-19" d="M 2981 4069 
Q 2619 4250 2228 4250 
Q 1591 4250 1228 3689 
Q 866 3128 869 2213 
L 884 2213 
Q 1203 2872 1938 2872 
Q 2547 2872 2903 2478 
Q 3259 2084 3259 1450 
Q 3259 797 2857 359 
Q 2456 -78 1825 -78 
Q 1116 -78 736 478 
Q 356 1034 356 2019 
Q 356 3181 847 3928 
Q 1338 4675 2222 4675 
Q 2700 4675 2981 4544 
L 2981 4069 
z
M 906 1506 
Q 906 1022 1165 683 
Q 1425 344 1844 344 
Q 2247 344 2498 645 
Q 2750 947 2750 1388 
Q 2750 1888 2509 2167 
Q 2269 2447 1838 2447 
Q 1444 2447 1175 2173 
Q 906 1900 906 1506 
z
" transform="scale(0.015625)"/>
       </defs>
       <use xlink:href="#MalgunGothic-15"/>
       <use xlink:href="#MalgunGothic-13" transform="translate(55.078125 0)"/>
       <use xlink:href="#MalgunGothic-15" transform="translate(110.15625 0)"/>
       <use xlink:href="#MalgunGothic-19" transform="translate(165.234375 0)"/>
      </g>
     </g>
    </g>
    <g id="text_10">
     <!-- 출간년도 -->
     <g transform="translate(337.12 347.229922) scale(0.1 -0.1)">
      <defs>
       <path id="MalgunGothic-9b7" d="M 5466 3334 
Q 4759 3400 4114 3664 
Q 3469 3928 3213 4225 
Q 2966 3931 2323 3670 
Q 1681 3409 966 3341 
L 709 3750 
Q 1328 3725 2017 3970 
Q 2706 4216 2906 4603 
L 1056 4603 
L 1056 5019 
L 2969 5019 
L 2969 5550 
L 3444 5550 
L 3444 5019 
L 5344 5019 
L 5344 4603 
L 3494 4603 
Q 3691 4241 4356 3995 
Q 5022 3750 5691 3750 
L 5466 3334 
z
M 1319 -416 
L 1319 947 
L 4616 947 
L 4616 1478 
L 1319 1478 
L 1319 1888 
L 2963 1888 
L 2963 2484 
L 403 2484 
L 403 2900 
L 5997 2900 
L 5997 2484 
L 3438 2484 
L 3438 1888 
L 5075 1888 
L 5075 544 
L 1778 544 
L 1778 0 
L 5234 0 
L 5234 -416 
L 1319 -416 
z
" transform="scale(0.015625)"/>
       <path id="MalgunGothic-27e" d="M 5125 3122 
L 5125 1063 
L 4659 1063 
L 4659 5466 
L 5125 5466 
L 5125 3541 
L 6034 3541 
L 6034 3122 
L 5125 3122 
z
M 3513 5100 
Q 3403 3872 2556 3011 
Q 1709 2150 794 1800 
L 469 2163 
Q 1344 2450 2087 3172 
Q 2831 3894 2963 4678 
L 831 4678 
L 831 5100 
L 3513 5100 
z
M 1459 -325 
L 1459 1509 
L 1925 1509 
L 1925 97 
L 5294 97 
L 5294 -325 
L 1459 -325 
z
" transform="scale(0.015625)"/>
       <path id="MalgunGothic-3d7" d="M 4884 1063 
L 4884 3122 
L 3181 3122 
L 3181 3525 
L 4884 3525 
L 4884 4178 
L 3181 4178 
L 3181 4581 
L 4884 4581 
L 4884 5466 
L 5350 5466 
L 5350 1063 
L 4884 1063 
z
M 4231 2169 
Q 3628 2016 1075 2016 
L 1075 5088 
L 1544 5088 
L 1544 2425 
L 1938 2425 
Q 3513 2425 4166 2553 
L 4231 2169 
z
M 1663 -359 
L 1663 1409 
L 2131 1409 
L 2131 56 
L 5575 56 
L 5575 -359 
L 1663 -359 
z
" transform="scale(0.015625)"/>
       <path id="MalgunGothic-466" d="M 403 372 
L 403 788 
L 2963 788 
L 2963 2181 
L 1350 2181 
L 1350 4897 
L 5050 4897 
L 5050 4481 
L 1819 4481 
L 1819 2600 
L 5147 2600 
L 5147 2181 
L 3438 2181 
L 3438 788 
L 5997 788 
L 5997 372 
L 403 372 
z
" transform="scale(0.015625)"/>
      </defs>
      <use xlink:href="#MalgunGothic-9b7"/>
      <use xlink:href="#MalgunGothic-27e" transform="translate(100 0)"/>
      <use xlink:href="#MalgunGothic-3d7" transform="translate(200 0)"/>
      <use xlink:href="#MalgunGothic-466" transform="translate(300 0)"/>
     </g>
    </g>
   </g>
   <g id="matplotlib.axis_2">
    <g id="ytick_1">
     <g id="line2d_10">
      <path d="M 55.721953 311.558047 
L 658.518047 311.558047 
" clip-path="url(#p4e71cffea3)" style="fill: none; stroke-dasharray: 2.96,1.28; stroke-dashoffset: 0; stroke: #b0b0b0; stroke-opacity: 0.3; stroke-width: 0.8"/>
     </g>
     <g id="line2d_11">
      <defs>
       <path id="med5437033a" d="M 0 0 
L -3.5 0 
" style="stroke: #000000; stroke-width: 0.8"/>
      </defs>
      <g>
       <use xlink:href="#med5437033a" x="55.721953" y="311.558047" style="stroke: #000000; stroke-width: 0.8"/>
      </g>
     </g>
     <g id="text_11">
      <!-- 0 -->
      <g style="fill: #4a90e2" transform="translate(43.214141 315.55707) scale(0.1 -0.1)">
       <use xlink:href="#MalgunGothic-13"/>
      </g>
     </g>
    </g>
    <g id="ytick_2">
     <g id="line2d_12">
      <path d="M 55.721953 267.555787 
L 658.518047 267.555787 
" clip-path="url(#p4e71cffea3)" style="fill: none; stroke-dasharray: 2.96,1.28; stroke-dashoffset: 0; stroke: #b0b0b0; stroke-opacity: 0.3; stroke-width: 0.8"/>
     </g>
     <g id="line2d_13">
      <g>
       <use xlink:href="#med5437033a" x="55.721953" y="267.555787" style="stroke: #000000; stroke-width: 0.8"/>
      </g>
     </g>
     <g id="text_12">
      <!-- 50 -->
      <g style="fill: #4a90e2" transform="translate(37.706328 271.554811) scale(0.1 -0.1)">
       <use xlink:href="#MalgunGothic-18"/>
       <use xlink:href="#MalgunGothic-13" transform="translate(55.078125 0)"/>
      </g>
     </g>
    </g>
    <g id="ytick_3">
     <g id="line2d_14">
      <path d="M 55.721953 223.553527 
L 658.518047 223.553527 
" clip-path="url(#p4e71cffea3)" style="fill: none; stroke-dasharray: 2.96,1.28; stroke-dashoffset: 0; stroke: #b0b0b0; stroke-opacity: 0.3; stroke-width: 0.8"/>
     </g>
     <g id="line2d_15">
      <g>
       <use xlink:href="#med5437033a" x="55.721953" y="223.553527" style="stroke: #000000; stroke-width: 0.8"/>
      </g>
     </g>
     <g id="text_13">
      <!-- 100 -->
      <g style="fill: #4a90e2" transform="translate(32.198516 227.552551) scale(0.1 -0.1)">
       <use xlink:href="#MalgunGothic-14"/>
       <use xlink:href="#MalgunGothic-13" transform="translate(55.078125 0)"/>
       <use xlink:href="#MalgunGothic-13" transform="translate(110.15625 0)"/>
      </g>
     </g>
    </g>
    <g id="ytick_4">
     <g id="line2d_16">
      <path d="M 55.721953 179.551267 
L 658.518047 179.551267 
" clip-path="url(#p4e71cffea3)" style="fill: none; stroke-dasharray: 2.96,1.28; stroke-dashoffset: 0; stroke: #b0b0b0; stroke-opacity: 0.3; stroke-width: 0.8"/>
     </g>
     <g id="line2d_17">
      <g>
       <use xlink:href="#med5437033a" x="55.721953" y="179.551267" style="stroke: #000000; stroke-width: 0.8"/>
      </g>
     </g>
     <g id="text_14">
      <!-- 150 -->
      <g style="fill: #4a90e2" transform="translate(32.198516 183.550291) scale(0.1 -0.1)">
       <use xlink:href="#MalgunGothic-14"/>
       <use xlink:href="#MalgunGothic-18" transform="translate(55.078125 0)"/>
       <use xlink:href="#MalgunGothic-13" transform="translate(110.15625 0)"/>
      </g>
     </g>
    </g>
    <g id="ytick_5">
     <g id="line2d_18">
      <path d="M 55.721953 135.549008 
L 658.518047 135.549008 
" clip-path="url(#p4e71cffea3)" style="fill: none; stroke-dasharray: 2.96,1.28; stroke-dashoffset: 0; stroke: #b0b0b0; stroke-opacity: 0.3; stroke-width: 0.8"/>
     </g>
     <g id="line2d_19">
      <g>
       <use xlink:href="#med5437033a" x="55.721953" y="135.549008" style="stroke: #000000; stroke-width: 0.8"/>
      </g>
     </g>
     <g id="text_15">
      <!-- 200 -->
      <g style="fill: #4a90e2" transform="translate(32.198516 139.548031) scale(0.1 -0.1)">
       <use xlink:href="#MalgunGothic-15"/>
       <use xlink:href="#MalgunGothic-13" transform="translate(55.078125 0)"/>
       <use xlink:href="#MalgunGothic-13" transform="translate(110.15625 0)"/>
      </g>
     </g>
    </g>
    <g id="ytick_6">
     <g id="line2d_20">
      <path d="M 55.721953 91.546748 
L 658.518047 91.546748 
" clip-path="url(#p4e71cffea3)" style="fill: none; stroke-dasharray: 2.96,1.28; stroke-dashoffset: 0; stroke: #b0b0b0; stroke-opacity: 0.3; stroke-width: 0.8"/>
     </g>
     <g id="line2d_21">
      <g>
       <use xlink:href="#med5437033a" x="55.721953" y="91.546748" style="stroke: #000000; stroke-width: 0.8"/>
      </g>
     </g>
     <g id="text_16">
      <!-- 250 -->
      <g style="fill: #4a90e2" transform="translate(32.198516 95.545771) scale(0.1 -0.1)">
       <use xlink:href="#MalgunGothic-15"/>
       <use xlink:href="#MalgunGothic-18" transform="translate(55.078125 0)"/>
       <use xlink:href="#MalgunGothic-13" transform="translate(110.15625 0)"/>
      </g>
     </g>
    </g>
    <g id="ytick_7">
     <g id="line2d_22">
      <path d="M 55.721953 47.544488 
L 658.518047 47.544488 
" clip-path="url(#p4e71cffea3)" style="fill: none; stroke-dasharray: 2.96,1.28; stroke-dashoffset: 0; stroke: #b0b0b0; stroke-opacity: 0.3; stroke-width: 0.8"/>
     </g>
     <g id="line2d_23">
      <g>
       <use xlink:href="#med5437033a" x="55.721953" y="47.544488" style="stroke: #000000; stroke-width: 0.8"/>
      </g>
     </g>
     <g id="text_17">
      <!-- 300 -->
      <g style="fill: #4a90e2" transform="translate(32.198516 51.543512) scale(0.1 -0.1)">
       <use xlink:href="#MalgunGothic-16"/>
       <use xlink:href="#MalgunGothic-13" transform="translate(55.078125 0)"/>
       <use xlink:href="#MalgunGothic-13" transform="translate(110.15625 0)"/>
      </g>
     </g>
    </g>
    <g id="text_18">
     <!-- 베스트셀러 등록 도서 수 (권) -->
     <g style="fill: #4a90e2" transform="translate(20.196563 239.877148) rotate(-90) scale(0.1 -0.1)">
      <defs>
       <path id="MalgunGothic-62a" d="M 5069 -563 
L 5069 5466 
L 5544 5466 
L 5544 -563 
L 5069 -563 
z
M 769 1038 
L 769 5081 
L 1228 5081 
L 1228 3481 
L 2741 3481 
L 2741 5081 
L 3200 5081 
L 3200 3219 
L 4006 3219 
L 4006 5344 
L 4475 5344 
L 4475 -378 
L 4006 -378 
L 4006 2803 
L 3200 2803 
L 3200 1038 
L 769 1038 
z
M 2741 3066 
L 1228 3066 
L 1228 1453 
L 2741 1453 
L 2741 3066 
z
" transform="scale(0.015625)"/>
       <path id="MalgunGothic-75b" d="M 3194 3897 
Q 2969 3416 2328 2930 
Q 1688 2444 959 2247 
L 641 2619 
Q 1703 2841 2329 3472 
Q 2956 4103 2956 4659 
L 2956 4978 
L 3438 4978 
L 3438 4659 
Q 3438 4094 4073 3476 
Q 4709 2859 5759 2625 
L 5428 2253 
Q 4694 2481 4058 2956 
Q 3422 3431 3194 3897 
z
M 5997 447 
L 403 447 
L 403 863 
L 5997 863 
L 5997 447 
z
" transform="scale(0.015625)"/>
       <path id="MalgunGothic-a9d" d="M 5131 4469 
L 1766 4469 
L 1766 3597 
L 4959 3597 
L 4959 3181 
L 1766 3181 
L 1766 2356 
L 5228 2356 
L 5228 1941 
L 1306 1941 
L 1306 4878 
L 5131 4878 
L 5131 4469 
z
M 403 384 
L 403 800 
L 5997 800 
L 5997 384 
L 403 384 
z
" transform="scale(0.015625)"/>
       <path id="MalgunGothic-702" d="M 5056 2425 
L 5056 5466 
L 5522 5466 
L 5522 2425 
L 5056 2425 
z
M 3975 2425 
L 3975 3884 
L 2994 3884 
L 2994 4306 
L 3975 4306 
L 3975 5344 
L 4434 5344 
L 4434 2425 
L 3975 2425 
z
M 3200 2625 
Q 2397 3081 2003 3847 
Q 1913 3544 1545 3134 
Q 1178 2725 781 2472 
L 447 2791 
Q 1041 3088 1403 3606 
Q 1766 4125 1766 4744 
L 1766 5253 
L 2222 5253 
L 2222 4744 
Q 2222 4175 2590 3690 
Q 2959 3206 3500 2969 
L 3200 2625 
z
M 1747 -422 
L 1747 1069 
L 5063 1069 
L 5063 1678 
L 1747 1678 
L 1747 2094 
L 5522 2094 
L 5522 666 
L 2216 666 
L 2216 -6 
L 5684 -6 
L 5684 -422 
L 1747 -422 
z
" transform="scale(0.015625)"/>
       <path id="MalgunGothic-51c" d="M 4959 -563 
L 4959 2566 
L 3866 2566 
L 3866 2981 
L 4959 2981 
L 4959 5466 
L 5428 5466 
L 5428 -563 
L 4959 -563 
z
M 922 781 
L 922 3169 
L 3091 3169 
L 3091 4506 
L 934 4506 
L 934 4922 
L 3559 4922 
L 3559 2766 
L 1388 2766 
L 1388 1191 
Q 2872 1191 3298 1206 
Q 3725 1222 4056 1288 
L 4134 922 
Q 3369 781 922 781 
z
" transform="scale(0.015625)"/>
       <path id="MalgunGothic-3" transform="scale(0.015625)"/>
       <path id="MalgunGothic-49f" d="M 1344 3263 
L 1344 5294 
L 5063 5294 
L 5063 4878 
L 1813 4878 
L 1813 3681 
L 5125 3681 
L 5125 3263 
L 1344 3263 
z
M 403 2194 
L 403 2613 
L 5997 2613 
L 5997 2194 
L 403 2194 
z
M 3200 -513 
Q 2253 -513 1743 -219 
Q 1234 75 1234 588 
Q 1234 1100 1742 1395 
Q 2250 1691 3200 1691 
Q 4150 1691 4658 1395 
Q 5166 1100 5166 588 
Q 5166 75 4656 -219 
Q 4147 -513 3200 -513 
z
M 3200 1294 
Q 2466 1294 2097 1103 
Q 1728 913 1728 588 
Q 1728 263 2098 73 
Q 2469 -116 3200 -116 
Q 3931 -116 4301 73 
Q 4672 263 4672 588 
Q 4672 913 4303 1103 
Q 3934 1294 3200 1294 
z
" transform="scale(0.015625)"/>
       <path id="MalgunGothic-53c" d="M 403 1881 
L 403 2291 
L 2963 2291 
L 2963 2950 
L 1344 2950 
L 1344 4359 
L 4594 4359 
L 4594 4922 
L 1344 4922 
L 1344 5331 
L 5056 5331 
L 5056 3956 
L 1806 3956 
L 1806 3359 
L 5197 3359 
L 5197 2950 
L 3438 2950 
L 3438 2291 
L 5997 2291 
L 5997 1881 
L 403 1881 
z
M 4609 -563 
L 4609 878 
L 1197 878 
L 1197 1300 
L 5075 1300 
L 5075 -563 
L 4609 -563 
z
" transform="scale(0.015625)"/>
       <path id="MalgunGothic-6f0" d="M 4947 -563 
L 4947 3072 
L 3541 3072 
L 3541 3488 
L 4947 3488 
L 4947 5466 
L 5416 5466 
L 5416 -563 
L 4947 -563 
z
M 3775 966 
Q 3269 1353 2826 1939 
Q 2384 2525 2266 2950 
Q 2122 2463 1694 1872 
Q 1266 1281 763 891 
L 403 1203 
Q 1147 1703 1587 2479 
Q 2028 3256 2028 4063 
L 2028 5050 
L 2491 5050 
L 2491 4084 
Q 2491 3303 2927 2556 
Q 3363 1809 4103 1331 
L 3775 966 
z
" transform="scale(0.015625)"/>
       <path id="MalgunGothic-739" d="M 5491 2994 
Q 4750 3097 4078 3498 
Q 3406 3900 3200 4275 
Q 2975 3891 2309 3491 
Q 1644 3091 922 2956 
L 634 3347 
Q 1559 3450 2261 3942 
Q 2963 4434 2963 5013 
L 2963 5275 
L 3431 5275 
L 3431 5013 
Q 3431 4431 4118 3948 
Q 4806 3466 5766 3378 
L 5491 2994 
z
M 3431 1838 
L 3431 -563 
L 2963 -563 
L 2963 1838 
L 403 1838 
L 403 2253 
L 5997 2253 
L 5997 1838 
L 3431 1838 
z
" transform="scale(0.015625)"/>
       <path id="MalgunGothic-b" d="M 1438 -1044 
Q 447 88 447 1753 
Q 447 3431 1438 4600 
L 1888 4600 
Q 878 3372 878 1759 
Q 878 153 1881 -1044 
L 1438 -1044 
z
" transform="scale(0.015625)"/>
       <path id="MalgunGothic-300" d="M 4978 781 
L 4978 1759 
L 3675 1759 
L 3675 2163 
L 4978 2163 
L 4978 5466 
L 5453 5466 
L 5453 781 
L 4978 781 
z
M 4519 2791 
Q 4144 2763 2828 2719 
L 2828 1094 
L 2369 1094 
L 2369 2700 
Q 1188 2656 616 2656 
L 550 3097 
Q 2169 3097 3463 3144 
Q 3500 3744 3500 4744 
L 1113 4744 
L 1113 5159 
L 3969 5159 
Q 3969 3897 3916 3163 
Q 4284 3175 4494 3194 
L 4519 2791 
z
M 1491 -384 
L 1491 1422 
L 1959 1422 
L 1959 31 
L 5600 31 
L 5600 -384 
L 1491 -384 
z
" transform="scale(0.015625)"/>
       <path id="MalgunGothic-c" d="M 81 -1044 
Q 1081 150 1081 1759 
Q 1081 3378 72 4600 
L 525 4600 
Q 1522 3431 1522 1753 
Q 1522 88 525 -1044 
L 81 -1044 
z
" transform="scale(0.015625)"/>
      </defs>
      <use xlink:href="#MalgunGothic-62a"/>
      <use xlink:href="#MalgunGothic-75b" transform="translate(100 0)"/>
      <use xlink:href="#MalgunGothic-a9d" transform="translate(200 0)"/>
      <use xlink:href="#MalgunGothic-702" transform="translate(300 0)"/>
      <use xlink:href="#MalgunGothic-51c" transform="translate(400 0)"/>
      <use xlink:href="#MalgunGothic-3" transform="translate(500 0)"/>
      <use xlink:href="#MalgunGothic-49f" transform="translate(535.15625 0)"/>
      <use xlink:href="#MalgunGothic-53c" transform="translate(635.15625 0)"/>
      <use xlink:href="#MalgunGothic-3" transform="translate(735.15625 0)"/>
      <use xlink:href="#MalgunGothic-466" transform="translate(770.3125 0)"/>
      <use xlink:href="#MalgunGothic-6f0" transform="translate(870.3125 0)"/>
      <use xlink:href="#MalgunGothic-3" transform="translate(970.3125 0)"/>
      <use xlink:href="#MalgunGothic-739" transform="translate(1005.46875 0)"/>
      <use xlink:href="#MalgunGothic-3" transform="translate(1105.46875 0)"/>
      <use xlink:href="#MalgunGothic-b" transform="translate(1140.625 0)"/>
      <use xlink:href="#MalgunGothic-300" transform="translate(1171.09375 0)"/>
      <use xlink:href="#MalgunGothic-c" transform="translate(1271.09375 0)"/>
     </g>
    </g>
   </g>
   <g id="line2d_24">
    <path clip-path="url(#p4e71cffea3)" style="fill: none; stroke: #424242; stroke-width: 2.25; stroke-linecap: square"/>
   </g>
   <g id="line2d_25">
    <path clip-path="url(#p4e71cffea3)" style="fill: none; stroke: #424242; stroke-width: 2.25; stroke-linecap: square"/>
   </g>
   <g id="line2d_26">
    <path clip-path="url(#p4e71cffea3)" style="fill: none; stroke: #424242; stroke-width: 2.25; stroke-linecap: square"/>
   </g>
   <g id="line2d_27">
    <path clip-path="url(#p4e71cffea3)" style="fill: none; stroke: #424242; stroke-width: 2.25; stroke-linecap: square"/>
   </g>
   <g id="line2d_28">
    <path clip-path="url(#p4e71cffea3)" style="fill: none; stroke: #424242; stroke-width: 2.25; stroke-linecap: square"/>
   </g>
   <g id="line2d_29">
    <path clip-path="url(#p4e71cffea3)" style="fill: none; stroke: #424242; stroke-width: 2.25; stroke-linecap: square"/>
   </g>
   <g id="line2d_30">
    <path clip-path="url(#p4e71cffea3)" style="fill: none; stroke: #424242; stroke-width: 2.25; stroke-linecap: square"/>
   </g>
   <g id="line2d_31">
    <path clip-path="url(#p4e71cffea3)" style="fill: none; stroke: #424242; stroke-width: 2.25; stroke-linecap: square"/>
   </g>
   <g id="line2d_32">
    <path clip-path="url(#p4e71cffea3)" style="fill: none; stroke: #424242; stroke-width: 2.25; stroke-linecap: square"/>
   </g>
   <g id="patch_12">
    <path d="M 55.721953 311.558047 
L 55.721953 38.04 
" style="fill: none; stroke: #000000; stroke-width: 0.8; stroke-linejoin: miter; stroke-linecap: square"/>
   </g>
   <g id="patch_13">
    <path d="M 658.518047 311.558047 
L 658.518047 38.04 
" style="fill: none; stroke: #000000; stroke-width: 0.8; stroke-linejoin: miter; stroke-linecap: square"/>
   </g>
   <g id="patch_14">
    <path d="M 55.721953 311.558047 
L 658.518047 311.558047 
" style="fill: none; stroke: #000000; stroke-width: 0.8; stroke-linejoin: miter; stroke-linecap: square"/>
   </g>
   <g id="patch_15">
    <path d="M 55.721953 38.04 
L 658.518047 38.04 
" style="fill: none; stroke: #000000; stroke-width: 0.8; stroke-linejoin: miter; stroke-linecap: square"/>
   </g>
  </g>
  <g id="axes_2">
   <g id="FillBetweenPolyCollection_1"/>
   <g id="matplotlib.axis_3">
    <g id="ytick_8">
     <g id="line2d_33">
      <defs>
       <path id="mfe1281a57d" d="M 0 0 
L 3.5 0 
" style="stroke: #000000; stroke-width: 0.8"/>
      </defs>
      <g>
       <use xlink:href="#mfe1281a57d" x="658.518047" y="278.879187" style="stroke: #000000; stroke-width: 0.8"/>
      </g>
     </g>
     <g id="text_19">
      <!-- 1500 -->
      <g style="fill: #d0021b" transform="translate(665.518047 282.87821) scale(0.1 -0.1)">
       <use xlink:href="#MalgunGothic-14"/>
       <use xlink:href="#MalgunGothic-18" transform="translate(55.078125 0)"/>
       <use xlink:href="#MalgunGothic-13" transform="translate(110.15625 0)"/>
       <use xlink:href="#MalgunGothic-13" transform="translate(165.234375 0)"/>
      </g>
     </g>
    </g>
    <g id="ytick_9">
     <g id="line2d_34">
      <g>
       <use xlink:href="#mfe1281a57d" x="658.518047" y="240.929381" style="stroke: #000000; stroke-width: 0.8"/>
      </g>
     </g>
     <g id="text_20">
      <!-- 2000 -->
      <g style="fill: #d0021b" transform="translate(665.518047 244.928404) scale(0.1 -0.1)">
       <use xlink:href="#MalgunGothic-15"/>
       <use xlink:href="#MalgunGothic-13" transform="translate(55.078125 0)"/>
       <use xlink:href="#MalgunGothic-13" transform="translate(110.15625 0)"/>
       <use xlink:href="#MalgunGothic-13" transform="translate(165.234375 0)"/>
      </g>
     </g>
    </g>
    <g id="ytick_10">
     <g id="line2d_35">
      <g>
       <use xlink:href="#mfe1281a57d" x="658.518047" y="202.979575" style="stroke: #000000; stroke-width: 0.8"/>
      </g>
     </g>
     <g id="text_21">
      <!-- 2500 -->
      <g style="fill: #d0021b" transform="translate(665.518047 206.978598) scale(0.1 -0.1)">
       <use xlink:href="#MalgunGothic-15"/>
       <use xlink:href="#MalgunGothic-18" transform="translate(55.078125 0)"/>
       <use xlink:href="#MalgunGothic-13" transform="translate(110.15625 0)"/>
       <use xlink:href="#MalgunGothic-13" transform="translate(165.234375 0)"/>
      </g>
     </g>
    </g>
    <g id="ytick_11">
     <g id="line2d_36">
      <g>
       <use xlink:href="#mfe1281a57d" x="658.518047" y="165.029769" style="stroke: #000000; stroke-width: 0.8"/>
      </g>
     </g>
     <g id="text_22">
      <!-- 3000 -->
      <g style="fill: #d0021b" transform="translate(665.518047 169.028792) scale(0.1 -0.1)">
       <use xlink:href="#MalgunGothic-16"/>
       <use xlink:href="#MalgunGothic-13" transform="translate(55.078125 0)"/>
       <use xlink:href="#MalgunGothic-13" transform="translate(110.15625 0)"/>
       <use xlink:href="#MalgunGothic-13" transform="translate(165.234375 0)"/>
      </g>
     </g>
    </g>
    <g id="ytick_12">
     <g id="line2d_37">
      <g>
       <use xlink:href="#mfe1281a57d" x="658.518047" y="127.079963" style="stroke: #000000; stroke-width: 0.8"/>
      </g>
     </g>
     <g id="text_23">
      <!-- 3500 -->
      <g style="fill: #d0021b" transform="translate(665.518047 131.078986) scale(0.1 -0.1)">
       <use xlink:href="#MalgunGothic-16"/>
       <use xlink:href="#MalgunGothic-18" transform="translate(55.078125 0)"/>
       <use xlink:href="#MalgunGothic-13" transform="translate(110.15625 0)"/>
       <use xlink:href="#MalgunGothic-13" transform="translate(165.234375 0)"/>
      </g>
     </g>
    </g>
    <g id="ytick_13">
     <g id="line2d_38">
      <g>
       <use xlink:href="#mfe1281a57d" x="658.518047" y="89.130157" style="stroke: #000000; stroke-width: 0.8"/>
      </g>
     </g>
     <g id="text_24">
      <!-- 4000 -->
      <g style="fill: #d0021b" transform="translate(665.518047 93.12918) scale(0.1 -0.1)">
       <use xlink:href="#MalgunGothic-17"/>
       <use xlink:href="#MalgunGothic-13" transform="translate(55.078125 0)"/>
       <use xlink:href="#MalgunGothic-13" transform="translate(110.15625 0)"/>
       <use xlink:href="#MalgunGothic-13" transform="translate(165.234375 0)"/>
      </g>
     </g>
    </g>
    <g id="ytick_14">
     <g id="line2d_39">
      <g>
       <use xlink:href="#mfe1281a57d" x="658.518047" y="51.180351" style="stroke: #000000; stroke-width: 0.8"/>
      </g>
     </g>
     <g id="text_25">
      <!-- 4500 -->
      <g style="fill: #d0021b" transform="translate(665.518047 55.179375) scale(0.1 -0.1)">
       <use xlink:href="#MalgunGothic-17"/>
       <use xlink:href="#MalgunGothic-18" transform="translate(55.078125 0)"/>
       <use xlink:href="#MalgunGothic-13" transform="translate(110.15625 0)"/>
       <use xlink:href="#MalgunGothic-13" transform="translate(165.234375 0)"/>
      </g>
     </g>
    </g>
    <g id="text_26">
     <!-- 평균 판매지수 -->
     <g style="fill: #d0021b" transform="translate(706.089922 206.556836) rotate(-90) scale(0.1 -0.1)">
      <defs>
       <path id="MalgunGothic-ae1" d="M 3884 2994 
L 3884 3391 
L 4947 3391 
L 4947 3969 
L 3884 3969 
L 3884 4366 
L 4947 4366 
L 4947 5466 
L 5416 5466 
L 5416 1881 
L 4947 1881 
L 4947 2994 
L 3884 2994 
z
M 794 4750 
L 794 5159 
L 4056 5159 
L 4056 4750 
L 794 4750 
z
M 4306 2247 
Q 3913 2169 3231 2169 
L 647 2169 
L 647 2578 
L 1466 2578 
L 1394 4475 
L 1850 4475 
L 1906 2578 
L 2900 2578 
L 2956 4475 
L 3413 4475 
L 3334 2584 
Q 3897 2584 4275 2650 
L 4306 2247 
z
M 3547 -538 
Q 2594 -538 2081 -227 
Q 1569 84 1569 594 
Q 1569 1100 2076 1411 
Q 2584 1722 3547 1722 
Q 4506 1722 5017 1411 
Q 5528 1100 5528 594 
Q 5528 84 5012 -227 
Q 4497 -538 3547 -538 
z
M 3547 1325 
Q 2834 1325 2451 1128 
Q 2069 931 2069 594 
Q 2069 259 2453 62 
Q 2838 -134 3547 -134 
Q 4256 -134 4647 62 
Q 5038 259 5038 594 
Q 5038 931 4648 1128 
Q 4259 1325 3547 1325 
z
" transform="scale(0.015625)"/>
       <path id="MalgunGothic-30e" d="M 2344 831 
L 2344 2497 
L 403 2497 
L 403 2919 
L 4569 2919 
Q 4622 3438 4622 4788 
L 1338 4788 
L 1338 5203 
L 5088 5203 
Q 5088 3647 5025 2919 
L 5997 2919 
L 5997 2497 
L 4366 2497 
L 4366 831 
L 3903 831 
L 3903 2497 
L 2803 2497 
L 2803 831 
L 2344 831 
z
M 1313 -300 
L 1313 1638 
L 1772 1638 
L 1772 116 
L 5209 116 
L 5209 -300 
L 1313 -300 
z
" transform="scale(0.015625)"/>
       <path id="MalgunGothic-ab6" d="M 5125 3116 
L 5125 1063 
L 4659 1063 
L 4659 5466 
L 5125 5466 
L 5125 3534 
L 6034 3534 
L 6034 3116 
L 5125 3116 
z
M 634 4678 
L 634 5088 
L 3891 5088 
L 3891 4678 
L 634 4678 
z
M 4213 2284 
Q 4116 2259 3702 2234 
Q 3288 2209 3144 2209 
L 469 2209 
L 469 2619 
L 1275 2619 
L 1209 4384 
L 1663 4384 
L 1728 2619 
L 2797 2619 
L 2859 4384 
L 3309 4384 
L 3250 2625 
Q 3838 2625 4172 2688 
L 4213 2284 
z
M 1447 -341 
L 1447 1528 
L 1913 1528 
L 1913 78 
L 5294 78 
L 5294 -341 
L 1447 -341 
z
" transform="scale(0.015625)"/>
       <path id="MalgunGothic-590" d="M 5069 -563 
L 5069 2584 
L 4313 2584 
L 4313 -378 
L 3853 -378 
L 3853 5344 
L 4313 5344 
L 4313 3003 
L 5069 3003 
L 5069 5466 
L 5538 5466 
L 5538 -563 
L 5069 -563 
z
M 763 1197 
L 763 4928 
L 3175 4928 
L 3175 1197 
L 763 1197 
z
M 2713 4519 
L 1222 4519 
L 1222 1606 
L 2713 1606 
L 2713 4519 
z
" transform="scale(0.015625)"/>
       <path id="MalgunGothic-90f" d="M 4884 -563 
L 4884 5466 
L 5350 5466 
L 5350 -563 
L 4884 -563 
z
M 3775 909 
Q 3228 1338 2822 1881 
Q 2416 2425 2297 2859 
Q 2178 2397 1756 1814 
Q 1334 1231 825 825 
L 475 1147 
Q 1191 1638 1625 2425 
Q 2059 3213 2059 4019 
L 2059 4525 
L 716 4525 
L 716 4941 
L 3884 4941 
L 3884 4525 
L 2528 4525 
L 2528 4038 
Q 2528 3238 2968 2459 
Q 3409 1681 4097 1269 
L 3775 909 
z
" transform="scale(0.015625)"/>
      </defs>
      <use xlink:href="#MalgunGothic-ae1"/>
      <use xlink:href="#MalgunGothic-30e" transform="translate(100 0)"/>
      <use xlink:href="#MalgunGothic-3" transform="translate(200 0)"/>
      <use xlink:href="#MalgunGothic-ab6" transform="translate(235.15625 0)"/>
      <use xlink:href="#MalgunGothic-590" transform="translate(335.15625 0)"/>
      <use xlink:href="#MalgunGothic-90f" transform="translate(435.15625 0)"/>
      <use xlink:href="#MalgunGothic-739" transform="translate(535.15625 0)"/>
     </g>
    </g>
   </g>
   <g id="line2d_40">
    <path d="M 108.030705 299.125408 
L 170.303029 270.877199 
L 232.575353 290.377978 
L 294.847676 291.220464 
L 357.12 50.472638 
L 419.392324 166.541436 
L 481.664647 280.297056 
L 543.936971 110.531399 
L 606.209295 210.794927 
" clip-path="url(#p4e71cffea3)" style="fill: none; stroke: #d0021b; stroke-width: 2.5; stroke-linecap: square"/>
    <defs>
     <path id="m4e6ae66fee" d="M 0 3 
C 0.795609 3 1.55874 2.683901 2.12132 2.12132 
C 2.683901 1.55874 3 0.795609 3 0 
C 3 -0.795609 2.683901 -1.55874 2.12132 -2.12132 
C 1.55874 -2.683901 0.795609 -3 0 -3 
C -0.795609 -3 -1.55874 -2.683901 -2.12132 -2.12132 
C -2.683901 -1.55874 -3 -0.795609 -3 0 
C -3 0.795609 -2.683901 1.55874 -2.12132 2.12132 
C -1.55874 2.683901 -0.795609 3 0 3 
z
" style="stroke: #ffffff; stroke-width: 0.75"/>
    </defs>
    <g clip-path="url(#p4e71cffea3)">
     <use xlink:href="#m4e6ae66fee" x="108.030705" y="299.125408" style="fill: #d0021b; stroke: #ffffff; stroke-width: 0.75"/>
     <use xlink:href="#m4e6ae66fee" x="170.303029" y="270.877199" style="fill: #d0021b; stroke: #ffffff; stroke-width: 0.75"/>
     <use xlink:href="#m4e6ae66fee" x="232.575353" y="290.377978" style="fill: #d0021b; stroke: #ffffff; stroke-width: 0.75"/>
     <use xlink:href="#m4e6ae66fee" x="294.847676" y="291.220464" style="fill: #d0021b; stroke: #ffffff; stroke-width: 0.75"/>
     <use xlink:href="#m4e6ae66fee" x="357.12" y="50.472638" style="fill: #d0021b; stroke: #ffffff; stroke-width: 0.75"/>
     <use xlink:href="#m4e6ae66fee" x="419.392324" y="166.541436" style="fill: #d0021b; stroke: #ffffff; stroke-width: 0.75"/>
     <use xlink:href="#m4e6ae66fee" x="481.664647" y="280.297056" style="fill: #d0021b; stroke: #ffffff; stroke-width: 0.75"/>
     <use xlink:href="#m4e6ae66fee" x="543.936971" y="110.531399" style="fill: #d0021b; stroke: #ffffff; stroke-width: 0.75"/>
     <use xlink:href="#m4e6ae66fee" x="606.209295" y="210.794927" style="fill: #d0021b; stroke: #ffffff; stroke-width: 0.75"/>
    </g>
   </g>
   <g id="patch_16">
    <path d="M 55.721953 311.558047 
L 55.721953 38.04 
" style="fill: none; stroke: #000000; stroke-width: 0.8; stroke-linejoin: miter; stroke-linecap: square"/>
   </g>
   <g id="patch_17">
    <path d="M 658.518047 311.558047 
L 658.518047 38.04 
" style="fill: none; stroke: #000000; stroke-width: 0.8; stroke-linejoin: miter; stroke-linecap: square"/>
   </g>
   <g id="patch_18">
    <path d="M 55.721953 311.558047 
L 658.518047 311.558047 
" style="fill: none; stroke: #000000; stroke-width: 0.8; stroke-linejoin: miter; stroke-linecap: square"/>
   </g>
   <g id="patch_19">
    <path d="M 55.721953 38.04 
L 658.518047 38.04 
" style="fill: none; stroke: #000000; stroke-width: 0.8; stroke-linejoin: miter; stroke-linecap: square"/>
   </g>
   <g id="text_27">
    <!-- 연도별 출간 도서 수 및 평균 판매지수 추이 (2018년 이후) -->
    <g transform="translate(173.733125 23.04) scale(0.14 -0.14)">
     <defs>
      <path id="MalgunGothicBold-806" d="M 3506 2528 
Q 3034 1947 2222 1947 
Q 1519 1947 1047 2401 
Q 575 2856 575 3597 
Q 575 4338 1045 4792 
Q 1516 5247 2222 5247 
Q 3063 5247 3541 4628 
L 4781 4628 
L 4781 5466 
L 5556 5466 
L 5556 1106 
L 4781 1106 
L 4781 2528 
L 3506 2528 
z
M 2222 4594 
Q 1825 4594 1587 4330 
Q 1350 4066 1350 3597 
Q 1350 3128 1589 2864 
Q 1828 2600 2222 2600 
Q 2609 2600 2850 2865 
Q 3091 3131 3091 3597 
Q 3091 4063 2852 4328 
Q 2613 4594 2222 4594 
z
M 3809 3150 
L 4781 3150 
L 4781 4000 
L 3822 4000 
Q 3859 3806 3859 3597 
Q 3859 3363 3809 3150 
z
M 1672 -353 
L 1672 1638 
L 2456 1638 
L 2456 306 
L 5678 306 
L 5678 -353 
L 1672 -353 
z
" transform="scale(0.015625)"/>
      <path id="MalgunGothicBold-463" d="M 403 263 
L 403 916 
L 2803 916 
L 2803 2113 
L 1294 2113 
L 1294 4934 
L 5106 4934 
L 5106 4281 
L 2081 4281 
L 2081 2766 
L 5197 2766 
L 5197 2113 
L 3591 2113 
L 3591 916 
L 5997 916 
L 5997 263 
L 403 263 
z
" transform="scale(0.015625)"/>
      <path id="MalgunGothicBold-634" d="M 722 2541 
L 722 5269 
L 1491 5269 
L 1491 4525 
L 2847 4525 
L 2847 5269 
L 3622 5269 
L 3622 4716 
L 4794 4716 
L 4794 5466 
L 5563 5466 
L 5563 2438 
L 4794 2438 
L 4794 2956 
L 3622 2956 
L 3622 2541 
L 722 2541 
z
M 3622 3547 
L 4794 3547 
L 4794 4128 
L 3622 4128 
L 3622 3547 
z
M 2847 3866 
L 1491 3866 
L 1491 3194 
L 2847 3194 
L 2847 3866 
z
M 1663 -466 
L 1663 1166 
L 4794 1166 
L 4794 1538 
L 1663 1538 
L 1663 2175 
L 5563 2175 
L 5563 563 
L 2438 563 
L 2438 172 
L 5716 172 
L 5716 -466 
L 1663 -466 
z
" transform="scale(0.015625)"/>
      <path id="MalgunGothicBold-3" transform="scale(0.015625)"/>
      <path id="MalgunGothicBold-9b4" d="M 5428 3225 
Q 4822 3272 4172 3500 
Q 3522 3728 3206 4013 
Q 2919 3731 2273 3500 
Q 1628 3269 947 3213 
L 538 3809 
Q 1231 3806 1818 3981 
Q 2406 4156 2656 4447 
L 1019 4447 
L 1019 5063 
L 2809 5063 
L 2809 5556 
L 3597 5556 
L 3597 5063 
L 5381 5063 
L 5381 4447 
L 3750 4447 
Q 4013 4163 4586 3995 
Q 5159 3828 5813 3828 
L 5428 3225 
z
M 1222 -459 
L 1222 1088 
L 4391 1088 
L 4391 1403 
L 1222 1403 
L 1222 2028 
L 2803 2028 
L 2803 2394 
L 403 2394 
L 403 3034 
L 5997 3034 
L 5997 2394 
L 3591 2394 
L 3591 2028 
L 5172 2028 
L 5172 488 
L 2003 488 
L 2003 166 
L 5319 166 
L 5319 -459 
L 1222 -459 
z
" transform="scale(0.015625)"/>
      <path id="MalgunGothicBold-27b" d="M 5253 3016 
L 5253 1125 
L 4475 1125 
L 4475 5466 
L 5253 5466 
L 5253 3675 
L 6175 3675 
L 6175 3016 
L 5253 3016 
z
M 947 1753 
L 378 2369 
Q 1181 2581 1829 3164 
Q 2478 3747 2669 4416 
L 775 4416 
L 775 5075 
L 3634 5075 
Q 3341 2775 947 1753 
z
M 1484 -353 
L 1484 1638 
L 2272 1638 
L 2272 306 
L 5422 306 
L 5422 -353 
L 1484 -353 
z
" transform="scale(0.015625)"/>
      <path id="MalgunGothicBold-6ed" d="M 4794 -563 
L 4794 2981 
L 3488 2981 
L 3488 3641 
L 4794 3641 
L 4794 5466 
L 5575 5466 
L 5575 -563 
L 4794 -563 
z
M 3609 934 
Q 2681 1578 2228 2444 
Q 1731 1463 838 831 
L 231 1369 
Q 925 1725 1381 2434 
Q 1838 3144 1838 3891 
L 1838 5063 
L 2619 5063 
L 2619 3909 
Q 2619 3178 3066 2498 
Q 3513 1819 4159 1544 
L 3609 934 
z
" transform="scale(0.015625)"/>
      <path id="MalgunGothicBold-736" d="M 5363 2906 
Q 4656 3053 4053 3393 
Q 3450 3734 3194 4103 
Q 2938 3716 2331 3372 
Q 1725 3028 1075 2906 
L 609 3500 
Q 1597 3619 2200 4072 
Q 2803 4525 2803 5063 
L 2803 5338 
L 3584 5338 
L 3584 5063 
Q 3584 4519 4181 4062 
Q 4778 3606 5766 3494 
L 5363 2906 
z
M 3584 1678 
L 3584 -563 
L 2803 -563 
L 2803 1678 
L 403 1678 
L 403 2338 
L 5997 2338 
L 5997 1678 
L 3584 1678 
z
" transform="scale(0.015625)"/>
      <path id="MalgunGothicBold-5fd" d="M 4722 2100 
L 4722 5466 
L 5491 5466 
L 5491 2100 
L 4722 2100 
z
M 806 2644 
L 806 5241 
L 3694 5241 
L 3694 2644 
L 806 2644 
z
M 2925 4581 
L 1575 4581 
L 1575 3303 
L 2925 3303 
L 2925 4581 
z
M 5575 -563 
Q 5000 -494 4420 -205 
Q 3841 84 3506 453 
Q 3163 66 2591 -218 
Q 2019 -503 1447 -563 
L 991 50 
Q 1684 81 2240 367 
Q 2797 653 2963 1019 
L 1388 1019 
L 1388 1678 
L 3116 1678 
L 3116 2350 
L 3897 2350 
L 3897 1678 
L 5625 1678 
L 5625 1019 
L 4050 1019 
Q 4163 706 4744 411 
Q 5325 116 6003 72 
L 5575 -563 
z
" transform="scale(0.015625)"/>
      <path id="MalgunGothicBold-ade" d="M 3916 2969 
L 3916 3534 
L 4781 3534 
L 4781 3841 
L 3916 3841 
L 3916 4409 
L 4781 4409 
L 4781 5466 
L 5556 5466 
L 5556 1925 
L 4781 1925 
L 4781 2969 
L 3916 2969 
z
M 622 4569 
L 622 5209 
L 3956 5209 
L 3956 4569 
L 622 4569 
z
M 4269 2188 
Q 3891 2094 3053 2094 
L 469 2094 
L 469 2741 
L 1203 2741 
L 1131 4269 
L 1906 4269 
L 1947 2741 
L 2644 2741 
L 2681 4269 
L 3444 4269 
L 3378 2747 
Q 3853 2747 4213 2816 
L 4269 2188 
z
M 3634 -569 
Q 2616 -569 2102 -251 
Q 1588 66 1588 653 
Q 1588 1216 2122 1545 
Q 2656 1875 3634 1875 
Q 4628 1875 5159 1554 
Q 5691 1234 5691 653 
Q 5691 75 5156 -247 
Q 4622 -569 3634 -569 
z
M 3634 1234 
Q 2381 1234 2381 653 
Q 2381 72 3634 72 
Q 4897 72 4897 653 
Q 4897 1234 3634 1234 
z
" transform="scale(0.015625)"/>
      <path id="MalgunGothicBold-30b" d="M 2234 909 
L 2234 2350 
L 403 2350 
L 403 3009 
L 4300 3009 
Q 4359 3959 4359 4550 
L 1281 4550 
L 1281 5203 
L 5147 5203 
Q 5147 4566 5056 3009 
L 5997 3009 
L 5997 2350 
L 4531 2350 
L 4531 909 
L 3763 909 
L 3763 2350 
L 3009 2350 
L 3009 909 
L 2234 909 
z
M 1216 -319 
L 1216 1806 
L 1984 1806 
L 1984 334 
L 5281 334 
L 5281 -319 
L 1216 -319 
z
" transform="scale(0.015625)"/>
      <path id="MalgunGothicBold-ab3" d="M 5253 3016 
L 5253 1125 
L 4475 1125 
L 4475 5466 
L 5253 5466 
L 5253 3675 
L 6175 3675 
L 6175 3016 
L 5253 3016 
z
M 556 4441 
L 556 5081 
L 3956 5081 
L 3956 4441 
L 556 4441 
z
M 4269 2125 
Q 3872 2028 3053 2028 
L 403 2028 
L 403 2675 
L 1141 2675 
L 1069 4141 
L 1844 4141 
L 1881 2675 
L 2644 2675 
L 2681 4141 
L 3444 4141 
L 3378 2681 
Q 3822 2681 4213 2759 
L 4269 2125 
z
M 1466 -353 
L 1466 1638 
L 2253 1638 
L 2253 306 
L 5422 306 
L 5422 -353 
L 1466 -353 
z
" transform="scale(0.015625)"/>
      <path id="MalgunGothicBold-58d" d="M 4872 -563 
L 4872 2450 
L 4384 2450 
L 4384 -384 
L 3609 -384 
L 3609 5344 
L 4384 5344 
L 4384 3109 
L 4872 3109 
L 4872 5466 
L 5650 5466 
L 5650 -563 
L 4872 -563 
z
M 634 1119 
L 634 4947 
L 3078 4947 
L 3078 1119 
L 634 1119 
z
M 2309 4294 
L 1409 4294 
L 1409 1778 
L 2309 1778 
L 2309 4294 
z
" transform="scale(0.015625)"/>
      <path id="MalgunGothicBold-90c" d="M 4672 -563 
L 4672 5466 
L 5441 5466 
L 5441 -563 
L 4672 -563 
z
M 3622 928 
Q 2750 1556 2266 2388 
Q 1647 1297 916 813 
L 341 1313 
Q 916 1594 1392 2286 
Q 1869 2978 1869 3659 
L 1869 4300 
L 563 4300 
L 563 4959 
L 3928 4959 
L 3928 4300 
L 2650 4300 
L 2650 3681 
Q 2650 3041 3103 2419 
Q 3556 1797 4141 1503 
L 3622 928 
z
" transform="scale(0.015625)"/>
      <path id="MalgunGothicBold-9b1" d="M 5466 2638 
Q 4834 2728 4206 3028 
Q 3578 3328 3206 3700 
Q 2881 3341 2247 3041 
Q 1613 2741 959 2625 
L 488 3225 
Q 1288 3288 1931 3611 
Q 2575 3934 2725 4325 
L 978 4325 
L 978 4978 
L 2809 4978 
L 2809 5550 
L 3597 5550 
L 3597 4978 
L 5422 4978 
L 5422 4325 
L 3675 4325 
Q 3831 3947 4475 3628 
Q 5119 3309 5875 3231 
L 5466 2638 
z
M 3584 1588 
L 3584 -556 
L 2803 -556 
L 2803 1588 
L 403 1588 
L 403 2253 
L 5997 2253 
L 5997 1588 
L 3584 1588 
z
" transform="scale(0.015625)"/>
      <path id="MalgunGothicBold-884" d="M 4691 -563 
L 4691 5466 
L 5466 5466 
L 5466 -563 
L 4691 -563 
z
M 2203 903 
Q 1484 903 1050 1468 
Q 616 2034 616 2994 
Q 616 3969 1048 4525 
Q 1481 5081 2203 5081 
Q 2922 5081 3351 4520 
Q 3781 3959 3781 2994 
Q 3781 2025 3353 1464 
Q 2925 903 2203 903 
z
M 2203 4416 
Q 1844 4416 1612 4031 
Q 1381 3647 1381 2988 
Q 1381 2338 1618 1950 
Q 1856 1563 2203 1563 
Q 2547 1563 2784 1945 
Q 3022 2328 3022 2988 
Q 3022 3647 2792 4031 
Q 2563 4416 2203 4416 
z
" transform="scale(0.015625)"/>
      <path id="MalgunGothicBold-a" d="M 1513 -1044 
Q 488 94 488 1756 
Q 488 3384 1513 4600 
L 2231 4600 
Q 1250 3334 1250 1759 
Q 1250 197 2231 -1044 
L 1513 -1044 
z
" transform="scale(0.015625)"/>
      <path id="MalgunGothicBold-14" d="M 1322 734 
L 3272 734 
L 3272 0 
L 400 0 
L 400 347 
Q 400 719 526 1033 
Q 653 1347 889 1620 
Q 1125 1894 1881 2459 
Q 2175 2678 2303 2878 
Q 2431 3078 2431 3325 
Q 2431 3631 2251 3801 
Q 2072 3972 1694 3972 
Q 1103 3972 559 3503 
L 559 4288 
Q 1116 4675 1819 4675 
Q 2531 4675 2920 4328 
Q 3309 3981 3309 3369 
Q 3309 3053 3207 2809 
Q 3106 2566 2939 2367 
Q 2772 2169 2555 1998 
Q 2338 1828 2109 1659 
Q 1688 1347 1505 1125 
Q 1322 903 1322 734 
z
" transform="scale(0.015625)"/>
      <path id="MalgunGothicBold-12" d="M 241 2222 
Q 241 3422 670 4048 
Q 1100 4675 1919 4675 
Q 3475 4675 3475 2328 
Q 3475 1172 3051 545 
Q 2628 -81 1825 -81 
Q 241 -81 241 2222 
z
M 1125 2244 
Q 1125 600 1863 600 
Q 2584 600 2584 2288 
Q 2584 3997 1878 3997 
Q 1125 3997 1125 2244 
z
" transform="scale(0.015625)"/>
      <path id="MalgunGothicBold-13" d="M 2534 4675 
L 2534 0 
L 1663 0 
L 1663 3616 
Q 1516 3481 1247 3365 
Q 978 3250 688 3216 
L 688 3988 
Q 1375 4194 1984 4675 
L 2534 4675 
z
" transform="scale(0.015625)"/>
      <path id="MalgunGothicBold-1a" d="M 313 1238 
Q 313 1634 536 1945 
Q 759 2256 1181 2409 
Q 847 2581 655 2851 
Q 463 3122 463 3453 
Q 463 3794 645 4073 
Q 828 4353 1159 4514 
Q 1491 4675 1891 4675 
Q 2294 4675 2628 4517 
Q 2963 4359 3145 4082 
Q 3328 3806 3328 3466 
Q 3328 2788 2572 2431 
Q 2991 2281 3223 1972 
Q 3456 1663 3456 1247 
Q 3456 638 3029 278 
Q 2603 -81 1881 -81 
Q 1169 -81 741 276 
Q 313 634 313 1238 
z
M 1147 1294 
Q 1147 947 1344 756 
Q 1541 566 1884 566 
Q 2238 566 2431 758 
Q 2625 950 2625 1294 
Q 2625 1609 2415 1829 
Q 2206 2050 1884 2050 
Q 1569 2050 1358 1836 
Q 1147 1622 1147 1294 
z
M 1288 3391 
Q 1288 3119 1466 2925 
Q 1644 2731 1897 2731 
Q 2156 2731 2334 2926 
Q 2513 3122 2513 3391 
Q 2513 3694 2347 3861 
Q 2181 4028 1897 4028 
Q 1613 4028 1450 3859 
Q 1288 3691 1288 3391 
z
" transform="scale(0.015625)"/>
      <path id="MalgunGothicBold-3d4" d="M 3103 3219 
L 3103 3834 
L 4709 3834 
L 4709 4288 
L 3103 4288 
L 3103 4903 
L 4709 4903 
L 4709 5466 
L 5478 5466 
L 5478 1147 
L 4709 1147 
L 4709 3219 
L 3103 3219 
z
M 4172 2266 
Q 3444 2125 850 2125 
L 850 5247 
L 1619 5247 
L 1619 2766 
L 2484 2766 
Q 3244 2766 4078 2888 
L 4172 2266 
z
M 1644 -331 
L 1644 1703 
L 2419 1703 
L 2419 325 
L 5606 325 
L 5606 -331 
L 1644 -331 
z
" transform="scale(0.015625)"/>
      <path id="MalgunGothicBold-b6c" d="M 897 4288 
L 897 4928 
L 2803 4928 
L 2803 5522 
L 3591 5522 
L 3591 4928 
L 5503 4928 
L 5503 4288 
L 897 4288 
z
M 3200 1991 
Q 2256 1991 1745 2272 
Q 1234 2553 1234 3041 
Q 1234 3534 1750 3815 
Q 2266 4097 3200 4097 
Q 4131 4097 4645 3815 
Q 5159 3534 5159 3041 
Q 5159 2550 4648 2270 
Q 4138 1991 3200 1991 
z
M 3194 3481 
Q 2613 3481 2323 3353 
Q 2034 3225 2034 3041 
Q 2034 2863 2320 2734 
Q 2606 2606 3194 2606 
Q 3778 2606 4065 2731 
Q 4353 2856 4353 3041 
Q 4353 3228 4061 3354 
Q 3769 3481 3194 3481 
z
M 3591 1050 
L 3591 -563 
L 2803 -563 
L 2803 1050 
L 403 1050 
L 403 1709 
L 5997 1709 
L 5997 1050 
L 3591 1050 
z
" transform="scale(0.015625)"/>
      <path id="MalgunGothicBold-b" d="M 59 -1044 
Q 1047 175 1047 1759 
Q 1047 3328 59 4600 
L 784 4600 
Q 1813 3378 1813 1756 
Q 1813 106 781 -1044 
L 59 -1044 
z
" transform="scale(0.015625)"/>
     </defs>
     <use xlink:href="#MalgunGothicBold-806"/>
     <use xlink:href="#MalgunGothicBold-463" transform="translate(100 0)"/>
     <use xlink:href="#MalgunGothicBold-634" transform="translate(200 0)"/>
     <use xlink:href="#MalgunGothicBold-3" transform="translate(300 0)"/>
     <use xlink:href="#MalgunGothicBold-9b4" transform="translate(335.15625 0)"/>
     <use xlink:href="#MalgunGothicBold-27b" transform="translate(435.15625 0)"/>
     <use xlink:href="#MalgunGothicBold-3" transform="translate(535.15625 0)"/>
     <use xlink:href="#MalgunGothicBold-463" transform="translate(570.3125 0)"/>
     <use xlink:href="#MalgunGothicBold-6ed" transform="translate(670.3125 0)"/>
     <use xlink:href="#MalgunGothicBold-3" transform="translate(770.3125 0)"/>
     <use xlink:href="#MalgunGothicBold-736" transform="translate(805.46875 0)"/>
     <use xlink:href="#MalgunGothicBold-3" transform="translate(905.46875 0)"/>
     <use xlink:href="#MalgunGothicBold-5fd" transform="translate(940.625 0)"/>
     <use xlink:href="#MalgunGothicBold-3" transform="translate(1040.625 0)"/>
     <use xlink:href="#MalgunGothicBold-ade" transform="translate(1075.78125 0)"/>
     <use xlink:href="#MalgunGothicBold-30b" transform="translate(1175.78125 0)"/>
     <use xlink:href="#MalgunGothicBold-3" transform="translate(1275.78125 0)"/>
     <use xlink:href="#MalgunGothicBold-ab3" transform="translate(1310.9375 0)"/>
     <use xlink:href="#MalgunGothicBold-58d" transform="translate(1410.9375 0)"/>
     <use xlink:href="#MalgunGothicBold-90c" transform="translate(1510.9375 0)"/>
     <use xlink:href="#MalgunGothicBold-736" transform="translate(1610.9375 0)"/>
     <use xlink:href="#MalgunGothicBold-3" transform="translate(1710.9375 0)"/>
     <use xlink:href="#MalgunGothicBold-9b1" transform="translate(1746.09375 0)"/>
     <use xlink:href="#MalgunGothicBold-884" transform="translate(1846.09375 0)"/>
     <use xlink:href="#MalgunGothicBold-3" transform="translate(1946.09375 0)"/>
     <use xlink:href="#MalgunGothicBold-a" transform="translate(1981.25 0)"/>
     <use xlink:href="#MalgunGothicBold-14" transform="translate(2017.046875 0)"/>
     <use xlink:href="#MalgunGothicBold-12" transform="translate(2075 0)"/>
     <use xlink:href="#MalgunGothicBold-13" transform="translate(2132.953125 0)"/>
     <use xlink:href="#MalgunGothicBold-1a" transform="translate(2190.90625 0)"/>
     <use xlink:href="#MalgunGothicBold-3d4" transform="translate(2248.859375 0)"/>
     <use xlink:href="#MalgunGothicBold-3" transform="translate(2348.859375 0)"/>
     <use xlink:href="#MalgunGothicBold-884" transform="translate(2384.015625 0)"/>
     <use xlink:href="#MalgunGothicBold-b6c" transform="translate(2484.015625 0)"/>
     <use xlink:href="#MalgunGothicBold-b" transform="translate(2584.015625 0)"/>
    </g>
   </g>
  </g>
 </g>
 <defs>
  <clipPath id="p4e71cffea3">
   <rect x="55.721953" y="38.04" width="602.796094" height="273.518047"/>
  </clipPath>
 </defs>
</svg>
